SplineFontDB: 3.0
FontName: LerLatmo
FullName: LerLatmo
FamilyName: LerLatmo
Weight: Regular
Copyright: Copyright (c) 2016, TUSF,
UComments: "2016-12-6: Created with FontForge (http://fontforge.org)"
Version: 001.000
ItalicAngle: 0
UnderlinePosition: -306
UnderlineWidth: 102
Ascent: 1638
Descent: 410
InvalidEm: 0
LayerCount: 2
Layer: 0 0 "Back" 1
Layer: 1 0 "Fore" 0
XUID: [1021 913 -1209976370 4439358]
StyleMap: 0x0000
FSType: 0
OS2Version: 0
OS2_WeightWidthSlopeOnly: 0
OS2_UseTypoMetrics: 1
CreationTime: 1481039941
ModificationTime: 1481100045
OS2TypoAscent: 0
OS2TypoAOffset: 1
OS2TypoDescent: 0
OS2TypoDOffset: 1
OS2TypoLinegap: 184
OS2WinAscent: 0
OS2WinAOffset: 1
OS2WinDescent: 0
OS2WinDOffset: 1
HheadAscent: 0
HheadAOffset: 1
HheadDescent: 0
HheadDOffset: 1
OS2Vendor: 'PfEd'
Lookup: 4 0 0 "ccmp" { "ccmp-1"  } ['ccmp' ('DFLT' <'dflt' > 'latn' <'dflt' > ) ]
Lookup: 4 0 0 "ccmp-0" { "ccmp-0 subtable"  } ['ccmp' ('latn' <'dflt' > 'DFLT' <'dflt' > ) ]
Lookup: 4 0 0 "ccmp-1" { "ccmp-1 subtable"  } ['ccmp' ('latn' <'dflt' > 'DFLT' <'dflt' > ) ]
MarkAttachClasses: 1
DEI: 91125
Encoding: Custom
UnicodeInterp: none
NameList: AGL For New Fonts
DisplaySize: -48
AntiAlias: 1
FitToEm: 0
WinInfo: 0 14 12
BeginPrivate: 0
EndPrivate
BeginChars: 493 291

StartChar: B
Encoding: 66 66 0
Width: 1200
VWidth: 2251
GlyphClass: 2
Flags: HW
LayerCount: 2
Fore
SplineSet
1120 -337 m 1
 1104 -335.666992188 1083 -329.333007812 1057 -318 c 128
 1031 -306.666992188 1005.66699219 -290 981 -268 c 128
 956.333007812 -246 935.333007812 -218.666992188 918 -186 c 128
 900.666992188 -153.333007812 892.666992188 -113.666992188 894 -67 c 2
 894 911 l 1
 883.333007812 884.333007812 856.333007812 843 813 787 c 128
 769.666992188 731 718.333007812 669.333007812 659 602 c 128
 599.666992188 534.666992188 536.666992188 465.666992188 470 395 c 128
 403.333007812 324.333007812 342 260.333007812 286 203 c 1
 80 203 l 1
 188 297.666992188 286.666992188 389.666992188 376 479 c 128
 465.333007812 568.333007812 544.333007812 651.666992188 613 729 c 128
 681.666992188 806.333007812 739.666992188 877 787 941 c 128
 834.333007812 1005 869.333007812 1059 892 1103 c 1
 1098 1103 l 1
 1098 -79 l 2
 1098 -111 1098 -111 1098 -147 c 128
 1098 -171 1098.66699219 -194.666992188 1100 -218 c 128
 1101.33300781 -241.333007812 1103.33300781 -263.333007812 1106 -284 c 128
 1108.66699219 -304.666992188 1113.33300781 -322.333007812 1120 -337 c 1
EndSplineSet
EndChar

StartChar: b
Encoding: 98 98 1
Width: 1200
VWidth: 2251
GlyphClass: 2
Flags: HW
LayerCount: 2
Fore
SplineSet
1120 -337 m 1
 1104 -335.666992188 1083 -329.333007812 1057 -318 c 128
 1031 -306.666992188 1005.66699219 -290 981 -268 c 128
 956.333007812 -246 935.333007812 -218.666992188 918 -186 c 128
 900.666992188 -153.333007812 892.666992188 -113.666992188 894 -67 c 2
 894 911 l 1
 883.333007812 884.333007812 856.333007812 843 813 787 c 128
 769.666992188 731 718.333007812 669.333007812 659 602 c 128
 599.666992188 534.666992188 536.666992188 465.666992188 470 395 c 128
 403.333007812 324.333007812 342 260.333007812 286 203 c 1
 80 203 l 1
 188 297.666992188 286.666992188 389.666992188 376 479 c 128
 465.333007812 568.333007812 544.333007812 651.666992188 613 729 c 128
 681.666992188 806.333007812 739.666992188 877 787 941 c 128
 834.333007812 1005 869.333007812 1059 892 1103 c 1
 1098 1103 l 1
 1098 -79 l 2
 1098 -111 1098 -111 1098 -147 c 128
 1098 -171 1098.66699219 -194.666992188 1100 -218 c 128
 1101.33300781 -241.333007812 1103.33300781 -263.333007812 1106 -284 c 128
 1108.66699219 -304.666992188 1113.33300781 -322.333007812 1120 -337 c 1
EndSplineSet
EndChar

StartChar: C
Encoding: 67 67 2
Width: 1187
VWidth: 1977
GlyphClass: 2
Flags: HW
LayerCount: 2
Fore
SplineSet
1093.5 -71 m 1
 887.5 -71 l 1
 887.5 349 l 2
 886.166992188 491.666992188 858.5 594.333007812 804.5 657 c 128
 750.5 719.666992188 678.833007812 751 589.5 751 c 0
 534.833007812 751 488.833007812 739 451.5 715 c 128
 414.166992188 691 384.166992188 659.666992188 361.5 621 c 128
 338.833007812 582.333007812 322.166992188 538.333007812 311.5 489 c 128
 300.833007812 439.666992188 295.5 390.333007812 295.5 341 c 2
 295.5 -71 l 1
 89.5 -71 l 1
 89.5 873 l 1
 295.5 873 l 1
 295.5 747 l 1
 336.833007812 779 382.5 804.333007812 432.5 823 c 128
 482.5 841.666992188 537.5 851.666992188 597.5 853 c 0
 657.5 853 710.166992188 843.666992188 755.5 825 c 128
 800.833007812 806.333007812 844.833007812 780.333007812 887.5 747 c 1
 887.5 1115 l 2
 887.5 1165.66699219 897.166992188 1207 916.5 1239 c 128
 935.833007812 1271 958.833007812 1297 985.5 1317 c 128
 1012.16699219 1337 1039.5 1352 1067.5 1362 c 128
 1095.5 1372 1118.16699219 1379.66699219 1135.5 1385 c 1
 1131.5 1377 1127.16699219 1367.33300781 1122.5 1356 c 128
 1117.83300781 1344.66699219 1113.5 1328.66699219 1109.5 1308 c 128
 1105.5 1287.33300781 1101.83300781 1261.33300781 1098.5 1230 c 128
 1095.16699219 1198.66699219 1093.5 1160.33300781 1093.5 1115 c 2
 1093.5 -71 l 1
EndSplineSet
EndChar

StartChar: c
Encoding: 99 99 3
Width: 1187
VWidth: 1977
GlyphClass: 2
Flags: HW
LayerCount: 2
Fore
SplineSet
1093.5 -71 m 1
 887.5 -71 l 1
 887.5 349 l 2
 886.166992188 491.666992188 858.5 594.333007812 804.5 657 c 128
 750.5 719.666992188 678.833007812 751 589.5 751 c 0
 534.833007812 751 488.833007812 739 451.5 715 c 128
 414.166992188 691 384.166992188 659.666992188 361.5 621 c 128
 338.833007812 582.333007812 322.166992188 538.333007812 311.5 489 c 128
 300.833007812 439.666992188 295.5 390.333007812 295.5 341 c 2
 295.5 -71 l 1
 89.5 -71 l 1
 89.5 873 l 1
 295.5 873 l 1
 295.5 747 l 1
 336.833007812 779 382.5 804.333007812 432.5 823 c 128
 482.5 841.666992188 537.5 851.666992188 597.5 853 c 0
 657.5 853 710.166992188 843.666992188 755.5 825 c 128
 800.833007812 806.333007812 844.833007812 780.333007812 887.5 747 c 1
 887.5 1115 l 2
 887.5 1165.66699219 897.166992188 1207 916.5 1239 c 128
 935.833007812 1271 958.833007812 1297 985.5 1317 c 128
 1012.16699219 1337 1039.5 1352 1067.5 1362 c 128
 1095.5 1372 1118.16699219 1379.66699219 1135.5 1385 c 1
 1131.5 1377 1127.16699219 1367.33300781 1122.5 1356 c 128
 1117.83300781 1344.66699219 1113.5 1328.66699219 1109.5 1308 c 128
 1105.5 1287.33300781 1101.83300781 1261.33300781 1098.5 1230 c 128
 1095.16699219 1198.66699219 1093.5 1160.33300781 1093.5 1115 c 2
 1093.5 -71 l 1
EndSplineSet
EndChar

StartChar: D
Encoding: 68 68 4
Width: 1191
VWidth: 2240
GlyphClass: 2
Flags: HW
LayerCount: 2
Fore
SplineSet
1129.62207031 -347.5 m 1
 1118.95507812 -346.166992188 1101.95507812 -342.166992188 1078.62207031 -335.5 c 128
 1055.2890625 -328.833007812 1031.2890625 -317.166992188 1006.62207031 -300.5 c 128
 981.955078125 -283.833007812 959.622070312 -261.166992188 939.622070312 -232.5 c 128
 919.622070312 -203.833007812 908.2890625 -165.5 905.622070312 -117.5 c 2
 905.622070312 298.5 l 1
 862.955078125 265.166992188 815.955078125 236.833007812 764.622070312 213.5 c 128
 713.2890625 190.166992188 656.955078125 178.5 595.622070312 178.5 c 0
 492.955078125 178.5 405.955078125 198.166992188 334.622070312 237.5 c 128
 263.2890625 276.833007812 207.622070312 327.166992188 167.622070312 388.5 c 128
 127.622070312 449.833007812 102.622070312 517.833007812 92.6220703125 592.5 c 128
 82.6220703125 667.166992188 86.2890625 739.833007812 103.622070312 810.5 c 128
 120.955078125 881.166992188 151.955078125 945.833007812 196.622070312 1004.5 c 128
 241.2890625 1063.16699219 298.955078125 1106.5 369.622070312 1134.5 c 1
 349.622070312 1095.83300781 330.622070312 1037.16699219 312.622070312 958.5 c 128
 294.622070312 879.833007812 285.622070312 788.5 285.622070312 684.5 c 0
 285.622070312 620.5 289.622070312 562.833007812 297.622070312 511.5 c 128
 305.622070312 460.166992188 320.2890625 416.5 341.622070312 380.5 c 128
 362.955078125 344.5 392.622070312 317.166992188 430.622070312 298.5 c 128
 468.622070312 279.833007812 517.622070312 270.5 577.622070312 270.5 c 0
 633.622070312 270.5 682.2890625 283.5 723.622070312 309.5 c 128
 764.955078125 335.5 799.2890625 369.166992188 826.622070312 410.5 c 128
 853.955078125 451.833007812 873.955078125 498.5 886.622070312 550.5 c 128
 899.2890625 602.5 905.622070312 653.833007812 905.622070312 704.5 c 2
 905.622070312 1092.5 l 1
 1109.62207031 1092.5 l 1
 1109.62207031 -155.5 l 2
 1109.62207031 -190.166992188 1110.95507812 -225.166992188 1113.62207031 -260.5 c 128
 1116.2890625 -295.833007812 1121.62207031 -324.833007812 1129.62207031 -347.5 c 1
EndSplineSet
EndChar

StartChar: d
Encoding: 100 100 5
Width: 1191
VWidth: 2240
GlyphClass: 2
Flags: HW
LayerCount: 2
Fore
SplineSet
1129.62207031 -347.5 m 1
 1118.95507812 -346.166992188 1101.95507812 -342.166992188 1078.62207031 -335.5 c 128
 1055.2890625 -328.833007812 1031.2890625 -317.166992188 1006.62207031 -300.5 c 128
 981.955078125 -283.833007812 959.622070312 -261.166992188 939.622070312 -232.5 c 128
 919.622070312 -203.833007812 908.2890625 -165.5 905.622070312 -117.5 c 2
 905.622070312 298.5 l 1
 862.955078125 265.166992188 815.955078125 236.833007812 764.622070312 213.5 c 128
 713.2890625 190.166992188 656.955078125 178.5 595.622070312 178.5 c 0
 492.955078125 178.5 405.955078125 198.166992188 334.622070312 237.5 c 128
 263.2890625 276.833007812 207.622070312 327.166992188 167.622070312 388.5 c 128
 127.622070312 449.833007812 102.622070312 517.833007812 92.6220703125 592.5 c 128
 82.6220703125 667.166992188 86.2890625 739.833007812 103.622070312 810.5 c 128
 120.955078125 881.166992188 151.955078125 945.833007812 196.622070312 1004.5 c 128
 241.2890625 1063.16699219 298.955078125 1106.5 369.622070312 1134.5 c 1
 349.622070312 1095.83300781 330.622070312 1037.16699219 312.622070312 958.5 c 128
 294.622070312 879.833007812 285.622070312 788.5 285.622070312 684.5 c 0
 285.622070312 620.5 289.622070312 562.833007812 297.622070312 511.5 c 128
 305.622070312 460.166992188 320.2890625 416.5 341.622070312 380.5 c 128
 362.955078125 344.5 392.622070312 317.166992188 430.622070312 298.5 c 128
 468.622070312 279.833007812 517.622070312 270.5 577.622070312 270.5 c 0
 633.622070312 270.5 682.2890625 283.5 723.622070312 309.5 c 128
 764.955078125 335.5 799.2890625 369.166992188 826.622070312 410.5 c 128
 853.955078125 451.833007812 873.955078125 498.5 886.622070312 550.5 c 128
 899.2890625 602.5 905.622070312 653.833007812 905.622070312 704.5 c 2
 905.622070312 1092.5 l 1
 1109.62207031 1092.5 l 1
 1109.62207031 -155.5 l 2
 1109.62207031 -190.166992188 1110.95507812 -225.166992188 1113.62207031 -260.5 c 128
 1116.2890625 -295.833007812 1121.62207031 -324.833007812 1129.62207031 -347.5 c 1
EndSplineSet
EndChar

StartChar: F
Encoding: 70 70 6
Width: 1188
VWidth: 2111
GlyphClass: 2
Flags: HW
LayerCount: 2
Fore
SplineSet
690 983 m 1
 690 947 l 2
 690 865.666992188 682.333007812 782.666992188 667 698 c 128
 651.666992188 613.333007812 632.333007812 535.333007812 609 464 c 128
 585.666992188 392.666992188 560.333007812 333 533 285 c 128
 505.666992188 237 479.333007812 209 454 201 c 1
 603.333007812 201 722.666992188 204 812 210 c 128
 901.333007812 216 970 222.333007812 1018 229 c 0
 1074 237 1112.66699219 247 1134 259 c 1
 1072 63 l 1
 90 63 l 1
 90 207 l 1
 176.666992188 217.666992188 246.333007812 247.666992188 299 297 c 128
 351.666992188 346.333007812 392.333007812 407.666992188 421 481 c 128
 449.666992188 554.333007812 469 634.666992188 479 722 c 128
 489 809.333007812 494 896.333007812 494 983 c 1
 690 983 l 1
EndSplineSet
EndChar

StartChar: f
Encoding: 102 102 7
Width: 1188
VWidth: 2111
GlyphClass: 2
Flags: HW
LayerCount: 2
Fore
SplineSet
690 983 m 1
 690 947 l 2
 690 865.666992188 682.333007812 782.666992188 667 698 c 128
 651.666992188 613.333007812 632.333007812 535.333007812 609 464 c 128
 585.666992188 392.666992188 560.333007812 333 533 285 c 128
 505.666992188 237 479.333007812 209 454 201 c 1
 603.333007812 201 722.666992188 204 812 210 c 128
 901.333007812 216 970 222.333007812 1018 229 c 0
 1074 237 1112.66699219 247 1134 259 c 1
 1072 63 l 1
 90 63 l 1
 90 207 l 1
 176.666992188 217.666992188 246.333007812 247.666992188 299 297 c 128
 351.666992188 346.333007812 392.333007812 407.666992188 421 481 c 128
 449.666992188 554.333007812 469 634.666992188 479 722 c 128
 489 809.333007812 494 896.333007812 494 983 c 1
 690 983 l 1
EndSplineSet
EndChar

StartChar: J
Encoding: 74 74 8
Width: 1193
VWidth: 2241
GlyphClass: 2
Flags: HW
LayerCount: 2
Fore
SplineSet
1121 13 m 1
 1110.33300781 14.3330078125 1093 20 1069 30 c 128
 1045 40 1020 55.3330078125 994 76 c 128
 968 96.6669921875 945 123.333007812 925 156 c 128
 905 188.666992188 894.333007812 228.333007812 893 275 c 1
 810.333007812 209.666992188 710.333007812 176.333007812 593 175 c 0
 533 175 479.666992188 184.666992188 433 204 c 128
 386.333007812 223.333007812 341.666992188 249.666992188 299 283 c 1
 299 -307 l 1
 93 -307 l 1
 93 1093 l 1
 299 1093 l 1
 299 689 l 2
 299 615.666992188 306.333007812 553 321 501 c 128
 335.666992188 449 356.333007812 406.333007812 383 373 c 128
 409.666992188 339.666992188 441.333007812 315.333007812 478 300 c 128
 514.666992188 284.666992188 555.666992188 277 601 277 c 0
 654.333007812 277 699.666992188 289 737 313 c 128
 774.333007812 337 804.666992188 368.666992188 828 408 c 128
 851.333007812 447.333007812 868 491.333007812 878 540 c 128
 888 588.666992188 893 638.333007812 893 689 c 2
 893 1093 l 1
 1099 1093 l 1
 1099 287 l 2
 1099 267 1099.33300781 244.333007812 1100 219 c 128
 1100.66699219 193.666992188 1102 168 1104 142 c 128
 1106 116 1108.33300781 91.6669921875 1111 69 c 128
 1113.66699219 46.3330078125 1117 27.6669921875 1121 13 c 1
EndSplineSet
EndChar

StartChar: j
Encoding: 106 106 9
Width: 1193
VWidth: 2241
GlyphClass: 2
Flags: HW
LayerCount: 2
Fore
SplineSet
1121 13 m 1
 1110.33300781 14.3330078125 1093 20 1069 30 c 128
 1045 40 1020 55.3330078125 994 76 c 128
 968 96.6669921875 945 123.333007812 925 156 c 128
 905 188.666992188 894.333007812 228.333007812 893 275 c 1
 810.333007812 209.666992188 710.333007812 176.333007812 593 175 c 0
 533 175 479.666992188 184.666992188 433 204 c 128
 386.333007812 223.333007812 341.666992188 249.666992188 299 283 c 1
 299 -307 l 1
 93 -307 l 1
 93 1093 l 1
 299 1093 l 1
 299 689 l 2
 299 615.666992188 306.333007812 553 321 501 c 128
 335.666992188 449 356.333007812 406.333007812 383 373 c 128
 409.666992188 339.666992188 441.333007812 315.333007812 478 300 c 128
 514.666992188 284.666992188 555.666992188 277 601 277 c 0
 654.333007812 277 699.666992188 289 737 313 c 128
 774.333007812 337 804.666992188 368.666992188 828 408 c 128
 851.333007812 447.333007812 868 491.333007812 878 540 c 128
 888 588.666992188 893 638.333007812 893 689 c 2
 893 1093 l 1
 1099 1093 l 1
 1099 287 l 2
 1099 267 1099.33300781 244.333007812 1100 219 c 128
 1100.66699219 193.666992188 1102 168 1104 142 c 128
 1106 116 1108.33300781 91.6669921875 1111 69 c 128
 1113.66699219 46.3330078125 1117 27.6669921875 1121 13 c 1
EndSplineSet
EndChar

StartChar: K
Encoding: 75 75 10
Width: 1200
GlyphClass: 2
Flags: HW
LayerCount: 2
Fore
SplineSet
922 0 m 5,0,1
 880 96 880 96 859 198 c 132,-1,2
 838 300 838 300 835 393 c 132,-1,3
 832 486 832 486 843 564 c 132,-1,4
 854 642 854 642 874 694 c 5,5,6
 806 624 806 624 723 536 c 132,-1,7
 640 448 640 448 560 355 c 132,-1,8
 480 262 480 262 412 170 c 132,-1,9
 344 78 344 78 308 0 c 5,10,-1
 102 0 l 5,11,-1
 102 1400 l 5,12,-1
 308 1400 l 5,13,-1
 308 256 l 5,14,15
 394 372 394 372 485 468 c 132,-1,16
 576 564 576 564 658 644 c 132,-1,17
 740 724 740 724 809 787 c 132,-1,18
 878 850 878 850 920 900 c 5,19,-1
 1126 900 l 5,20,21
 1062 788 1062 788 1035 673 c 132,-1,22
 1008 558 1008 558 1008 450 c 4,23,24
 1008 378 1008 378 1024 294 c 132,-1,25
 1040 210 1040 210 1069 122 c 132,-1,26
 1098 34 1098 34 1138 -54 c 132,-1,27
 1178 -142 1178 -142 1226 -224 c 5,28,-1
 922 0 l 5,0,1
EndSplineSet
EndChar

StartChar: k
Encoding: 107 107 11
Width: 1168
VWidth: 2047
GlyphClass: 2
Flags: HW
LayerCount: 2
Fore
SplineSet
890 -1 m 1
 862 63 841 129 827 197 c 128
 813 265 805 330 803 392 c 128
 801 454 803.666992188 511 811 563 c 128
 818.333007812 615 828.666992188 658.333007812 842 693 c 1
 796.666992188 646.333007812 746.333007812 593.666992188 691 535 c 128
 635.666992188 476.333007812 581.333007812 416 528 354 c 128
 474.666992188 292 425.333007812 230.333007812 380 169 c 128
 334.666992188 107.666992188 300 51 276 -1 c 1
 70 -1 l 1
 70 1399 l 1
 276 1399 l 1
 276 255 l 1
 333.333007812 332.333007812 392.333007812 403 453 467 c 128
 513.666992188 531 571.333007812 589.666992188 626 643 c 128
 680.666992188 696.333007812 731 744 777 786 c 128
 823 828 860 865.666992188 888 899 c 1
 1094 899 l 1
 1051.33300781 824.333007812 1021 748.666992188 1003 672 c 128
 985 595.333007812 976 521 976 449 c 0
 976 401 981.333007812 349 992 293 c 128
 1002.66699219 237 1017.66699219 179.666992188 1037 121 c 128
 1056.33300781 62.3330078125 1079.33300781 3.6669921875 1106 -55 c 128
 1132.66699219 -113.666992188 1162 -170.333007812 1194 -225 c 1
 890 -1 l 1
EndSplineSet
EndChar

StartChar: L
Encoding: 76 76 12
Width: 1203
VWidth: 2116
GlyphClass: 2
Flags: HW
LayerCount: 2
Fore
SplineSet
311 518.5 m 0
 311 467.833007812 320.666992188 419.166992188 340 372.5 c 128
 359.333007812 325.833007812 385.666992188 285.166992188 419 250.5 c 128
 452.333007812 215.833007812 491.333007812 188.166992188 536 167.5 c 128
 580.666992188 146.833007812 627.666992188 136.5 677 136.5 c 0
 717 136.5 756.333007812 139.166992188 795 144.5 c 128
 833.666992188 149.833007812 871 159.5 907 173.5 c 128
 943 187.5 977.666992188 206.5 1011 230.5 c 128
 1044.33300781 254.5 1076.33300781 285.166992188 1107 322.5 c 1
 1109 142.5 l 1
 1085 126.5 1056.33300781 112.5 1023 100.5 c 128
 989.666992188 88.5 953.666992188 78.5 915 70.5 c 128
 876.333007812 62.5 836.666992188 56.8330078125 796 53.5 c 128
 755.333007812 50.1669921875 716.333007812 48.5 679 48.5 c 0
 608.333007812 48.5 537.666992188 57.1669921875 467 74.5 c 128
 396.333007812 91.8330078125 332.666992188 119.5 276 157.5 c 128
 219.333007812 195.5 173.333007812 244.166992188 138 303.5 c 128
 102.666992188 362.833007812 85 434.5 85 518.5 c 256
 85 602.5 102.666992188 674.166992188 138 733.5 c 128
 173.333007812 792.833007812 219.333007812 841.166992188 276 878.5 c 128
 332.666992188 915.833007812 396.333007812 943.166992188 467 960.5 c 128
 537.666992188 977.833007812 608.333007812 986.5 679 986.5 c 0
 716.333007812 986.5 755.333007812 984.833007812 796 981.5 c 128
 836.666992188 978.166992188 876.333007812 972.5 915 964.5 c 128
 953.666992188 956.5 989.666992188 946.5 1023 934.5 c 128
 1056.33300781 922.5 1085 908.5 1109 892.5 c 1
 1107 712.5 l 1
 1047 783.166992188 981 831.833007812 909 858.5 c 128
 837 885.166992188 759.666992188 898.5 677 898.5 c 0
 627.666992188 898.5 580.666992188 888.5 536 868.5 c 128
 491.333007812 848.5 452.333007812 821.166992188 419 786.5 c 128
 385.666992188 751.833007812 359.333007812 711.5 340 665.5 c 128
 320.666992188 619.5 311 570.5 311 518.5 c 0
EndSplineSet
EndChar

StartChar: l
Encoding: 108 108 13
Width: 1203
VWidth: 2116
GlyphClass: 2
Flags: HW
LayerCount: 2
Fore
SplineSet
311 518.5 m 0
 311 467.833007812 320.666992188 419.166992188 340 372.5 c 128
 359.333007812 325.833007812 385.666992188 285.166992188 419 250.5 c 128
 452.333007812 215.833007812 491.333007812 188.166992188 536 167.5 c 128
 580.666992188 146.833007812 627.666992188 136.5 677 136.5 c 0
 717 136.5 756.333007812 139.166992188 795 144.5 c 128
 833.666992188 149.833007812 871 159.5 907 173.5 c 128
 943 187.5 977.666992188 206.5 1011 230.5 c 128
 1044.33300781 254.5 1076.33300781 285.166992188 1107 322.5 c 1
 1109 142.5 l 1
 1085 126.5 1056.33300781 112.5 1023 100.5 c 128
 989.666992188 88.5 953.666992188 78.5 915 70.5 c 128
 876.333007812 62.5 836.666992188 56.8330078125 796 53.5 c 128
 755.333007812 50.1669921875 716.333007812 48.5 679 48.5 c 0
 608.333007812 48.5 537.666992188 57.1669921875 467 74.5 c 128
 396.333007812 91.8330078125 332.666992188 119.5 276 157.5 c 128
 219.333007812 195.5 173.333007812 244.166992188 138 303.5 c 128
 102.666992188 362.833007812 85 434.5 85 518.5 c 256
 85 602.5 102.666992188 674.166992188 138 733.5 c 128
 173.333007812 792.833007812 219.333007812 841.166992188 276 878.5 c 128
 332.666992188 915.833007812 396.333007812 943.166992188 467 960.5 c 128
 537.666992188 977.833007812 608.333007812 986.5 679 986.5 c 0
 716.333007812 986.5 755.333007812 984.833007812 796 981.5 c 128
 836.666992188 978.166992188 876.333007812 972.5 915 964.5 c 128
 953.666992188 956.5 989.666992188 946.5 1023 934.5 c 128
 1056.33300781 922.5 1085 908.5 1109 892.5 c 1
 1107 712.5 l 1
 1047 783.166992188 981 831.833007812 909 858.5 c 128
 837 885.166992188 759.666992188 898.5 677 898.5 c 0
 627.666992188 898.5 580.666992188 888.5 536 868.5 c 128
 491.333007812 848.5 452.333007812 821.166992188 419 786.5 c 128
 385.666992188 751.833007812 359.333007812 711.5 340 665.5 c 128
 320.666992188 619.5 311 570.5 311 518.5 c 0
EndSplineSet
EndChar

StartChar: M
Encoding: 77 77 14
Width: 1183
VWidth: 2111
GlyphClass: 2
Flags: HW
LayerCount: 2
Fore
SplineSet
83.5 177.5 m 1
 405.5 177.5 l 2
 481.5 177.5 549.166992188 187.166992188 608.5 206.5 c 128
 667.833007812 225.833007812 717.833007812 252.5 758.5 286.5 c 128
 799.166992188 320.5 830.166992188 360.833007812 851.5 407.5 c 128
 872.833007812 454.166992188 883.5 504.833007812 883.5 559.5 c 0
 883.5 592.833007812 876.166992188 629.166992188 861.5 668.5 c 128
 846.833007812 707.833007812 824.833007812 744.5 795.5 778.5 c 128
 766.166992188 812.5 729.166992188 840.833007812 684.5 863.5 c 128
 639.833007812 886.166992188 588.166992188 897.5 529.5 897.5 c 0
 466.833007812 897.5 409.833007812 890.5 358.5 876.5 c 128
 307.166992188 862.5 262.5 845.5 224.5 825.5 c 128
 186.5 805.5 155.5 785.166992188 131.5 764.5 c 128
 107.5 743.833007812 91.5 726.833007812 83.5 713.5 c 1
 83.5 893.5 l 1
 119.5 910.833007812 155.166992188 925.5 190.5 937.5 c 128
 225.833007812 949.5 263.166992188 958.5 302.5 964.5 c 128
 341.833007812 970.5 384.5 974.833007812 430.5 977.5 c 128
 476.5 980.166992188 527.5 981.5 583.5 981.5 c 0
 660.833007812 981.5 731.5 970.5 795.5 948.5 c 128
 859.5 926.5 914.5 897.5 960.5 861.5 c 128
 1006.5 825.5 1042.5 783.833007812 1068.5 736.5 c 128
 1094.5 689.166992188 1107.5 640.166992188 1107.5 589.5 c 0
 1107.5 553.5 1104.5 517.5 1098.5 481.5 c 128
 1092.5 445.5 1080.16699219 409.833007812 1061.5 374.5 c 128
 1042.83300781 339.166992188 1016.83300781 305.5 983.5 273.5 c 128
 950.166992188 241.5 906.833007812 211.5 853.5 183.5 c 1
 880.166992188 184.833007812 907.833007812 187.5 936.5 191.5 c 128
 965.166992188 195.5 992.833007812 200.833007812 1019.5 207.5 c 128
 1046.16699219 214.166992188 1070.83300781 221.166992188 1093.5 228.5 c 128
 1116.16699219 235.833007812 1134.83300781 242.833007812 1149.5 249.5 c 1
 1049.5 63.5 l 1
 83.5 63.5 l 1
 83.5 177.5 l 1
EndSplineSet
EndChar

StartChar: m
Encoding: 109 109 15
Width: 1183
VWidth: 2111
GlyphClass: 2
Flags: HW
LayerCount: 2
Fore
SplineSet
83.5 177.5 m 1
 405.5 177.5 l 2
 481.5 177.5 549.166992188 187.166992188 608.5 206.5 c 128
 667.833007812 225.833007812 717.833007812 252.5 758.5 286.5 c 128
 799.166992188 320.5 830.166992188 360.833007812 851.5 407.5 c 128
 872.833007812 454.166992188 883.5 504.833007812 883.5 559.5 c 0
 883.5 592.833007812 876.166992188 629.166992188 861.5 668.5 c 128
 846.833007812 707.833007812 824.833007812 744.5 795.5 778.5 c 128
 766.166992188 812.5 729.166992188 840.833007812 684.5 863.5 c 128
 639.833007812 886.166992188 588.166992188 897.5 529.5 897.5 c 0
 466.833007812 897.5 409.833007812 890.5 358.5 876.5 c 128
 307.166992188 862.5 262.5 845.5 224.5 825.5 c 128
 186.5 805.5 155.5 785.166992188 131.5 764.5 c 128
 107.5 743.833007812 91.5 726.833007812 83.5 713.5 c 1
 83.5 893.5 l 1
 119.5 910.833007812 155.166992188 925.5 190.5 937.5 c 128
 225.833007812 949.5 263.166992188 958.5 302.5 964.5 c 128
 341.833007812 970.5 384.5 974.833007812 430.5 977.5 c 128
 476.5 980.166992188 527.5 981.5 583.5 981.5 c 0
 660.833007812 981.5 731.5 970.5 795.5 948.5 c 128
 859.5 926.5 914.5 897.5 960.5 861.5 c 128
 1006.5 825.5 1042.5 783.833007812 1068.5 736.5 c 128
 1094.5 689.166992188 1107.5 640.166992188 1107.5 589.5 c 0
 1107.5 553.5 1104.5 517.5 1098.5 481.5 c 128
 1092.5 445.5 1080.16699219 409.833007812 1061.5 374.5 c 128
 1042.83300781 339.166992188 1016.83300781 305.5 983.5 273.5 c 128
 950.166992188 241.5 906.833007812 211.5 853.5 183.5 c 1
 880.166992188 184.833007812 907.833007812 187.5 936.5 191.5 c 128
 965.166992188 195.5 992.833007812 200.833007812 1019.5 207.5 c 128
 1046.16699219 214.166992188 1070.83300781 221.166992188 1093.5 228.5 c 128
 1116.16699219 235.833007812 1134.83300781 242.833007812 1149.5 249.5 c 1
 1049.5 63.5 l 1
 83.5 63.5 l 1
 83.5 177.5 l 1
EndSplineSet
EndChar

StartChar: N
Encoding: 78 78 16
Width: 1181
VWidth: 2121
GlyphClass: 2
Flags: HW
LayerCount: 2
Fore
SplineSet
1081 859 m 1
 725 859 l 2
 653 859 589 848.666992188 533 828 c 128
 477 807.333007812 430.333007812 779.666992188 393 745 c 128
 355.666992188 710.333007812 327.333007812 670 308 624 c 128
 288.666992188 578 279 530.333007812 279 481 c 0
 279 437 288 394.666992188 306 354 c 128
 324 313.333007812 349.666992188 277.333007812 383 246 c 128
 416.333007812 214.666992188 455.666992188 189.666992188 501 171 c 128
 546.333007812 152.333007812 596.333007812 143 651 143 c 0
 696.333007812 143 735 147 767 155 c 128
 799 163 826 173 848 185 c 128
 870 197 888.333007812 209.333007812 903 222 c 128
 917.666992188 234.666992188 931 245 943 253 c 0
 953.666992188 261 964.333007812 266 975 268 c 128
 985.666992188 270 999.333007812 271.333007812 1016 272 c 128
 1032.66699219 272.666992188 1053.66699219 273.666992188 1079 275 c 128
 1104.33300781 276.333007812 1138.33300781 280.333007812 1181 287 c 1
 1145 241.666992188 1108 204 1070 174 c 128
 1032 144 990.333007812 120 945 102 c 128
 899.666992188 84 849 71.3330078125 793 64 c 128
 737 56.6669921875 673 53 601 53 c 0
 513 53 435 65.6669921875 367 91 c 128
 299 116.333007812 242 149 196 189 c 128
 150 229 115.333007812 273.333007812 92 322 c 128
 68.6669921875 370.666992188 57 419 57 467 c 0
 57 519 66 567 84 611 c 128
 102 655 124 693.666992188 150 727 c 128
 176 760.333007812 203.666992188 787.666992188 233 809 c 128
 262.333007812 830.333007812 288.333007812 845 311 853 c 1
 240.333007812 850.333007812 186 842.666992188 148 830 c 128
 110 817.333007812 89.6669921875 809.666992188 87 807 c 2
 87 973 l 1
 1081 973 l 1
 1081 859 l 1
EndSplineSet
EndChar

StartChar: n
Encoding: 110 110 17
Width: 1181
VWidth: 2121
GlyphClass: 2
Flags: HW
LayerCount: 2
Fore
SplineSet
1081 859 m 1
 725 859 l 2
 653 859 589 848.666992188 533 828 c 128
 477 807.333007812 430.333007812 779.666992188 393 745 c 128
 355.666992188 710.333007812 327.333007812 670 308 624 c 128
 288.666992188 578 279 530.333007812 279 481 c 0
 279 437 288 394.666992188 306 354 c 128
 324 313.333007812 349.666992188 277.333007812 383 246 c 128
 416.333007812 214.666992188 455.666992188 189.666992188 501 171 c 128
 546.333007812 152.333007812 596.333007812 143 651 143 c 0
 696.333007812 143 735 147 767 155 c 128
 799 163 826 173 848 185 c 128
 870 197 888.333007812 209.333007812 903 222 c 128
 917.666992188 234.666992188 931 245 943 253 c 0
 953.666992188 261 964.333007812 266 975 268 c 128
 985.666992188 270 999.333007812 271.333007812 1016 272 c 128
 1032.66699219 272.666992188 1053.66699219 273.666992188 1079 275 c 128
 1104.33300781 276.333007812 1138.33300781 280.333007812 1181 287 c 1
 1145 241.666992188 1108 204 1070 174 c 128
 1032 144 990.333007812 120 945 102 c 128
 899.666992188 84 849 71.3330078125 793 64 c 128
 737 56.6669921875 673 53 601 53 c 0
 513 53 435 65.6669921875 367 91 c 128
 299 116.333007812 242 149 196 189 c 128
 150 229 115.333007812 273.333007812 92 322 c 128
 68.6669921875 370.666992188 57 419 57 467 c 0
 57 519 66 567 84 611 c 128
 102 655 124 693.666992188 150 727 c 128
 176 760.333007812 203.666992188 787.666992188 233 809 c 128
 262.333007812 830.333007812 288.333007812 845 311 853 c 1
 240.333007812 850.333007812 186 842.666992188 148 830 c 128
 110 817.333007812 89.6669921875 809.666992188 87 807 c 2
 87 973 l 1
 1081 973 l 1
 1081 859 l 1
EndSplineSet
EndChar

StartChar: P
Encoding: 80 80 18
Width: 1193
VWidth: 1991
GlyphClass: 2
Flags: HW
LayerCount: 2
Fore
SplineSet
1119 843 m 1
 1091 809.666992188 1055.66699219 768.333007812 1013 719 c 128
 970.333007812 669.666992188 924 616.666992188 874 560 c 128
 824 503.333007812 771.666992188 445 717 385 c 128
 662.333007812 325 609.666992188 267.333007812 559 212 c 128
 508.333007812 156.666992188 460.666992188 105.666992188 416 59 c 128
 371.333007812 12.3330078125 333.666992188 -26.3330078125 303 -57 c 1
 95 -57 l 1
 95 1343 l 1
 301 1343 l 1
 301 143 l 1
 313 151 333 165.333007812 361 186 c 128
 389 206.666992188 421 232.666992188 457 264 c 128
 493 295.333007812 532.333007812 331.666992188 575 373 c 128
 617.666992188 414.333007812 659.666992188 459.666992188 701 509 c 128
 742.333007812 558.333007812 781.666992188 611 819 667 c 128
 856.333007812 723 888.333007812 781.666992188 915 843 c 1
 1119 843 l 1
 1119 843 l 1
EndSplineSet
EndChar

StartChar: p
Encoding: 112 112 19
Width: 1193
VWidth: 1991
GlyphClass: 2
Flags: HW
LayerCount: 2
Fore
SplineSet
1119 843 m 1
 1091 809.666992188 1055.66699219 768.333007812 1013 719 c 128
 970.333007812 669.666992188 924 616.666992188 874 560 c 128
 824 503.333007812 771.666992188 445 717 385 c 128
 662.333007812 325 609.666992188 267.333007812 559 212 c 128
 508.333007812 156.666992188 460.666992188 105.666992188 416 59 c 128
 371.333007812 12.3330078125 333.666992188 -26.3330078125 303 -57 c 1
 95 -57 l 1
 95 1343 l 1
 301 1343 l 1
 301 143 l 1
 313 151 333 165.333007812 361 186 c 128
 389 206.666992188 421 232.666992188 457 264 c 128
 493 295.333007812 532.333007812 331.666992188 575 373 c 128
 617.666992188 414.333007812 659.666992188 459.666992188 701 509 c 128
 742.333007812 558.333007812 781.666992188 611 819 667 c 128
 856.333007812 723 888.333007812 781.666992188 915 843 c 1
 1119 843 l 1
 1119 843 l 1
EndSplineSet
EndChar

StartChar: R
Encoding: 82 82 20
Width: 1193
VWidth: 2116
GlyphClass: 2
Flags: HW
LayerCount: 2
Fore
SplineSet
893 518.5 m 0
 893 570.5 883.333007812 619.5 864 665.5 c 128
 844.666992188 711.5 818.333007812 751.833007812 785 786.5 c 128
 751.666992188 821.166992188 712.666992188 848.5 668 868.5 c 128
 623.333007812 888.5 576.333007812 898.5 527 898.5 c 0
 444.333007812 898.5 367 885.166992188 295 858.5 c 128
 223 831.833007812 157 783.166992188 97 712.5 c 1
 95 892.5 l 1
 119 908.5 147.666992188 922.5 181 934.5 c 128
 214.333007812 946.5 250.333007812 956.5 289 964.5 c 128
 327.666992188 972.5 367 978.166992188 407 981.5 c 128
 447 984.833007812 486.333007812 986.5 525 986.5 c 0
 595.666992188 986.5 666.333007812 977.833007812 737 960.5 c 128
 807.666992188 943.166992188 871.333007812 915.833007812 928 878.5 c 128
 984.666992188 841.166992188 1030.66699219 792.833007812 1066 733.5 c 128
 1101.33300781 674.166992188 1119 602.5 1119 518.5 c 256
 1119 434.5 1101.33300781 362.833007812 1066 303.5 c 128
 1030.66699219 244.166992188 984.666992188 195.5 928 157.5 c 128
 871.333007812 119.5 807.666992188 91.8330078125 737 74.5 c 128
 666.333007812 57.1669921875 595.666992188 48.5 525 48.5 c 0
 486.333007812 48.5 447 50.1669921875 407 53.5 c 128
 367 56.8330078125 327.666992188 62.5 289 70.5 c 128
 250.333007812 78.5 214.333007812 88.5 181 100.5 c 128
 147.666992188 112.5 119 126.5 95 142.5 c 1
 97 322.5 l 1
 127.666992188 285.166992188 159.666992188 254.5 193 230.5 c 128
 226.333007812 206.5 261 187.5 297 173.5 c 128
 333 159.5 370.333007812 149.833007812 409 144.5 c 128
 447.666992188 139.166992188 487 136.5 527 136.5 c 0
 576.333007812 136.5 623.333007812 146.833007812 668 167.5 c 128
 712.666992188 188.166992188 751.666992188 215.833007812 785 250.5 c 128
 818.333007812 285.166992188 844.666992188 325.833007812 864 372.5 c 128
 883.333007812 419.166992188 893 467.833007812 893 518.5 c 0
EndSplineSet
EndChar

StartChar: r
Encoding: 114 114 21
Width: 1193
VWidth: 2116
GlyphClass: 2
Flags: HW
LayerCount: 2
Fore
SplineSet
893 518.5 m 0
 893 570.5 883.333007812 619.5 864 665.5 c 128
 844.666992188 711.5 818.333007812 751.833007812 785 786.5 c 128
 751.666992188 821.166992188 712.666992188 848.5 668 868.5 c 128
 623.333007812 888.5 576.333007812 898.5 527 898.5 c 0
 444.333007812 898.5 367 885.166992188 295 858.5 c 128
 223 831.833007812 157 783.166992188 97 712.5 c 1
 95 892.5 l 1
 119 908.5 147.666992188 922.5 181 934.5 c 128
 214.333007812 946.5 250.333007812 956.5 289 964.5 c 128
 327.666992188 972.5 367 978.166992188 407 981.5 c 128
 447 984.833007812 486.333007812 986.5 525 986.5 c 0
 595.666992188 986.5 666.333007812 977.833007812 737 960.5 c 128
 807.666992188 943.166992188 871.333007812 915.833007812 928 878.5 c 128
 984.666992188 841.166992188 1030.66699219 792.833007812 1066 733.5 c 128
 1101.33300781 674.166992188 1119 602.5 1119 518.5 c 256
 1119 434.5 1101.33300781 362.833007812 1066 303.5 c 128
 1030.66699219 244.166992188 984.666992188 195.5 928 157.5 c 128
 871.333007812 119.5 807.666992188 91.8330078125 737 74.5 c 128
 666.333007812 57.1669921875 595.666992188 48.5 525 48.5 c 0
 486.333007812 48.5 447 50.1669921875 407 53.5 c 128
 367 56.8330078125 327.666992188 62.5 289 70.5 c 128
 250.333007812 78.5 214.333007812 88.5 181 100.5 c 128
 147.666992188 112.5 119 126.5 95 142.5 c 1
 97 322.5 l 1
 127.666992188 285.166992188 159.666992188 254.5 193 230.5 c 128
 226.333007812 206.5 261 187.5 297 173.5 c 128
 333 159.5 370.333007812 149.833007812 409 144.5 c 128
 447.666992188 139.166992188 487 136.5 527 136.5 c 0
 576.333007812 136.5 623.333007812 146.833007812 668 167.5 c 128
 712.666992188 188.166992188 751.666992188 215.833007812 785 250.5 c 128
 818.333007812 285.166992188 844.666992188 325.833007812 864 372.5 c 128
 883.333007812 419.166992188 893 467.833007812 893 518.5 c 0
EndSplineSet
EndChar

StartChar: S
Encoding: 83 83 22
Width: 1192
VWidth: 1979
GlyphClass: 2
Flags: HW
LayerCount: 2
Fore
SplineSet
1092.5 505 m 2
 1092.5 431.666992188 1083.5 359.333007812 1065.5 288 c 128
 1047.5 216.666992188 1018.83300781 153 979.5 97 c 128
 940.166992188 41 889.833007812 -4 828.5 -38 c 128
 767.166992188 -72 693.166992188 -89 606.5 -89 c 0
 535.833007812 -89 468.5 -77.6669921875 404.5 -55 c 128
 340.5 -32.3330078125 283.833007812 -0.3330078125 234.5 41 c 128
 185.166992188 82.3330078125 146.166992188 132 117.5 190 c 128
 88.8330078125 248 74.5 312.333007812 74.5 383 c 0
 74.5 459 85.8330078125 526.333007812 108.5 585 c 128
 131.166992188 643.666992188 162.5 693 202.5 733 c 128
 242.5 773 290.166992188 803.333007812 345.5 824 c 128
 400.833007812 844.666992188 461.833007812 855 528.5 855 c 0
 596.5 855 651.833007812 844.333007812 694.5 823 c 128
 737.166992188 801.666992188 768.166992188 773.333007812 787.5 738 c 128
 806.833007812 702.666992188 814.5 662.666992188 810.5 618 c 128
 806.5 573.333007812 790.5 527.666992188 762.5 481 c 1
 564.5 527 l 1
 580.5 540.333007812 594.5 561.666992188 606.5 591 c 128
 618.5 620.333007812 624.833007812 650.333007812 625.5 681 c 128
 626.166992188 711.666992188 619.5 738.666992188 605.5 762 c 128
 591.5 785.333007812 567.166992188 797 532.5 797 c 0
 499.166992188 797 468.166992188 787.333007812 439.5 768 c 128
 410.833007812 748.666992188 385.833007812 722.333007812 364.5 689 c 128
 343.166992188 655.666992188 326.5 616.333007812 314.5 571 c 128
 302.5 525.666992188 296.5 476.333007812 296.5 423 c 0
 296.5 363 304.5 307 320.5 255 c 128
 336.5 203 359.166992188 157.666992188 388.5 119 c 128
 417.833007812 80.3330078125 451.833007812 49.6669921875 490.5 27 c 128
 529.166992188 4.3330078125 571.833007812 -7 618.5 -7 c 0
 659.833007812 -4.3330078125 697.166992188 10.3330078125 730.5 37 c 128
 763.833007812 63.6669921875 792.5 98 816.5 140 c 128
 840.5 182 859.166992188 229.333007812 872.5 282 c 128
 885.833007812 334.666992188 892.5 388.333007812 892.5 443 c 2
 892.5 1129 l 2
 892.5 1179.66699219 902.166992188 1221 921.5 1253 c 128
 940.833007812 1285 963.833007812 1311 990.5 1331 c 128
 1017.16699219 1351 1044.5 1366 1072.5 1376 c 128
 1100.5 1386 1123.16699219 1393.66699219 1140.5 1399 c 1
 1133.83300781 1384.33300781 1124.16699219 1356.33300781 1111.5 1315 c 128
 1098.83300781 1273.66699219 1092.5 1211.66699219 1092.5 1129 c 2
 1092.5 505 l 2
EndSplineSet
EndChar

StartChar: s
Encoding: 115 115 23
Width: 1192
VWidth: 1979
GlyphClass: 2
Flags: HW
LayerCount: 2
Fore
SplineSet
1092.5 505 m 2
 1092.5 431.666992188 1083.5 359.333007812 1065.5 288 c 128
 1047.5 216.666992188 1018.83300781 153 979.5 97 c 128
 940.166992188 41 889.833007812 -4 828.5 -38 c 128
 767.166992188 -72 693.166992188 -89 606.5 -89 c 0
 535.833007812 -89 468.5 -77.6669921875 404.5 -55 c 128
 340.5 -32.3330078125 283.833007812 -0.3330078125 234.5 41 c 128
 185.166992188 82.3330078125 146.166992188 132 117.5 190 c 128
 88.8330078125 248 74.5 312.333007812 74.5 383 c 0
 74.5 459 85.8330078125 526.333007812 108.5 585 c 128
 131.166992188 643.666992188 162.5 693 202.5 733 c 128
 242.5 773 290.166992188 803.333007812 345.5 824 c 128
 400.833007812 844.666992188 461.833007812 855 528.5 855 c 0
 596.5 855 651.833007812 844.333007812 694.5 823 c 128
 737.166992188 801.666992188 768.166992188 773.333007812 787.5 738 c 128
 806.833007812 702.666992188 814.5 662.666992188 810.5 618 c 128
 806.5 573.333007812 790.5 527.666992188 762.5 481 c 1
 564.5 527 l 1
 580.5 540.333007812 594.5 561.666992188 606.5 591 c 128
 618.5 620.333007812 624.833007812 650.333007812 625.5 681 c 128
 626.166992188 711.666992188 619.5 738.666992188 605.5 762 c 128
 591.5 785.333007812 567.166992188 797 532.5 797 c 0
 499.166992188 797 468.166992188 787.333007812 439.5 768 c 128
 410.833007812 748.666992188 385.833007812 722.333007812 364.5 689 c 128
 343.166992188 655.666992188 326.5 616.333007812 314.5 571 c 128
 302.5 525.666992188 296.5 476.333007812 296.5 423 c 0
 296.5 363 304.5 307 320.5 255 c 128
 336.5 203 359.166992188 157.666992188 388.5 119 c 128
 417.833007812 80.3330078125 451.833007812 49.6669921875 490.5 27 c 128
 529.166992188 4.3330078125 571.833007812 -7 618.5 -7 c 0
 659.833007812 -4.3330078125 697.166992188 10.3330078125 730.5 37 c 128
 763.833007812 63.6669921875 792.5 98 816.5 140 c 128
 840.5 182 859.166992188 229.333007812 872.5 282 c 128
 885.833007812 334.666992188 892.5 388.333007812 892.5 443 c 2
 892.5 1129 l 2
 892.5 1179.66699219 902.166992188 1221 921.5 1253 c 128
 940.833007812 1285 963.833007812 1311 990.5 1331 c 128
 1017.16699219 1351 1044.5 1366 1072.5 1376 c 128
 1100.5 1386 1123.16699219 1393.66699219 1140.5 1399 c 1
 1133.83300781 1384.33300781 1124.16699219 1356.33300781 1111.5 1315 c 128
 1098.83300781 1273.66699219 1092.5 1211.66699219 1092.5 1129 c 2
 1092.5 505 l 2
EndSplineSet
EndChar

StartChar: T
Encoding: 84 84 24
Width: 1192
VWidth: 2086
GlyphClass: 2
Flags: HW
LayerCount: 2
Fore
SplineSet
300 812 m 1
 337.333007812 848 383 878 437 902 c 128
 491 926 548 938 608 938 c 0
 700 938 778.666992188 921 844 887 c 128
 909.333007812 853 962.666992188 808.666992188 1004 754 c 128
 1045.33300781 699.333007812 1075.33300781 637.666992188 1094 569 c 128
 1112.66699219 500.333007812 1122 430.666992188 1122 360 c 0
 1122 281.333007812 1114.33300781 205 1099 131 c 128
 1083.66699219 57 1060.33300781 -11.3330078125 1029 -74 c 128
 997.666992188 -136.666992188 958 -191.333007812 910 -238 c 128
 862 -284.666992188 804.666992188 -319.333007812 738 -342 c 1
 779.333007812 -308.666992188 812 -265.666992188 836 -213 c 128
 860 -160.333007812 878.333007812 -103 891 -41 c 128
 903.666992188 21 912 85.6669921875 916 153 c 128
 920 220.333007812 922 286 922 350 c 0
 922 408.666992188 916 467 904 525 c 128
 892 583 873.333007812 635 848 681 c 128
 822.666992188 727 790 764.333007812 750 793 c 128
 710 821.666992188 662 836 606 836 c 256
 550 836 502.666992188 823 464 797 c 128
 425.333007812 771 393.666992188 737.666992188 369 697 c 128
 344.333007812 656.333007812 326.666992188 610.333007812 316 559 c 128
 305.333007812 507.666992188 300 456.666992188 300 406 c 2
 300 38 l 1
 94 38 l 1
 94 1438 l 1
 300 1438 l 1
 300 812 l 1
EndSplineSet
EndChar

StartChar: t
Encoding: 116 116 25
Width: 1192
VWidth: 2086
GlyphClass: 2
Flags: HW
LayerCount: 2
Fore
SplineSet
300 812 m 1
 337.333007812 848 383 878 437 902 c 128
 491 926 548 938 608 938 c 0
 700 938 778.666992188 921 844 887 c 128
 909.333007812 853 962.666992188 808.666992188 1004 754 c 128
 1045.33300781 699.333007812 1075.33300781 637.666992188 1094 569 c 128
 1112.66699219 500.333007812 1122 430.666992188 1122 360 c 0
 1122 281.333007812 1114.33300781 205 1099 131 c 128
 1083.66699219 57 1060.33300781 -11.3330078125 1029 -74 c 128
 997.666992188 -136.666992188 958 -191.333007812 910 -238 c 128
 862 -284.666992188 804.666992188 -319.333007812 738 -342 c 1
 779.333007812 -308.666992188 812 -265.666992188 836 -213 c 128
 860 -160.333007812 878.333007812 -103 891 -41 c 128
 903.666992188 21 912 85.6669921875 916 153 c 128
 920 220.333007812 922 286 922 350 c 0
 922 408.666992188 916 467 904 525 c 128
 892 583 873.333007812 635 848 681 c 128
 822.666992188 727 790 764.333007812 750 793 c 128
 710 821.666992188 662 836 606 836 c 256
 550 836 502.666992188 823 464 797 c 128
 425.333007812 771 393.666992188 737.666992188 369 697 c 128
 344.333007812 656.333007812 326.666992188 610.333007812 316 559 c 128
 305.333007812 507.666992188 300 456.666992188 300 406 c 2
 300 38 l 1
 94 38 l 1
 94 1438 l 1
 300 1438 l 1
 300 812 l 1
EndSplineSet
EndChar

StartChar: V
Encoding: 86 86 26
Width: 1208
VWidth: 2142
GlyphClass: 2
Flags: HW
LayerCount: 2
Fore
SplineSet
720.5 200.5 m 0
 720.5 177.833007812 716.166992188 160.166992188 707.5 147.5 c 128
 698.833007812 134.833007812 685.833007812 121.833007812 668.5 108.5 c 128
 651.166992188 95.1669921875 630.5 79.8330078125 606.5 62.5 c 128
 582.5 45.1669921875 554.5 20.5 522.5 -11.5 c 1
 522.5 -4.8330078125 522.166992188 7.5 521.5 25.5 c 128
 520.833007812 43.5 520.5 64.5 520.5 88.5 c 128
 520.5 124.5 520.5 124.5 520.5 162.5 c 128
 520.5 200.5 520.5 200.5 520.5 232.5 c 0
 520.5 320.5 527.833007812 399.833007812 542.5 470.5 c 128
 557.166992188 541.166992188 576.5 602.5 600.5 654.5 c 128
 624.5 706.5 651.833007812 749.5 682.5 783.5 c 128
 713.166992188 817.5 744.5 841.833007812 776.5 856.5 c 1
 654.5 856.5 l 2
 529.166992188 856.5 428.833007812 852.833007812 353.5 845.5 c 128
 278.166992188 838.166992188 219.833007812 830.5 178.5 822.5 c 0
 130.5 813.166992188 95.8330078125 802.5 74.5 790.5 c 1
 136.5 994.5 l 1
 1108.5 994.5 l 1
 1108.5 852.5 l 1
 999.166992188 843.166992188 917.833007812 822.166992188 864.5 789.5 c 128
 811.166992188 756.833007812 774.166992188 712.833007812 753.5 657.5 c 128
 732.833007812 602.166992188 722.5 536.5 722.5 460.5 c 128
 722.5 384.5 721.833007812 297.833007812 720.5 200.5 c 0
EndSplineSet
EndChar

StartChar: v
Encoding: 118 118 27
Width: 1208
VWidth: 2142
GlyphClass: 2
Flags: HW
LayerCount: 2
Fore
SplineSet
720.5 200.5 m 0
 720.5 177.833007812 716.166992188 160.166992188 707.5 147.5 c 128
 698.833007812 134.833007812 685.833007812 121.833007812 668.5 108.5 c 128
 651.166992188 95.1669921875 630.5 79.8330078125 606.5 62.5 c 128
 582.5 45.1669921875 554.5 20.5 522.5 -11.5 c 1
 522.5 -4.8330078125 522.166992188 7.5 521.5 25.5 c 128
 520.833007812 43.5 520.5 64.5 520.5 88.5 c 128
 520.5 124.5 520.5 124.5 520.5 162.5 c 128
 520.5 200.5 520.5 200.5 520.5 232.5 c 0
 520.5 320.5 527.833007812 399.833007812 542.5 470.5 c 128
 557.166992188 541.166992188 576.5 602.5 600.5 654.5 c 128
 624.5 706.5 651.833007812 749.5 682.5 783.5 c 128
 713.166992188 817.5 744.5 841.833007812 776.5 856.5 c 1
 654.5 856.5 l 2
 529.166992188 856.5 428.833007812 852.833007812 353.5 845.5 c 128
 278.166992188 838.166992188 219.833007812 830.5 178.5 822.5 c 0
 130.5 813.166992188 95.8330078125 802.5 74.5 790.5 c 1
 136.5 994.5 l 1
 1108.5 994.5 l 1
 1108.5 852.5 l 1
 999.166992188 843.166992188 917.833007812 822.166992188 864.5 789.5 c 128
 811.166992188 756.833007812 774.166992188 712.833007812 753.5 657.5 c 128
 732.833007812 602.166992188 722.5 536.5 722.5 460.5 c 128
 722.5 384.5 721.833007812 297.833007812 720.5 200.5 c 0
EndSplineSet
EndChar

StartChar: Z
Encoding: 90 90 28
Width: 1199
VWidth: 2237
GlyphClass: 2
Flags: HW
LayerCount: 2
Fore
SplineSet
79.5 511 m 2
 79.5 589.666992188 89.5 664.666992188 109.5 736 c 128
 129.5 807.333007812 160.5 870.333007812 202.5 925 c 128
 244.5 979.666992188 297.5 1023.33300781 361.5 1056 c 128
 425.5 1088.66699219 500.833007812 1105 587.5 1105 c 0
 663.5 1105 733.833007812 1093.66699219 798.5 1071 c 128
 863.166992188 1048.33300781 919.5 1016.33300781 967.5 975 c 128
 1015.5 933.666992188 1053.16699219 884 1080.5 826 c 128
 1107.83300781 768 1121.5 703.666992188 1121.5 633 c 0
 1121.5 481 1082.5 364.333007812 1004.5 283 c 128
 926.5 201.666992188 820.833007812 161 687.5 161 c 0
 660.833007812 161 630.5 164.333007812 596.5 171 c 128
 562.5 177.666992188 530.5 189 500.5 205 c 128
 470.5 221 445.5 242.333007812 425.5 269 c 128
 405.5 295.666992188 395.5 329.666992188 395.5 371 c 0
 395.5 405.666992188 404.5 435 422.5 459 c 128
 440.5 483 462.5 502.666992188 488.5 518 c 128
 514.5 533.333007812 542.833007812 544.666992188 573.5 552 c 128
 604.166992188 559.333007812 632.833007812 564.333007812 659.5 567 c 1
 628.833007812 544.333007812 605.166992188 513.666992188 588.5 475 c 128
 571.833007812 436.333007812 563.5 398 563.5 360 c 128
 563.5 322 572.833007812 289 591.5 261 c 128
 610.166992188 233 640.833007812 219 683.5 219 c 0
 716.833007812 219 746.833007812 228.666992188 773.5 248 c 128
 800.166992188 267.333007812 822.833007812 293.666992188 841.5 327 c 128
 860.166992188 360.333007812 874.5 399.666992188 884.5 445 c 128
 894.5 490.333007812 899.5 539.666992188 899.5 593 c 0
 899.5 653 892.833007812 709 879.5 761 c 128
 866.166992188 813 846.166992188 858.333007812 819.5 897 c 128
 792.833007812 935.666992188 759.166992188 966.333007812 718.5 989 c 128
 677.833007812 1011.66699219 630.166992188 1023 575.5 1023 c 0
 532.833007812 1023 493.5 1011.66699219 457.5 989 c 128
 421.5 966.333007812 390.833007812 935 365.5 895 c 128
 340.166992188 855 320.5 807.666992188 306.5 753 c 128
 292.5 698.333007812 285.5 638.333007812 285.5 573 c 2
 285.5 -311 l 1
 79.5 -311 l 1
 79.5 511 l 2
EndSplineSet
EndChar

StartChar: z
Encoding: 122 122 29
Width: 1199
VWidth: 2237
GlyphClass: 2
Flags: HW
LayerCount: 2
Fore
SplineSet
79.5 511 m 2
 79.5 589.666992188 89.5 664.666992188 109.5 736 c 128
 129.5 807.333007812 160.5 870.333007812 202.5 925 c 128
 244.5 979.666992188 297.5 1023.33300781 361.5 1056 c 128
 425.5 1088.66699219 500.833007812 1105 587.5 1105 c 0
 663.5 1105 733.833007812 1093.66699219 798.5 1071 c 128
 863.166992188 1048.33300781 919.5 1016.33300781 967.5 975 c 128
 1015.5 933.666992188 1053.16699219 884 1080.5 826 c 128
 1107.83300781 768 1121.5 703.666992188 1121.5 633 c 0
 1121.5 481 1082.5 364.333007812 1004.5 283 c 128
 926.5 201.666992188 820.833007812 161 687.5 161 c 0
 660.833007812 161 630.5 164.333007812 596.5 171 c 128
 562.5 177.666992188 530.5 189 500.5 205 c 128
 470.5 221 445.5 242.333007812 425.5 269 c 128
 405.5 295.666992188 395.5 329.666992188 395.5 371 c 0
 395.5 405.666992188 404.5 435 422.5 459 c 128
 440.5 483 462.5 502.666992188 488.5 518 c 128
 514.5 533.333007812 542.833007812 544.666992188 573.5 552 c 128
 604.166992188 559.333007812 632.833007812 564.333007812 659.5 567 c 1
 628.833007812 544.333007812 605.166992188 513.666992188 588.5 475 c 128
 571.833007812 436.333007812 563.5 398 563.5 360 c 128
 563.5 322 572.833007812 289 591.5 261 c 128
 610.166992188 233 640.833007812 219 683.5 219 c 0
 716.833007812 219 746.833007812 228.666992188 773.5 248 c 128
 800.166992188 267.333007812 822.833007812 293.666992188 841.5 327 c 128
 860.166992188 360.333007812 874.5 399.666992188 884.5 445 c 128
 894.5 490.333007812 899.5 539.666992188 899.5 593 c 0
 899.5 653 892.833007812 709 879.5 761 c 128
 866.166992188 813 846.166992188 858.333007812 819.5 897 c 128
 792.833007812 935.666992188 759.166992188 966.333007812 718.5 989 c 128
 677.833007812 1011.66699219 630.166992188 1023 575.5 1023 c 0
 532.833007812 1023 493.5 1011.66699219 457.5 989 c 128
 421.5 966.333007812 390.833007812 935 365.5 895 c 128
 340.166992188 855 320.5 807.666992188 306.5 753 c 128
 292.5 698.333007812 285.5 638.333007812 285.5 573 c 2
 285.5 -311 l 1
 79.5 -311 l 1
 79.5 511 l 2
EndSplineSet
EndChar

StartChar: G
Encoding: 71 71 30
Width: 1198
VWidth: 2257
GlyphClass: 2
Flags: HW
LayerCount: 2
Fore
SplineSet
1144.5 -355 m 1
 1133.83300781 -353.666992188 1116.16699219 -347.333007812 1091.5 -336 c 128
 1066.83300781 -324.666992188 1041.83300781 -308 1016.5 -286 c 128
 991.166992188 -264 968.833007812 -236.666992188 949.5 -204 c 128
 930.166992188 -171.333007812 920.5 -131.666992188 920.5 -85 c 0
 920.5 123 920.166992188 291.333007812 919.5 420 c 128
 918.833007812 548.666992188 918.5 649 918.5 721 c 128
 918.5 829 918.5 829 918.5 866 c 128
 918.5 903 918.5 903 918.5 903 c 1
 870.5 841.666992188 820.833007812 780 769.5 718 c 128
 718.166992188 656 666.5 595.333007812 614.5 536 c 128
 562.5 476.666992188 510.5 419.333007812 458.5 364 c 128
 406.5 308.666992188 356.5 257 308.5 209 c 1
 100.5 209 l 1
 115.166992188 266.333007812 132.166992188 324.666992188 151.5 384 c 128
 170.833007812 443.333007812 187.833007812 502 202.5 560 c 128
 217.166992188 618 228.166992188 674.333007812 235.5 729 c 128
 242.833007812 783.666992188 242.5 834.666992188 234.5 882 c 128
 226.5 929.333007812 208.5 972.333007812 180.5 1011 c 128
 152.5 1049.66699219 111.833007812 1082.33300781 58.5 1109 c 1
 264.5 1109 l 1
 309.833007812 1094.33300781 344.5 1071.33300781 368.5 1040 c 128
 392.5 1008.66699219 409.5 973 419.5 933 c 128
 429.5 893 433.166992188 850.333007812 430.5 805 c 128
 427.833007812 759.666992188 422.5 715.333007812 414.5 672 c 128
 406.5 628.666992188 396.5 588 384.5 550 c 128
 372.5 512 361.833007812 481 352.5 457 c 1
 456.5 561 556.5 665 652.5 769 c 128
 748.5 873 837.166992188 986.333007812 918.5 1109 c 1
 1124.5 1109 l 1
 1124.5 -85 l 2
 1124.5 -117 1124.5 -117 1124.5 -155 c 128
 1124.5 -180.333007812 1124.83300781 -205 1125.5 -229 c 128
 1126.16699219 -253 1127.83300781 -276 1130.5 -298 c 128
 1133.16699219 -320 1137.83300781 -339 1144.5 -355 c 1
EndSplineSet
EndChar

StartChar: g
Encoding: 103 103 31
Width: 1198
VWidth: 2257
GlyphClass: 2
Flags: HW
LayerCount: 2
Fore
SplineSet
1144.5 -355 m 1
 1133.83300781 -353.666992188 1116.16699219 -347.333007812 1091.5 -336 c 128
 1066.83300781 -324.666992188 1041.83300781 -308 1016.5 -286 c 128
 991.166992188 -264 968.833007812 -236.666992188 949.5 -204 c 128
 930.166992188 -171.333007812 920.5 -131.666992188 920.5 -85 c 0
 920.5 123 920.166992188 291.333007812 919.5 420 c 128
 918.833007812 548.666992188 918.5 649 918.5 721 c 128
 918.5 829 918.5 829 918.5 866 c 128
 918.5 903 918.5 903 918.5 903 c 1
 870.5 841.666992188 820.833007812 780 769.5 718 c 128
 718.166992188 656 666.5 595.333007812 614.5 536 c 128
 562.5 476.666992188 510.5 419.333007812 458.5 364 c 128
 406.5 308.666992188 356.5 257 308.5 209 c 1
 100.5 209 l 1
 115.166992188 266.333007812 132.166992188 324.666992188 151.5 384 c 128
 170.833007812 443.333007812 187.833007812 502 202.5 560 c 128
 217.166992188 618 228.166992188 674.333007812 235.5 729 c 128
 242.833007812 783.666992188 242.5 834.666992188 234.5 882 c 128
 226.5 929.333007812 208.5 972.333007812 180.5 1011 c 128
 152.5 1049.66699219 111.833007812 1082.33300781 58.5 1109 c 1
 264.5 1109 l 1
 309.833007812 1094.33300781 344.5 1071.33300781 368.5 1040 c 128
 392.5 1008.66699219 409.5 973 419.5 933 c 128
 429.5 893 433.166992188 850.333007812 430.5 805 c 128
 427.833007812 759.666992188 422.5 715.333007812 414.5 672 c 128
 406.5 628.666992188 396.5 588 384.5 550 c 128
 372.5 512 361.833007812 481 352.5 457 c 1
 456.5 561 556.5 665 652.5 769 c 128
 748.5 873 837.166992188 986.333007812 918.5 1109 c 1
 1124.5 1109 l 1
 1124.5 -85 l 2
 1124.5 -117 1124.5 -117 1124.5 -155 c 128
 1124.5 -180.333007812 1124.83300781 -205 1125.5 -229 c 128
 1126.16699219 -253 1127.83300781 -276 1130.5 -298 c 128
 1133.16699219 -320 1137.83300781 -339 1144.5 -355 c 1
EndSplineSet
EndChar

StartChar: H
Encoding: 72 72 32
Width: 743
VWidth: 2137
GlyphClass: 2
Flags: HW
LayerCount: 2
Fore
SplineSet
545 275 m 2
 545 229.666992188 545.333007812 191.666992188 546 161 c 128
 546.666992188 130.333007812 548 104.666992188 550 84 c 128
 552 63.3330078125 554 47 556 35 c 128
 558 23 561 13 565 5 c 1
 547.666992188 10.3330078125 526.333007812 19 501 31 c 128
 475.666992188 43 451.666992188 59.6669921875 429 81 c 128
 406.333007812 102.333007812 386.666992188 128.666992188 370 160 c 128
 353.333007812 191.333007812 345 229.666992188 345 275 c 2
 345 989 l 1
 545 989 l 1
 545 275 l 2
EndSplineSet
EndChar

StartChar: x
Encoding: 120 120 33
Width: 1200
VWidth: 2115
GlyphClass: 2
Flags: HW
LayerCount: 2
Fore
SplineSet
68 517.5 m 256
 68 580.166992188 82.3330078125 639.833007812 111 696.5 c 128
 139.666992188 753.166992188 178.666992188 803.166992188 228 846.5 c 128
 277.333007812 889.833007812 334 924.5 398 950.5 c 128
 462 976.5 529.333007812 989.5 600 989.5 c 256
 670.666992188 989.5 738.333007812 976.5 803 950.5 c 128
 867.666992188 924.5 924.333007812 889.833007812 973 846.5 c 128
 1021.66699219 803.166992188 1060.33300781 753.166992188 1089 696.5 c 128
 1117.66699219 639.833007812 1132 580.166992188 1132 517.5 c 256
 1132 454.833007812 1117.66699219 395.166992188 1089 338.5 c 128
 1060.33300781 281.833007812 1021.66699219 232.166992188 973 189.5 c 128
 924.333007812 146.833007812 867.666992188 112.5 803 86.5 c 128
 738.333007812 60.5 670.666992188 47.5 600 47.5 c 256
 529.333007812 47.5 462 60.5 398 86.5 c 128
 334 112.5 277.333007812 146.833007812 228 189.5 c 128
 178.666992188 232.166992188 139.666992188 281.833007812 111 338.5 c 128
 82.3330078125 395.166992188 68 454.833007812 68 517.5 c 256
294 515.5 m 256
 294 467.5 302 420.166992188 318 373.5 c 128
 334 326.833007812 355.666992188 285.5 383 249.5 c 128
 410.333007812 213.5 442.333007812 184.5 479 162.5 c 128
 515.666992188 140.5 555.333007812 129.5 598 129.5 c 256
 640.666992188 129.5 680.666992188 140.5 718 162.5 c 128
 755.333007812 184.5 788 213.5 816 249.5 c 128
 844 285.5 866.333007812 326.833007812 883 373.5 c 128
 899.666992188 420.166992188 908 467.5 908 515.5 c 256
 908 563.5 899.666992188 610.833007812 883 657.5 c 128
 866.333007812 704.166992188 844 745.5 816 781.5 c 128
 788 817.5 755.333007812 846.5 718 868.5 c 128
 680.666992188 890.5 640.666992188 901.5 598 901.5 c 256
 555.333007812 901.5 515.666992188 890.5 479 868.5 c 128
 442.333007812 846.5 410.333007812 817.5 383 781.5 c 128
 355.666992188 745.5 334 704.166992188 318 657.5 c 128
 302 610.833007812 294 563.5 294 515.5 c 256
EndSplineSet
EndChar

StartChar: X
Encoding: 88 88 34
Width: 1200
VWidth: 2115
GlyphClass: 2
Flags: HW
LayerCount: 2
Fore
SplineSet
68 517.5 m 256
 68 580.166992188 82.3330078125 639.833007812 111 696.5 c 128
 139.666992188 753.166992188 178.666992188 803.166992188 228 846.5 c 128
 277.333007812 889.833007812 334 924.5 398 950.5 c 128
 462 976.5 529.333007812 989.5 600 989.5 c 256
 670.666992188 989.5 738.333007812 976.5 803 950.5 c 128
 867.666992188 924.5 924.333007812 889.833007812 973 846.5 c 128
 1021.66699219 803.166992188 1060.33300781 753.166992188 1089 696.5 c 128
 1117.66699219 639.833007812 1132 580.166992188 1132 517.5 c 256
 1132 454.833007812 1117.66699219 395.166992188 1089 338.5 c 128
 1060.33300781 281.833007812 1021.66699219 232.166992188 973 189.5 c 128
 924.333007812 146.833007812 867.666992188 112.5 803 86.5 c 128
 738.333007812 60.5 670.666992188 47.5 600 47.5 c 256
 529.333007812 47.5 462 60.5 398 86.5 c 128
 334 112.5 277.333007812 146.833007812 228 189.5 c 128
 178.666992188 232.166992188 139.666992188 281.833007812 111 338.5 c 128
 82.3330078125 395.166992188 68 454.833007812 68 517.5 c 256
294 515.5 m 256
 294 467.5 302 420.166992188 318 373.5 c 128
 334 326.833007812 355.666992188 285.5 383 249.5 c 128
 410.333007812 213.5 442.333007812 184.5 479 162.5 c 128
 515.666992188 140.5 555.333007812 129.5 598 129.5 c 256
 640.666992188 129.5 680.666992188 140.5 718 162.5 c 128
 755.333007812 184.5 788 213.5 816 249.5 c 128
 844 285.5 866.333007812 326.833007812 883 373.5 c 128
 899.666992188 420.166992188 908 467.5 908 515.5 c 256
 908 563.5 899.666992188 610.833007812 883 657.5 c 128
 866.333007812 704.166992188 844 745.5 816 781.5 c 128
 788 817.5 755.333007812 846.5 718 868.5 c 128
 680.666992188 890.5 640.666992188 901.5 598 901.5 c 256
 555.333007812 901.5 515.666992188 890.5 479 868.5 c 128
 442.333007812 846.5 410.333007812 817.5 383 781.5 c 128
 355.666992188 745.5 334 704.166992188 318 657.5 c 128
 302 610.833007812 294 563.5 294 515.5 c 256
EndSplineSet
EndChar

StartChar: A
Encoding: 65 65 35
Width: 304
VWidth: 2122
GlyphClass: 2
Flags: HW
LayerCount: 2
Fore
SplineSet
396 526 m 2
 396 458 396 458 396 412 c 128
 396 381.333007812 395.666992188 355.666992188 395 335 c 128
 394.333007812 314.333007812 394 298 394 286 c 128
 394 268 394 268 394 256 c 1
 376.666992188 261.333007812 356.666992188 270 334 282 c 128
 311.333007812 294 289.666992188 310.666992188 269 332 c 128
 248.333007812 353.333007812 231 379.666992188 217 411 c 128
 203 442.333007812 196 480.666992188 196 526 c 2
 196 768 l 1
 396 768 l 1
 396 526 l 2
EndSplineSet
EndChar

StartChar: a
Encoding: 97 97 36
Width: 304
VWidth: 2122
GlyphClass: 2
Flags: HW
LayerCount: 2
Fore
SplineSet
396 526 m 2
 396 458 396 458 396 412 c 128
 396 381.333007812 395.666992188 355.666992188 395 335 c 128
 394.333007812 314.333007812 394 298 394 286 c 128
 394 268 394 268 394 256 c 1
 376.666992188 261.333007812 356.666992188 270 334 282 c 128
 311.333007812 294 289.666992188 310.666992188 269 332 c 128
 248.333007812 353.333007812 231 379.666992188 217 411 c 128
 203 442.333007812 196 480.666992188 196 526 c 2
 196 768 l 1
 396 768 l 1
 396 526 l 2
EndSplineSet
EndChar

StartChar: E
Encoding: 69 69 37
Width: 303
VWidth: 2121
GlyphClass: 2
Flags: HW
LayerCount: 2
Fore
SplineSet
519.5 437.5 m 1
 439.5 438.833007812 372.166992188 439.166992188 317.5 438.5 c 128
 262.833007812 437.833007812 217.833007812 436.833007812 182.5 435.5 c 128
 147.166992188 434.166992188 119.833007812 432.5 100.5 430.5 c 128
 81.1669921875 428.5 66.8330078125 426.166992188 57.5 423.5 c 128
 48.1669921875 420.833007812 42.1669921875 418.5 39.5 416.5 c 128
 36.8330078125 414.5 34.1669921875 412.833007812 31.5 411.5 c 2
 113.5 613.5 l 1
 561.5 613.5 l 1
 519.5 437.5 l 1
EndSplineSet
EndChar

StartChar: e
Encoding: 101 101 38
Width: 303
VWidth: 2121
GlyphClass: 2
Flags: HW
LayerCount: 2
Fore
SplineSet
519.5 437.5 m 1
 439.5 438.833007812 372.166992188 439.166992188 317.5 438.5 c 128
 262.833007812 437.833007812 217.833007812 436.833007812 182.5 435.5 c 128
 147.166992188 434.166992188 119.833007812 432.5 100.5 430.5 c 128
 81.1669921875 428.5 66.8330078125 426.166992188 57.5 423.5 c 128
 48.1669921875 420.833007812 42.1669921875 418.5 39.5 416.5 c 128
 36.8330078125 414.5 34.1669921875 412.833007812 31.5 411.5 c 2
 113.5 613.5 l 1
 561.5 613.5 l 1
 519.5 437.5 l 1
EndSplineSet
EndChar

StartChar: I
Encoding: 73 73 39
Width: 300
VWidth: 2115
GlyphClass: 2
Flags: HW
LayerCount: 2
Fore
SplineSet
161.5 517.5 m 0
 161.5 556.166992188 175.166992188 589.166992188 202.5 616.5 c 128
 229.833007812 643.833007812 262.166992188 657.5 299.5 657.5 c 0
 338.166992188 657.5 371.166992188 643.833007812 398.5 616.5 c 128
 425.833007812 589.166992188 439.5 556.166992188 439.5 517.5 c 0
 439.5 480.166992188 425.833007812 447.833007812 398.5 420.5 c 128
 371.166992188 393.166992188 338.166992188 379.5 299.5 379.5 c 0
 262.166992188 379.5 229.833007812 393.166992188 202.5 420.5 c 128
 175.166992188 447.833007812 161.5 480.166992188 161.5 517.5 c 0
EndSplineSet
EndChar

StartChar: i
Encoding: 105 105 40
Width: 300
VWidth: 2115
GlyphClass: 2
Flags: HW
LayerCount: 2
Fore
SplineSet
161.5 517.5 m 0
 161.5 556.166992188 175.166992188 589.166992188 202.5 616.5 c 128
 229.833007812 643.833007812 262.166992188 657.5 299.5 657.5 c 0
 338.166992188 657.5 371.166992188 643.833007812 398.5 616.5 c 128
 425.833007812 589.166992188 439.5 556.166992188 439.5 517.5 c 0
 439.5 480.166992188 425.833007812 447.833007812 398.5 420.5 c 128
 371.166992188 393.166992188 338.166992188 379.5 299.5 379.5 c 0
 262.166992188 379.5 229.833007812 393.166992188 202.5 420.5 c 128
 175.166992188 447.833007812 161.5 480.166992188 161.5 517.5 c 0
EndSplineSet
EndChar

StartChar: O
Encoding: 79 79 41
Width: 301
VWidth: 2117
GlyphClass: 2
Flags: HW
LayerCount: 2
Fore
SplineSet
577 751.5 m 1
 551.666992188 718.166992188 526.333007812 681.166992188 501 640.5 c 128
 475.666992188 599.833007812 451.333007812 558.166992188 428 515.5 c 128
 404.666992188 472.833007812 383.666992188 431.166992188 365 390.5 c 128
 346.333007812 349.833007812 331.666992188 313.5 321 281.5 c 1
 163 281.5 l 1
 173.666992188 365.5 166.666992188 441.5 142 509.5 c 128
 117.333007812 577.5 77 628.166992188 21 661.5 c 1
 193 661.5 l 1
 221 653.5 241.666992188 637.5 255 613.5 c 128
 268.333007812 589.5 281 557.5 293 517.5 c 1
 313 546.833007812 331.666992188 575.166992188 349 602.5 c 128
 366.333007812 629.833007812 385.333007812 653.833007812 406 674.5 c 128
 426.666992188 695.166992188 450.333007812 712.166992188 477 725.5 c 128
 503.666992188 738.833007812 537 747.5 577 751.5 c 1
EndSplineSet
EndChar

StartChar: o
Encoding: 111 111 42
Width: 301
VWidth: 2117
GlyphClass: 2
Flags: HW
LayerCount: 2
Fore
SplineSet
577 751.5 m 1
 551.666992188 718.166992188 526.333007812 681.166992188 501 640.5 c 128
 475.666992188 599.833007812 451.333007812 558.166992188 428 515.5 c 128
 404.666992188 472.833007812 383.666992188 431.166992188 365 390.5 c 128
 346.333007812 349.833007812 331.666992188 313.5 321 281.5 c 1
 163 281.5 l 1
 173.666992188 365.5 166.666992188 441.5 142 509.5 c 128
 117.333007812 577.5 77 628.166992188 21 661.5 c 1
 193 661.5 l 1
 221 653.5 241.666992188 637.5 255 613.5 c 128
 268.333007812 589.5 281 557.5 293 517.5 c 1
 313 546.833007812 331.666992188 575.166992188 349 602.5 c 128
 366.333007812 629.833007812 385.333007812 653.833007812 406 674.5 c 128
 426.666992188 695.166992188 450.333007812 712.166992188 477 725.5 c 128
 503.666992188 738.833007812 537 747.5 577 751.5 c 1
EndSplineSet
EndChar

StartChar: U
Encoding: 85 85 43
Width: 297
VWidth: 2114
GlyphClass: 2
Flags: HW
LayerCount: 2
Fore
SplineSet
10.5 516.72265625 m 0
 10.5 556.72265625 20.5 592.72265625 40.5 624.72265625 c 128
 60.5 656.72265625 89.8330078125 674.055664062 128.5 676.72265625 c 0
 149.833007812 678.055664062 167.5 672.388671875 181.5 659.72265625 c 128
 195.5 647.055664062 205.166992188 631.72265625 210.5 613.72265625 c 128
 215.833007812 595.72265625 215.5 578.055664062 209.5 560.72265625 c 128
 203.5 543.388671875 190.5 530.72265625 170.5 522.72265625 c 1
 174.5 514.72265625 183.5 509.055664062 197.5 505.72265625 c 128
 211.5 502.388671875 225.166992188 501.388671875 238.5 502.72265625 c 0
 265.166992188 504.055664062 293.166992188 508.055664062 322.5 514.72265625 c 128
 351.833007812 521.388671875 381.833007812 532.055664062 412.5 546.72265625 c 128
 443.166992188 561.388671875 473.833007812 580.72265625 504.5 604.72265625 c 128
 535.166992188 628.72265625 565.833007812 659.388671875 596.5 696.72265625 c 1
 591.166992188 640.72265625 577.5 591.055664062 555.5 547.72265625 c 128
 533.5 504.388671875 505.833007812 468.055664062 472.5 438.72265625 c 128
 439.166992188 409.388671875 402.5 386.72265625 362.5 370.72265625 c 128
 322.5 354.72265625 281.833007812 345.388671875 240.5 342.72265625 c 0
 208.5 340.055664062 178.5 343.388671875 150.5 352.72265625 c 128
 122.5 362.055664062 98.1669921875 374.72265625 77.5 390.72265625 c 128
 56.8330078125 406.72265625 40.5 425.72265625 28.5 447.72265625 c 128
 16.5 469.72265625 10.5 492.72265625 10.5 516.72265625 c 0
EndSplineSet
EndChar

StartChar: u
Encoding: 117 117 44
Width: 297
VWidth: 2114
GlyphClass: 2
Flags: HW
LayerCount: 2
Fore
SplineSet
10.5 516.72265625 m 0
 10.5 556.72265625 20.5 592.72265625 40.5 624.72265625 c 128
 60.5 656.72265625 89.8330078125 674.055664062 128.5 676.72265625 c 0
 149.833007812 678.055664062 167.5 672.388671875 181.5 659.72265625 c 128
 195.5 647.055664062 205.166992188 631.72265625 210.5 613.72265625 c 128
 215.833007812 595.72265625 215.5 578.055664062 209.5 560.72265625 c 128
 203.5 543.388671875 190.5 530.72265625 170.5 522.72265625 c 1
 174.5 514.72265625 183.5 509.055664062 197.5 505.72265625 c 128
 211.5 502.388671875 225.166992188 501.388671875 238.5 502.72265625 c 0
 265.166992188 504.055664062 293.166992188 508.055664062 322.5 514.72265625 c 128
 351.833007812 521.388671875 381.833007812 532.055664062 412.5 546.72265625 c 128
 443.166992188 561.388671875 473.833007812 580.72265625 504.5 604.72265625 c 128
 535.166992188 628.72265625 565.833007812 659.388671875 596.5 696.72265625 c 1
 591.166992188 640.72265625 577.5 591.055664062 555.5 547.72265625 c 128
 533.5 504.388671875 505.833007812 468.055664062 472.5 438.72265625 c 128
 439.166992188 409.388671875 402.5 386.72265625 362.5 370.72265625 c 128
 322.5 354.72265625 281.833007812 345.388671875 240.5 342.72265625 c 0
 208.5 340.055664062 178.5 343.388671875 150.5 352.72265625 c 128
 122.5 362.055664062 98.1669921875 374.72265625 77.5 390.72265625 c 128
 56.8330078125 406.72265625 40.5 425.72265625 28.5 447.72265625 c 128
 16.5 469.72265625 10.5 492.72265625 10.5 516.72265625 c 0
EndSplineSet
EndChar

StartChar: Y
Encoding: 89 89 45
Width: 300
VWidth: 2116
GlyphClass: 2
Flags: HW
LayerCount: 2
Fore
SplineSet
72 518 m 256
 72 550 78 579.666992188 90 607 c 128
 102 634.333007812 118.333007812 658.333007812 139 679 c 128
 159.666992188 699.666992188 183.666992188 716 211 728 c 128
 238.333007812 740 268 746 300 746 c 256
 332 746 361.666992188 740 389 728 c 128
 416.333007812 716 440.333007812 699.666992188 461 679 c 128
 481.666992188 658.333007812 498 634.333007812 510 607 c 128
 522 579.666992188 528 550 528 518 c 256
 528 486 522 456.333007812 510 429 c 128
 498 401.666992188 481.666992188 377.666992188 461 357 c 128
 440.333007812 336.333007812 416.333007812 320 389 308 c 128
 361.666992188 296 332 290 300 290 c 256
 268 290 238.333007812 296 211 308 c 128
 183.666992188 320 159.666992188 336.333007812 139 357 c 128
 118.333007812 377.666992188 102 401.666992188 90 429 c 128
 78 456.333007812 72 486 72 518 c 256
150 518 m 256
 150 475.333007812 164.333007812 439.666992188 193 411 c 128
 221.666992188 382.333007812 257.333007812 368 300 368 c 256
 342.666992188 368 378.666992188 382.333007812 408 411 c 128
 437.333007812 439.666992188 452 475.333007812 452 518 c 256
 452 560.666992188 437.333007812 596.666992188 408 626 c 128
 378.666992188 655.333007812 342.666992188 670 300 670 c 256
 257.333007812 670 221.666992188 655.333007812 193 626 c 128
 164.333007812 596.666992188 150 560.666992188 150 518 c 256
EndSplineSet
EndChar

StartChar: y
Encoding: 121 121 46
Width: 300
VWidth: 2116
GlyphClass: 2
Flags: HW
LayerCount: 2
Fore
SplineSet
72 518 m 256
 72 550 78 579.666992188 90 607 c 128
 102 634.333007812 118.333007812 658.333007812 139 679 c 128
 159.666992188 699.666992188 183.666992188 716 211 728 c 128
 238.333007812 740 268 746 300 746 c 256
 332 746 361.666992188 740 389 728 c 128
 416.333007812 716 440.333007812 699.666992188 461 679 c 128
 481.666992188 658.333007812 498 634.333007812 510 607 c 128
 522 579.666992188 528 550 528 518 c 256
 528 486 522 456.333007812 510 429 c 128
 498 401.666992188 481.666992188 377.666992188 461 357 c 128
 440.333007812 336.333007812 416.333007812 320 389 308 c 128
 361.666992188 296 332 290 300 290 c 256
 268 290 238.333007812 296 211 308 c 128
 183.666992188 320 159.666992188 336.333007812 139 357 c 128
 118.333007812 377.666992188 102 401.666992188 90 429 c 128
 78 456.333007812 72 486 72 518 c 256
150 518 m 256
 150 475.333007812 164.333007812 439.666992188 193 411 c 128
 221.666992188 382.333007812 257.333007812 368 300 368 c 256
 342.666992188 368 378.666992188 382.333007812 408 411 c 128
 437.333007812 439.666992188 452 475.333007812 452 518 c 256
 452 560.666992188 437.333007812 596.666992188 408 626 c 128
 378.666992188 655.333007812 342.666992188 670 300 670 c 256
 257.333007812 670 221.666992188 655.333007812 193 626 c 128
 164.333007812 596.666992188 150 560.666992188 150 518 c 256
EndSplineSet
EndChar

StartChar: h
Encoding: 104 104 47
Width: 743
VWidth: 2137
GlyphClass: 2
Flags: HW
LayerCount: 2
Fore
SplineSet
545 275 m 2
 545 229.666992188 545.333007812 191.666992188 546 161 c 128
 546.666992188 130.333007812 548 104.666992188 550 84 c 128
 552 63.3330078125 554 47 556 35 c 128
 558 23 561 13 565 5 c 1
 547.666992188 10.3330078125 526.333007812 19 501 31 c 128
 475.666992188 43 451.666992188 59.6669921875 429 81 c 128
 406.333007812 102.333007812 386.666992188 128.666992188 370 160 c 128
 353.333007812 191.333007812 345 229.666992188 345 275 c 2
 345 989 l 1
 545 989 l 1
 545 275 l 2
EndSplineSet
EndChar

StartChar: period
Encoding: 46 46 48
Width: 600
GlyphClass: 2
Flags: HW
LayerCount: 2
Fore
SplineSet
146 450 m 260
 146 492.666992188 161 529 191 559 c 132
 221 589 257.333007812 604 300 604 c 260
 342.666992188 604 379 589 409 559 c 132
 439 529 454 492.666992188 454 450 c 260
 454 407.333007812 439 371.333007812 409 342 c 132
 379 312.666992188 342.666992188 298 300 298 c 260
 257.333007812 298 221 312.666992188 191 342 c 132
 161 371.333007812 146 407.333007812 146 450 c 260
EndSplineSet
EndChar

StartChar: quotesingle
Encoding: 39 39 49
Width: 743
VWidth: 2137
GlyphClass: 2
Flags: HW
LayerCount: 2
Fore
SplineSet
545 275 m 2
 545 229.666992188 545.333007812 191.666992188 546 161 c 128
 546.666992188 130.333007812 548 104.666992188 550 84 c 128
 552 63.3330078125 554 47 556 35 c 128
 558 23 561 13 565 5 c 1
 547.666992188 10.3330078125 526.333007812 19 501 31 c 128
 475.666992188 43 451.666992188 59.6669921875 429 81 c 128
 406.333007812 102.333007812 386.666992188 128.666992188 370 160 c 128
 353.333007812 191.333007812 345 229.666992188 345 275 c 2
 345 989 l 1
 545 989 l 1
 545 275 l 2
EndSplineSet
EndChar

StartChar: period.e
Encoding: 257 -1 50
Width: 600
GlyphClass: 3
Flags: HW
LayerCount: 2
Fore
SplineSet
146 450 m 260,0,1
 146 514 146 514 191 559 c 132,-1,2
 236 604 236 604 300 604 c 260,3,4
 364 604 364 604 409 559 c 132,-1,5
 454 514 454 514 454 450 c 260,6,7
 454 386 454 386 409 342 c 132,-1,8
 364 298 364 298 300 298 c 260,9,10
 236 298 236 298 191 342 c 132,-1,11
 146 386 146 386 146 450 c 260,0,1
552 1228 m 5,0,1
 432 1230 432 1230 350 1229 c 132,-1,2
 268 1228 268 1228 215 1226 c 132,-1,3
 162 1224 162 1224 133 1221 c 132,-1,4
 104 1218 104 1218 90 1214 c 132,-1,5
 76 1210 76 1210 72 1207 c 132,-1,6
 68 1204 68 1204 64 1202 c 6,7,-1
 146 1404 l 5,8,-1
 594 1404 l 5,9,-1
 552 1228 l 5,0,1
EndSplineSet
LCarets2: 1 0
Ligature2: "ccmp-1 subtable" period E
Ligature2: "ccmp-1 subtable" period e
Ligature2: "ccmp-0 subtable" period E
Ligature2: "ccmp-0 subtable" period e
Ligature2: "ccmp-1" period e
Ligature2: "ccmp-1" period E
EndChar

StartChar: period.a
Encoding: 256 -1 51
Width: 600
GlyphClass: 3
Flags: HW
LayerCount: 2
Fore
SplineSet
146 450 m 260,0,1
 146 514 146 514 191 559 c 132,-1,2
 236 604 236 604 300 604 c 260,3,4
 364 604 364 604 409 559 c 132,-1,5
 454 514 454 514 454 450 c 260,6,7
 454 386 454 386 409 342 c 132,-1,8
 364 298 364 298 300 298 c 260,9,10
 236 298 236 298 191 342 c 132,-1,11
 146 386 146 386 146 450 c 260,0,1
400 1360 m 6,0,1
 400 1292 400 1292 400 1246 c 132,-1,2
 400 1200 400 1200 399 1169 c 132,-1,3
 398 1138 398 1138 398 1120 c 132,-1,4
 398 1102 398 1102 398 1090 c 5,5,6
 372 1098 372 1098 338 1116 c 132,-1,7
 304 1134 304 1134 273 1166 c 132,-1,8
 242 1198 242 1198 221 1245 c 132,-1,9
 200 1292 200 1292 200 1360 c 6,10,-1
 200 1602 l 5,11,-1
 400 1602 l 5,12,-1
 400 1360 l 6,0,1
EndSplineSet
LCarets2: 1 0
Ligature2: "ccmp-1 subtable" period A
Ligature2: "ccmp-1 subtable" period a
Ligature2: "ccmp-0 subtable" period A
Ligature2: "ccmp-0 subtable" period a
Ligature2: "ccmp-1" period a
Ligature2: "ccmp-1" period A
EndChar

StartChar: period.i
Encoding: 258 -1 52
Width: 600
GlyphClass: 3
Flags: HW
LayerCount: 2
Fore
SplineSet
146 450 m 260,0,1
 146 514 146 514 191 559 c 132,-1,2
 236 604 236 604 300 604 c 260,3,4
 364 604 364 604 409 559 c 132,-1,5
 454 514 454 514 454 450 c 260,6,7
 454 386 454 386 409 342 c 132,-1,8
 364 298 364 298 300 298 c 260,9,10
 236 298 236 298 191 342 c 132,-1,11
 146 386 146 386 146 450 c 260,0,1
162 1270 m 4,0,1
 162 1328 162 1328 203 1369 c 132,-1,2
 244 1410 244 1410 300 1410 c 4,3,4
 358 1410 358 1410 399 1369 c 132,-1,5
 440 1328 440 1328 440 1270 c 4,6,7
 440 1214 440 1214 399 1173 c 132,-1,8
 358 1132 358 1132 300 1132 c 4,9,10
 244 1132 244 1132 203 1173 c 132,-1,11
 162 1214 162 1214 162 1270 c 4,0,1
EndSplineSet
Ligature2: "ccmp-1" period I
Ligature2: "ccmp-1" period i
Ligature2: "ccmp-0 subtable" period i
Ligature2: "ccmp-0 subtable" period I
Ligature2: "ccmp-1 subtable" period i
Ligature2: "ccmp-1 subtable" period I
EndChar

StartChar: period.o
Encoding: 259 -1 53
Width: 600
GlyphClass: 3
Flags: HW
LayerCount: 2
Fore
SplineSet
146 450 m 260,0,1
 146 514 146 514 191 559 c 132,-1,2
 236 604 236 604 300 604 c 260,3,4
 364 604 364 604 409 559 c 132,-1,5
 454 514 454 514 454 450 c 260,6,7
 454 386 454 386 409 342 c 132,-1,8
 364 298 364 298 300 298 c 260,9,10
 236 298 236 298 191 342 c 132,-1,11
 146 386 146 386 146 450 c 260,0,1
616 1522 m 5,0,1
 578 1472 578 1472 540 1411 c 132,-1,2
 502 1350 502 1350 467 1286 c 132,-1,3
 432 1222 432 1222 404 1161 c 132,-1,4
 376 1100 376 1100 360 1052 c 5,5,-1
 202 1052 l 5,6,7
 218 1178 218 1178 181 1280 c 132,-1,8
 144 1382 144 1382 60 1432 c 5,9,-1
 232 1432 l 5,10,11
 274 1420 274 1420 294 1384 c 132,-1,12
 314 1348 314 1348 332 1288 c 5,13,14
 362 1332 362 1332 388 1373 c 132,-1,15
 414 1414 414 1414 445 1445 c 132,-1,16
 476 1476 476 1476 516 1496 c 132,-1,17
 556 1516 556 1516 616 1522 c 5,0,1
EndSplineSet
Ligature2: "ccmp-1" period o
Ligature2: "ccmp-1" period O
Ligature2: "ccmp-0 subtable" period O
Ligature2: "ccmp-0 subtable" period o
Ligature2: "ccmp-1 subtable" period O
Ligature2: "ccmp-1 subtable" period o
EndChar

StartChar: period.u
Encoding: 260 -1 54
Width: 600
GlyphClass: 3
Flags: HW
LayerCount: 2
Fore
SplineSet
146 450 m 260,0,1
 146 514 146 514 191 559 c 132,-1,2
 236 604 236 604 300 604 c 260,3,4
 364 604 364 604 409 559 c 132,-1,5
 454 514 454 514 454 450 c 260,6,7
 454 386 454 386 409 342 c 132,-1,8
 364 298 364 298 300 298 c 260,9,10
 236 298 236 298 191 342 c 132,-1,11
 146 386 146 386 146 450 c 260,0,1
74 1230 m 4,0,1
 74 1290 74 1290 104 1338 c 132,-1,2
 134 1386 134 1386 192 1390 c 4,3,4
 224 1392 224 1392 245 1373 c 132,-1,5
 266 1354 266 1354 274 1327 c 132,-1,6
 282 1300 282 1300 273 1274 c 132,-1,7
 264 1248 264 1248 234 1236 c 5,8,9
 240 1224 240 1224 261 1219 c 132,-1,10
 282 1214 282 1214 302 1216 c 4,11,12
 342 1218 342 1218 386 1228 c 132,-1,13
 430 1238 430 1238 476 1260 c 132,-1,14
 522 1282 522 1282 568 1318 c 132,-1,15
 614 1354 614 1354 660 1410 c 5,16,17
 652 1326 652 1326 619 1261 c 132,-1,18
 586 1196 586 1196 536 1152 c 132,-1,19
 486 1108 486 1108 426 1084 c 132,-1,20
 366 1060 366 1060 304 1056 c 4,21,22
 256 1052 256 1052 214 1066 c 132,-1,23
 172 1080 172 1080 141 1104 c 132,-1,24
 110 1128 110 1128 92 1161 c 132,-1,25
 74 1194 74 1194 74 1230 c 4,0,1
EndSplineSet
Ligature2: "ccmp-1" period U
Ligature2: "ccmp-1" period u
Ligature2: "ccmp-0 subtable" period u
Ligature2: "ccmp-0 subtable" period U
Ligature2: "ccmp-1 subtable" period u
Ligature2: "ccmp-1 subtable" period U
EndChar

StartChar: period.y
Encoding: 261 -1 55
Width: 600
GlyphClass: 3
Flags: HW
LayerCount: 2
Fore
SplineSet
146 450 m 260,0,1
 146 514 146 514 191 559 c 132,-1,2
 236 604 236 604 300 604 c 260,3,4
 364 604 364 604 409 559 c 132,-1,5
 454 514 454 514 454 450 c 260,6,7
 454 386 454 386 409 342 c 132,-1,8
 364 298 364 298 300 298 c 260,9,10
 236 298 236 298 191 342 c 132,-1,11
 146 386 146 386 146 450 c 260,0,1
72 1210 m 260,0,1
 72 1258 72 1258 90 1299 c 132,-1,2
 108 1340 108 1340 139 1371 c 132,-1,3
 170 1402 170 1402 211 1420 c 132,-1,4
 252 1438 252 1438 300 1438 c 260,5,6
 348 1438 348 1438 389 1420 c 132,-1,7
 430 1402 430 1402 461 1371 c 132,-1,8
 492 1340 492 1340 510 1299 c 132,-1,9
 528 1258 528 1258 528 1210 c 260,10,11
 528 1162 528 1162 510 1121 c 132,-1,12
 492 1080 492 1080 461 1049 c 132,-1,13
 430 1018 430 1018 389 1000 c 132,-1,14
 348 982 348 982 300 982 c 260,15,16
 252 982 252 982 211 1000 c 132,-1,17
 170 1018 170 1018 139 1049 c 132,-1,18
 108 1080 108 1080 90 1121 c 132,-1,19
 72 1162 72 1162 72 1210 c 260,0,1
150 1210 m 260,20,21
 150 1146 150 1146 193 1103 c 132,-1,22
 236 1060 236 1060 300 1060 c 260,23,24
 364 1060 364 1060 408 1103 c 132,-1,25
 452 1146 452 1146 452 1210 c 260,26,27
 452 1274 452 1274 408 1318 c 132,-1,28
 364 1362 364 1362 300 1362 c 260,29,30
 236 1362 236 1362 193 1318 c 132,-1,31
 150 1274 150 1274 150 1210 c 260,20,21
EndSplineSet
LCarets2: 1 0
Ligature2: "ccmp-1" period Y
Ligature2: "ccmp-1" period y
Ligature2: "ccmp-0 subtable" period y
Ligature2: "ccmp-0 subtable" period Y
Ligature2: "ccmp-1 subtable" period y
Ligature2: "ccmp-1 subtable" period Y
EndChar

StartChar: period.ai
Encoding: 262 -1 56
Width: 600
GlyphClass: 3
Flags: HW
LayerCount: 2
Fore
SplineSet
146 450 m 260,0,1
 146 514 146 514 191 559 c 132,-1,2
 236 604 236 604 300 604 c 260,3,4
 364 604 364 604 409 559 c 132,-1,5
 454 514 454 514 454 450 c 260,6,7
 454 386 454 386 409 342 c 132,-1,8
 364 298 364 298 300 298 c 260,9,10
 236 298 236 298 191 342 c 132,-1,11
 146 386 146 386 146 450 c 260,0,1
381.599609375 1222.80078125 m 6,0,1
 381.599609375 1168.40039062 381.599609375 1168.40039062 382.400390625 1131.59960938 c 132,-1,2
 383.19921875 1094.80078125 383.19921875 1094.80078125 385.599609375 1070 c 132,-1,3
 388 1045.19921875 388 1045.19921875 390.400390625 1030.80078125 c 132,-1,4
 392.80078125 1016.40039062 392.80078125 1016.40039062 397.599609375 1006.80078125 c 5,5,6
 376.80078125 1013.19921875 376.80078125 1013.19921875 346.400390625 1027.59960938 c 132,-1,7
 316 1042 316 1042 288.80078125 1067.59960938 c 132,-1,8
 261.599609375 1093.19921875 261.599609375 1093.19921875 241.599609375 1130.80078125 c 132,-1,9
 221.599609375 1168.40039062 221.599609375 1168.40039062 221.599609375 1222.80078125 c 6,10,-1
 221.599609375 1346 l 5,11,-1
 381.599609375 1346 l 5,12,-1
 381.599609375 1222.80078125 l 6,0,1
218.400390625 1490 m 260,13,14
 218.400390625 1525.19921875 218.400390625 1525.19921875 242.400390625 1549.19921875 c 132,-1,15
 266.400390625 1573.19921875 266.400390625 1573.19921875 301.599609375 1573.19921875 c 260,16,17
 336.80078125 1573.19921875 336.80078125 1573.19921875 360.80078125 1549.19921875 c 132,-1,18
 384.80078125 1525.19921875 384.80078125 1525.19921875 384.80078125 1490 c 260,19,20
 384.80078125 1454.80078125 384.80078125 1454.80078125 360.80078125 1430.80078125 c 132,-1,21
 336.80078125 1406.80078125 336.80078125 1406.80078125 301.599609375 1406.80078125 c 260,22,23
 266.400390625 1406.80078125 266.400390625 1406.80078125 242.400390625 1430.80078125 c 132,-1,24
 218.400390625 1454.80078125 218.400390625 1454.80078125 218.400390625 1490 c 260,13,14
EndSplineSet
Ligature2: "ccmp-1 subtable" period a I
Ligature2: "ccmp-1 subtable" period a i
Ligature2: "ccmp-1 subtable" period A i
Ligature2: "ccmp-1 subtable" period A I
Ligature2: "ccmp-0 subtable" period a I
Ligature2: "ccmp-0 subtable" period a i
Ligature2: "ccmp-0 subtable" period A i
Ligature2: "ccmp-0 subtable" period A I
Ligature2: "ccmp-1" period A I
Ligature2: "ccmp-1" period A i
Ligature2: "ccmp-1" period a i
Ligature2: "ccmp-1" period a I
EndChar

StartChar: period.au
Encoding: 263 -1 57
Width: 600
GlyphClass: 3
Flags: HW
LayerCount: 2
Fore
SplineSet
146 450 m 260,0,1
 146 514 146 514 191 559 c 132,-1,2
 236 604 236 604 300 604 c 260,3,4
 364 604 364 604 409 559 c 132,-1,5
 454 514 454 514 454 450 c 260,6,7
 454 386 454 386 409 342 c 132,-1,8
 364 298 364 298 300 298 c 260,9,10
 236 298 236 298 191 342 c 132,-1,11
 146 386 146 386 146 450 c 260,0,1
158 1326 m 4,0,1
 186 1362 186 1362 217 1377 c 132,-1,2
 248 1392 248 1392 280 1392 c 4,3,4
 318 1392 318 1392 355 1372 c 132,-1,5
 392 1352 392 1352 420 1320 c 132,-1,6
 448 1288 448 1288 465 1249 c 132,-1,7
 482 1210 482 1210 482 1172 c 4,8,9
 482 1114 482 1114 458 1066 c 132,-1,10
 434 1018 434 1018 395 981 c 132,-1,11
 356 944 356 944 307 920 c 132,-1,12
 258 896 258 896 206 884 c 5,13,14
 238 924 238 924 262 956 c 132,-1,15
 286 988 286 988 300 1018 c 132,-1,16
 314 1048 314 1048 321 1079 c 132,-1,17
 328 1110 328 1110 328 1146 c 4,18,19
 328 1186 328 1186 319 1216 c 132,-1,20
 310 1246 310 1246 300 1262 c 5,21,22
 300 1234 300 1234 277 1213 c 132,-1,23
 254 1192 254 1192 224 1192 c 4,24,25
 178 1192 178 1192 158 1215 c 132,-1,26
 138 1238 138 1238 138 1266 c 4,27,28
 138 1300 138 1300 158 1326 c 4,0,1
EndSplineSet
Ligature2: "ccmp-1" period a u
Ligature2: "ccmp-1" period a U
Ligature2: "ccmp-1" period A u
Ligature2: "ccmp-1" period A U
Ligature2: "ccmp-0 subtable" period A U
Ligature2: "ccmp-0 subtable" period A u
Ligature2: "ccmp-0 subtable" period a U
Ligature2: "ccmp-0 subtable" period a u
Ligature2: "ccmp-1 subtable" period A U
Ligature2: "ccmp-1 subtable" period A u
Ligature2: "ccmp-1 subtable" period a U
Ligature2: "ccmp-1 subtable" period a u
EndChar

StartChar: period.ei
Encoding: 264 -1 58
Width: 600
GlyphClass: 3
Flags: HW
LayerCount: 2
Fore
SplineSet
146 450 m 260,0,1
 146 514 146 514 191 559 c 132,-1,2
 236 604 236 604 300 604 c 260,3,4
 364 604 364 604 409 559 c 132,-1,5
 454 514 454 514 454 450 c 260,6,7
 454 386 454 386 409 342 c 132,-1,8
 364 298 364 298 300 298 c 260,9,10
 236 298 236 298 191 342 c 132,-1,11
 146 386 146 386 146 450 c 260,0,1
249.19921875 1434 m 4,0,1
 249.19921875 1469.19921875 249.19921875 1469.19921875 273.19921875 1493.19921875 c 132,-1,2
 297.19921875 1517.19921875 297.19921875 1517.19921875 330.80078125 1517.19921875 c 4,3,4
 366 1517.19921875 366 1517.19921875 390 1493.19921875 c 132,-1,5
 414 1469.19921875 414 1469.19921875 414 1434 c 4,6,7
 414 1400.40039062 414 1400.40039062 390 1376.40039062 c 132,-1,8
 366 1352.40039062 366 1352.40039062 330.80078125 1352.40039062 c 4,9,10
 297.19921875 1352.40039062 297.19921875 1352.40039062 273.19921875 1376.40039062 c 132,-1,11
 249.19921875 1400.40039062 249.19921875 1400.40039062 249.19921875 1434 c 4,0,1
502 1147.59960938 m 5,12,13
 358 1149.19921875 358 1149.19921875 270.80078125 1147.59960938 c 132,-1,14
 183.599609375 1146 183.599609375 1146 136.400390625 1142 c 132,-1,15
 89.19921875 1138 89.19921875 1138 73.19921875 1133.19921875 c 4,16,17
 52.400390625 1126.80078125 52.400390625 1126.80078125 52.400390625 1126.80078125 c 6,18,-1
 134 1272.40039062 l 5,19,-1
 535.599609375 1272.40039062 l 5,20,-1
 502 1147.59960938 l 5,12,13
EndSplineSet
Ligature2: "ccmp-1" period E I
Ligature2: "ccmp-1" period E i
Ligature2: "ccmp-1" period e I
Ligature2: "ccmp-1" period e i
Ligature2: "ccmp-0 subtable" period e i
Ligature2: "ccmp-0 subtable" period e I
Ligature2: "ccmp-0 subtable" period E i
Ligature2: "ccmp-0 subtable" period E I
Ligature2: "ccmp-1 subtable" period e i
Ligature2: "ccmp-1 subtable" period e I
Ligature2: "ccmp-1 subtable" period E i
Ligature2: "ccmp-1 subtable" period E I
EndChar

StartChar: period.oi
Encoding: 265 -1 59
Width: 600
GlyphClass: 3
Flags: HW
LayerCount: 2
Fore
SplineSet
146 450 m 260,0,1
 146 514 146 514 191 559 c 132,-1,2
 236 604 236 604 300 604 c 260,3,4
 364 604 364 604 409 559 c 132,-1,5
 454 514 454 514 454 450 c 260,6,7
 454 386 454 386 409 342 c 132,-1,8
 364 298 364 298 300 298 c 260,9,10
 236 298 236 298 191 342 c 132,-1,11
 146 386 146 386 146 450 c 260,0,1
582.400390625 1261.19921875 m 5,0,1
 550.400390625 1232.40039062 550.400390625 1232.40039062 516.80078125 1184.40039062 c 132,-1,2
 483.19921875 1136.40039062 483.19921875 1136.40039062 453.599609375 1082.80078125 c 132,-1,3
 424 1029.19921875 424 1029.19921875 399.19921875 976.400390625 c 132,-1,4
 374.400390625 923.599609375 374.400390625 923.599609375 361.599609375 885.19921875 c 5,5,-1
 235.19921875 885.19921875 l 5,6,7
 241.599609375 934.80078125 241.599609375 934.80078125 235.19921875 984.400390625 c 132,-1,8
 228.80078125 1034 228.80078125 1034 211.19921875 1076.40039062 c 132,-1,9
 193.599609375 1118.80078125 193.599609375 1118.80078125 166.400390625 1152.40039062 c 132,-1,10
 139.19921875 1186 139.19921875 1186 105.599609375 1205.19921875 c 5,11,-1
 243.19921875 1205.19921875 l 5,12,13
 276.80078125 1195.59960938 276.80078125 1195.59960938 300.80078125 1158.80078125 c 132,-1,14
 324.80078125 1122 324.80078125 1122 339.19921875 1074 c 5,15,16
 363.19921875 1109.19921875 363.19921875 1109.19921875 392 1143.59960938 c 132,-1,17
 420.80078125 1178 420.80078125 1178 452 1204.40039062 c 132,-1,18
 483.19921875 1230.80078125 483.19921875 1230.80078125 516 1246 c 132,-1,19
 548.80078125 1261.19921875 548.80078125 1261.19921875 582.400390625 1261.19921875 c 5,0,1
256 1387.59960938 m 4,20,21
 256 1422.80078125 256 1422.80078125 280 1446.80078125 c 132,-1,22
 304 1470.80078125 304 1470.80078125 337.599609375 1470.80078125 c 4,23,24
 372.80078125 1470.80078125 372.80078125 1470.80078125 396.80078125 1446.80078125 c 132,-1,25
 420.80078125 1422.80078125 420.80078125 1422.80078125 420.80078125 1387.59960938 c 4,26,27
 420.80078125 1354 420.80078125 1354 396.80078125 1330 c 132,-1,28
 372.80078125 1306 372.80078125 1306 337.599609375 1306 c 4,29,30
 304 1306 304 1306 280 1330 c 132,-1,31
 256 1354 256 1354 256 1387.59960938 c 4,20,21
EndSplineSet
Ligature2: "ccmp-1" period O I
Ligature2: "ccmp-1" period O i
Ligature2: "ccmp-1" period o I
Ligature2: "ccmp-1" period o i
Ligature2: "ccmp-0 subtable" period o i
Ligature2: "ccmp-0 subtable" period o I
Ligature2: "ccmp-0 subtable" period O i
Ligature2: "ccmp-0 subtable" period O I
Ligature2: "ccmp-1 subtable" period o i
Ligature2: "ccmp-1 subtable" period o I
Ligature2: "ccmp-1 subtable" period O i
Ligature2: "ccmp-1 subtable" period O I
EndChar

StartChar: h.yy
Encoding: 266 -1 60
Width: 1200
GlyphClass: 3
Flags: HW
LayerCount: 2
Fore
SplineSet
676 1350 m 260,0,1
 676 1398 676 1398 694 1439 c 132,-1,2
 712 1480 712 1480 743 1511 c 132,-1,3
 774 1542 774 1542 815 1560 c 132,-1,4
 856 1578 856 1578 904 1578 c 260,5,6
 952 1578 952 1578 993 1560 c 132,-1,7
 1034 1542 1034 1542 1065 1511 c 132,-1,8
 1096 1480 1096 1480 1114 1439 c 132,-1,9
 1132 1398 1132 1398 1132 1350 c 260,10,11
 1132 1302 1132 1302 1114 1261 c 132,-1,12
 1096 1220 1096 1220 1065 1189 c 132,-1,13
 1034 1158 1034 1158 993 1140 c 132,-1,14
 952 1122 952 1122 904 1122 c 260,15,16
 856 1122 856 1122 815 1140 c 132,-1,17
 774 1158 774 1158 743 1189 c 132,-1,18
 712 1220 712 1220 694 1261 c 132,-1,19
 676 1302 676 1302 676 1350 c 260,0,1
754 1350 m 260,20,21
 754 1286 754 1286 797 1243 c 132,-1,22
 840 1200 840 1200 904 1200 c 260,23,24
 968 1200 968 1200 1012 1243 c 132,-1,25
 1056 1286 1056 1286 1056 1350 c 260,26,27
 1056 1414 1056 1414 1012 1458 c 132,-1,28
 968 1502 968 1502 904 1502 c 260,29,30
 840 1502 840 1502 797 1458 c 132,-1,31
 754 1414 754 1414 754 1350 c 260,20,21
76 1150 m 260,0,1
 76 1198 76 1198 94 1239 c 132,-1,2
 112 1280 112 1280 143 1311 c 132,-1,3
 174 1342 174 1342 215 1360 c 132,-1,4
 256 1378 256 1378 304 1378 c 260,5,6
 352 1378 352 1378 393 1360 c 132,-1,7
 434 1342 434 1342 465 1311 c 132,-1,8
 496 1280 496 1280 514 1239 c 132,-1,9
 532 1198 532 1198 532 1150 c 260,10,11
 532 1102 532 1102 514 1061 c 132,-1,12
 496 1020 496 1020 465 989 c 132,-1,13
 434 958 434 958 393 940 c 132,-1,14
 352 922 352 922 304 922 c 260,15,16
 256 922 256 922 215 940 c 132,-1,17
 174 958 174 958 143 989 c 132,-1,18
 112 1020 112 1020 94 1061 c 132,-1,19
 76 1102 76 1102 76 1150 c 260,0,1
154 1150 m 260,20,21
 154 1086 154 1086 197 1043 c 132,-1,22
 240 1000 240 1000 304 1000 c 260,23,24
 368 1000 368 1000 412 1043 c 132,-1,25
 456 1086 456 1086 456 1150 c 260,26,27
 456 1214 456 1214 412 1258 c 132,-1,28
 368 1302 368 1302 304 1302 c 260,29,30
 240 1302 240 1302 197 1258 c 132,-1,31
 154 1214 154 1214 154 1150 c 260,20,21
1048 -84 m 5,0,1
 1032 -82 1032 -82 995 -65 c 132,-1,2
 958 -48 958 -48 920 -15 c 132,-1,3
 882 18 882 18 854 67 c 132,-1,4
 826 116 826 116 828 186 c 6,5,-1
 828 730 l 5,6,7
 756 658 756 658 696 601 c 132,-1,8
 636 544 636 544 581 506 c 132,-1,9
 526 468 526 468 471 448 c 132,-1,10
 416 428 416 428 352 428 c 4,11,12
 256 428 256 428 213 485 c 132,-1,13
 170 542 170 542 170 618 c 4,14,15
 170 628 170 628 175 653 c 132,-1,16
 180 678 180 678 195 705 c 132,-1,17
 210 732 210 732 237 757 c 132,-1,18
 264 782 264 782 308 792 c 4,19,20
 326 796 326 796 343 794 c 132,-1,21
 360 792 360 792 373 787 c 132,-1,22
 386 782 386 782 393 777 c 132,-1,23
 400 772 400 772 400 770 c 5,24,25
 340 792 340 792 307 760 c 132,-1,26
 274 728 274 728 274 674 c 4,27,28
 274 662 274 662 280 647 c 132,-1,29
 286 632 286 632 298 619 c 132,-1,30
 310 606 310 606 329 596 c 132,-1,31
 348 586 348 586 376 586 c 4,32,33
 426 586 426 586 484 603 c 132,-1,34
 542 620 542 620 601 657 c 132,-1,35
 660 694 660 694 718 754 c 132,-1,36
 776 814 776 814 828 900 c 5,37,-1
 1028 900 l 5,38,-1
 1028 186 l 6,39,40
 1028 154 1028 154 1028 116 c 132,-1,41
 1028 78 1028 78 1029 42 c 132,-1,42
 1030 6 1030 6 1034 -27 c 132,-1,43
 1038 -60 1038 -60 1048 -84 c 5,0,1
EndSplineSet
Ligature2: "ccmp-1 subtable" period Y quotesingle Y
Ligature2: "ccmp-1 subtable" period Y quotesingle y
Ligature2: "ccmp-1 subtable" period y quotesingle Y
Ligature2: "ccmp-1 subtable" period y quotesingle y
Ligature2: "ccmp-0 subtable" period Y quotesingle Y
Ligature2: "ccmp-0 subtable" period Y quotesingle y
Ligature2: "ccmp-0 subtable" period y quotesingle Y
Ligature2: "ccmp-0 subtable" period y quotesingle y
Ligature2: "ccmp-1" period y quotesingle y
Ligature2: "ccmp-1" period y quotesingle Y
Ligature2: "ccmp-1" period Y quotesingle y
Ligature2: "ccmp-1" period Y quotesingle Y
EndChar

StartChar: h.uy
Encoding: 267 -1 61
Width: 1200
GlyphClass: 3
Flags: HW
LayerCount: 2
Fore
SplineSet
676 1350 m 260,0,1
 676 1398 676 1398 694 1439 c 132,-1,2
 712 1480 712 1480 743 1511 c 132,-1,3
 774 1542 774 1542 815 1560 c 132,-1,4
 856 1578 856 1578 904 1578 c 260,5,6
 952 1578 952 1578 993 1560 c 132,-1,7
 1034 1542 1034 1542 1065 1511 c 132,-1,8
 1096 1480 1096 1480 1114 1439 c 132,-1,9
 1132 1398 1132 1398 1132 1350 c 260,10,11
 1132 1302 1132 1302 1114 1261 c 132,-1,12
 1096 1220 1096 1220 1065 1189 c 132,-1,13
 1034 1158 1034 1158 993 1140 c 132,-1,14
 952 1122 952 1122 904 1122 c 260,15,16
 856 1122 856 1122 815 1140 c 132,-1,17
 774 1158 774 1158 743 1189 c 132,-1,18
 712 1220 712 1220 694 1261 c 132,-1,19
 676 1302 676 1302 676 1350 c 260,0,1
754 1350 m 260,20,21
 754 1286 754 1286 797 1243 c 132,-1,22
 840 1200 840 1200 904 1200 c 260,23,24
 968 1200 968 1200 1012 1243 c 132,-1,25
 1056 1286 1056 1286 1056 1350 c 260,26,27
 1056 1414 1056 1414 1012 1458 c 132,-1,28
 968 1502 968 1502 904 1502 c 260,29,30
 840 1502 840 1502 797 1458 c 132,-1,31
 754 1414 754 1414 754 1350 c 260,20,21
1048 -84 m 5,0,1
 1032 -82 1032 -82 995 -65 c 132,-1,2
 958 -48 958 -48 920 -15 c 132,-1,3
 882 18 882 18 854 67 c 132,-1,4
 826 116 826 116 828 186 c 6,5,-1
 828 730 l 5,6,7
 756 658 756 658 696 601 c 132,-1,8
 636 544 636 544 581 506 c 132,-1,9
 526 468 526 468 471 448 c 132,-1,10
 416 428 416 428 352 428 c 4,11,12
 256 428 256 428 213 485 c 132,-1,13
 170 542 170 542 170 618 c 4,14,15
 170 628 170 628 175 653 c 132,-1,16
 180 678 180 678 195 705 c 132,-1,17
 210 732 210 732 237 757 c 132,-1,18
 264 782 264 782 308 792 c 4,19,20
 326 796 326 796 343 794 c 132,-1,21
 360 792 360 792 373 787 c 132,-1,22
 386 782 386 782 393 777 c 132,-1,23
 400 772 400 772 400 770 c 5,24,25
 340 792 340 792 307 760 c 132,-1,26
 274 728 274 728 274 674 c 4,27,28
 274 662 274 662 280 647 c 132,-1,29
 286 632 286 632 298 619 c 132,-1,30
 310 606 310 606 329 596 c 132,-1,31
 348 586 348 586 376 586 c 4,32,33
 426 586 426 586 484 603 c 132,-1,34
 542 620 542 620 601 657 c 132,-1,35
 660 694 660 694 718 754 c 132,-1,36
 776 814 776 814 828 900 c 5,37,-1
 1028 900 l 5,38,-1
 1028 186 l 6,39,40
 1028 154 1028 154 1028 116 c 132,-1,41
 1028 78 1028 78 1029 42 c 132,-1,42
 1030 6 1030 6 1034 -27 c 132,-1,43
 1038 -60 1038 -60 1048 -84 c 5,0,1
74 1110 m 4,0,1
 74 1170 74 1170 104 1218 c 132,-1,2
 134 1266 134 1266 192 1270 c 4,3,4
 224 1272 224 1272 245 1253 c 132,-1,5
 266 1234 266 1234 274 1207 c 132,-1,6
 282 1180 282 1180 273 1154 c 132,-1,7
 264 1128 264 1128 234 1116 c 5,8,9
 240 1104 240 1104 261 1099 c 132,-1,10
 282 1094 282 1094 302 1096 c 4,11,12
 342 1098 342 1098 386 1108 c 132,-1,13
 430 1118 430 1118 476 1140 c 132,-1,14
 522 1162 522 1162 568 1198 c 132,-1,15
 614 1234 614 1234 660 1290 c 5,16,17
 652 1206 652 1206 619 1141 c 132,-1,18
 586 1076 586 1076 536 1032 c 132,-1,19
 486 988 486 988 426 964 c 132,-1,20
 366 940 366 940 304 936 c 4,21,22
 256 932 256 932 214 946 c 132,-1,23
 172 960 172 960 141 984 c 132,-1,24
 110 1008 110 1008 92 1041 c 132,-1,25
 74 1074 74 1074 74 1110 c 4,0,1
EndSplineSet
Ligature2: "ccmp-1 subtable" period U quotesingle y
Ligature2: "ccmp-1 subtable" period U quotesingle Y
Ligature2: "ccmp-1 subtable" period u quotesingle y
Ligature2: "ccmp-1 subtable" period u quotesingle Y
Ligature2: "ccmp-0 subtable" period U quotesingle y
Ligature2: "ccmp-0 subtable" period U quotesingle Y
Ligature2: "ccmp-0 subtable" period u quotesingle y
Ligature2: "ccmp-0 subtable" period u quotesingle Y
Ligature2: "ccmp-1" period u quotesingle Y
Ligature2: "ccmp-1" period u quotesingle y
Ligature2: "ccmp-1" period U quotesingle Y
Ligature2: "ccmp-1" period U quotesingle y
EndChar

StartChar: h.ey
Encoding: 268 -1 62
Width: 1200
GlyphClass: 3
Flags: HW
LayerCount: 2
Fore
SplineSet
492 1048 m 5,0,1
 372 1050 372 1050 290 1049 c 132,-1,2
 208 1048 208 1048 155 1046 c 132,-1,3
 102 1044 102 1044 73 1041 c 132,-1,4
 44 1038 44 1038 30 1034 c 132,-1,5
 16 1030 16 1030 12 1027 c 132,-1,6
 8 1024 8 1024 4 1022 c 6,7,-1
 86 1224 l 5,8,-1
 534 1224 l 5,9,-1
 492 1048 l 5,0,1
676 1350 m 260,0,1
 676 1398 676 1398 694 1439 c 132,-1,2
 712 1480 712 1480 743 1511 c 132,-1,3
 774 1542 774 1542 815 1560 c 132,-1,4
 856 1578 856 1578 904 1578 c 260,5,6
 952 1578 952 1578 993 1560 c 132,-1,7
 1034 1542 1034 1542 1065 1511 c 132,-1,8
 1096 1480 1096 1480 1114 1439 c 132,-1,9
 1132 1398 1132 1398 1132 1350 c 260,10,11
 1132 1302 1132 1302 1114 1261 c 132,-1,12
 1096 1220 1096 1220 1065 1189 c 132,-1,13
 1034 1158 1034 1158 993 1140 c 132,-1,14
 952 1122 952 1122 904 1122 c 260,15,16
 856 1122 856 1122 815 1140 c 132,-1,17
 774 1158 774 1158 743 1189 c 132,-1,18
 712 1220 712 1220 694 1261 c 132,-1,19
 676 1302 676 1302 676 1350 c 260,0,1
754 1350 m 260,20,21
 754 1286 754 1286 797 1243 c 132,-1,22
 840 1200 840 1200 904 1200 c 260,23,24
 968 1200 968 1200 1012 1243 c 132,-1,25
 1056 1286 1056 1286 1056 1350 c 260,26,27
 1056 1414 1056 1414 1012 1458 c 132,-1,28
 968 1502 968 1502 904 1502 c 260,29,30
 840 1502 840 1502 797 1458 c 132,-1,31
 754 1414 754 1414 754 1350 c 260,20,21
1048 -84 m 5,0,1
 1032 -82 1032 -82 995 -65 c 132,-1,2
 958 -48 958 -48 920 -15 c 132,-1,3
 882 18 882 18 854 67 c 132,-1,4
 826 116 826 116 828 186 c 6,5,-1
 828 730 l 5,6,7
 756 658 756 658 696 601 c 132,-1,8
 636 544 636 544 581 506 c 132,-1,9
 526 468 526 468 471 448 c 132,-1,10
 416 428 416 428 352 428 c 4,11,12
 256 428 256 428 213 485 c 132,-1,13
 170 542 170 542 170 618 c 4,14,15
 170 628 170 628 175 653 c 132,-1,16
 180 678 180 678 195 705 c 132,-1,17
 210 732 210 732 237 757 c 132,-1,18
 264 782 264 782 308 792 c 4,19,20
 326 796 326 796 343 794 c 132,-1,21
 360 792 360 792 373 787 c 132,-1,22
 386 782 386 782 393 777 c 132,-1,23
 400 772 400 772 400 770 c 5,24,25
 340 792 340 792 307 760 c 132,-1,26
 274 728 274 728 274 674 c 4,27,28
 274 662 274 662 280 647 c 132,-1,29
 286 632 286 632 298 619 c 132,-1,30
 310 606 310 606 329 596 c 132,-1,31
 348 586 348 586 376 586 c 4,32,33
 426 586 426 586 484 603 c 132,-1,34
 542 620 542 620 601 657 c 132,-1,35
 660 694 660 694 718 754 c 132,-1,36
 776 814 776 814 828 900 c 5,37,-1
 1028 900 l 5,38,-1
 1028 186 l 6,39,40
 1028 154 1028 154 1028 116 c 132,-1,41
 1028 78 1028 78 1029 42 c 132,-1,42
 1030 6 1030 6 1034 -27 c 132,-1,43
 1038 -60 1038 -60 1048 -84 c 5,0,1
EndSplineSet
Ligature2: "ccmp-1 subtable" period E quotesingle Y
Ligature2: "ccmp-1 subtable" period E quotesingle y
Ligature2: "ccmp-1 subtable" period e quotesingle y
Ligature2: "ccmp-1 subtable" period e quotesingle Y
Ligature2: "ccmp-0 subtable" period E quotesingle Y
Ligature2: "ccmp-0 subtable" period E quotesingle y
Ligature2: "ccmp-0 subtable" period e quotesingle y
Ligature2: "ccmp-0 subtable" period e quotesingle Y
Ligature2: "ccmp-1" period e quotesingle Y
Ligature2: "ccmp-1" period e quotesingle y
Ligature2: "ccmp-1" period E quotesingle y
Ligature2: "ccmp-1" period E quotesingle Y
EndChar

StartChar: h.iy
Encoding: 269 -1 63
Width: 1200
GlyphClass: 3
Flags: HW
LayerCount: 2
Fore
SplineSet
162 1130 m 4,0,1
 162 1188 162 1188 203 1229 c 132,-1,2
 244 1270 244 1270 300 1270 c 4,3,4
 358 1270 358 1270 399 1229 c 132,-1,5
 440 1188 440 1188 440 1130 c 4,6,7
 440 1074 440 1074 399 1033 c 132,-1,8
 358 992 358 992 300 992 c 4,9,10
 244 992 244 992 203 1033 c 132,-1,11
 162 1074 162 1074 162 1130 c 4,0,1
676 1350 m 260,0,1
 676 1398 676 1398 694 1439 c 132,-1,2
 712 1480 712 1480 743 1511 c 132,-1,3
 774 1542 774 1542 815 1560 c 132,-1,4
 856 1578 856 1578 904 1578 c 260,5,6
 952 1578 952 1578 993 1560 c 132,-1,7
 1034 1542 1034 1542 1065 1511 c 132,-1,8
 1096 1480 1096 1480 1114 1439 c 132,-1,9
 1132 1398 1132 1398 1132 1350 c 260,10,11
 1132 1302 1132 1302 1114 1261 c 132,-1,12
 1096 1220 1096 1220 1065 1189 c 132,-1,13
 1034 1158 1034 1158 993 1140 c 132,-1,14
 952 1122 952 1122 904 1122 c 260,15,16
 856 1122 856 1122 815 1140 c 132,-1,17
 774 1158 774 1158 743 1189 c 132,-1,18
 712 1220 712 1220 694 1261 c 132,-1,19
 676 1302 676 1302 676 1350 c 260,0,1
754 1350 m 260,20,21
 754 1286 754 1286 797 1243 c 132,-1,22
 840 1200 840 1200 904 1200 c 260,23,24
 968 1200 968 1200 1012 1243 c 132,-1,25
 1056 1286 1056 1286 1056 1350 c 260,26,27
 1056 1414 1056 1414 1012 1458 c 132,-1,28
 968 1502 968 1502 904 1502 c 260,29,30
 840 1502 840 1502 797 1458 c 132,-1,31
 754 1414 754 1414 754 1350 c 260,20,21
1048 -84 m 5,0,1
 1032 -82 1032 -82 995 -65 c 132,-1,2
 958 -48 958 -48 920 -15 c 132,-1,3
 882 18 882 18 854 67 c 132,-1,4
 826 116 826 116 828 186 c 6,5,-1
 828 730 l 5,6,7
 756 658 756 658 696 601 c 132,-1,8
 636 544 636 544 581 506 c 132,-1,9
 526 468 526 468 471 448 c 132,-1,10
 416 428 416 428 352 428 c 4,11,12
 256 428 256 428 213 485 c 132,-1,13
 170 542 170 542 170 618 c 4,14,15
 170 628 170 628 175 653 c 132,-1,16
 180 678 180 678 195 705 c 132,-1,17
 210 732 210 732 237 757 c 132,-1,18
 264 782 264 782 308 792 c 4,19,20
 326 796 326 796 343 794 c 132,-1,21
 360 792 360 792 373 787 c 132,-1,22
 386 782 386 782 393 777 c 132,-1,23
 400 772 400 772 400 770 c 5,24,25
 340 792 340 792 307 760 c 132,-1,26
 274 728 274 728 274 674 c 4,27,28
 274 662 274 662 280 647 c 132,-1,29
 286 632 286 632 298 619 c 132,-1,30
 310 606 310 606 329 596 c 132,-1,31
 348 586 348 586 376 586 c 4,32,33
 426 586 426 586 484 603 c 132,-1,34
 542 620 542 620 601 657 c 132,-1,35
 660 694 660 694 718 754 c 132,-1,36
 776 814 776 814 828 900 c 5,37,-1
 1028 900 l 5,38,-1
 1028 186 l 6,39,40
 1028 154 1028 154 1028 116 c 132,-1,41
 1028 78 1028 78 1029 42 c 132,-1,42
 1030 6 1030 6 1034 -27 c 132,-1,43
 1038 -60 1038 -60 1048 -84 c 5,0,1
EndSplineSet
Ligature2: "ccmp-1 subtable" period i quotesingle y
Ligature2: "ccmp-1 subtable" period i quotesingle Y
Ligature2: "ccmp-1 subtable" period I quotesingle y
Ligature2: "ccmp-1 subtable" period I quotesingle Y
Ligature2: "ccmp-0 subtable" period i quotesingle y
Ligature2: "ccmp-0 subtable" period i quotesingle Y
Ligature2: "ccmp-0 subtable" period I quotesingle y
Ligature2: "ccmp-0 subtable" period I quotesingle Y
Ligature2: "ccmp-1" period I quotesingle Y
Ligature2: "ccmp-1" period I quotesingle y
Ligature2: "ccmp-1" period i quotesingle Y
Ligature2: "ccmp-1" period i quotesingle y
EndChar

StartChar: h.oy
Encoding: 270 -1 64
Width: 1200
GlyphClass: 3
Flags: HW
LayerCount: 2
Fore
SplineSet
676 1350 m 260,0,1
 676 1398 676 1398 694 1439 c 132,-1,2
 712 1480 712 1480 743 1511 c 132,-1,3
 774 1542 774 1542 815 1560 c 132,-1,4
 856 1578 856 1578 904 1578 c 260,5,6
 952 1578 952 1578 993 1560 c 132,-1,7
 1034 1542 1034 1542 1065 1511 c 132,-1,8
 1096 1480 1096 1480 1114 1439 c 132,-1,9
 1132 1398 1132 1398 1132 1350 c 260,10,11
 1132 1302 1132 1302 1114 1261 c 132,-1,12
 1096 1220 1096 1220 1065 1189 c 132,-1,13
 1034 1158 1034 1158 993 1140 c 132,-1,14
 952 1122 952 1122 904 1122 c 260,15,16
 856 1122 856 1122 815 1140 c 132,-1,17
 774 1158 774 1158 743 1189 c 132,-1,18
 712 1220 712 1220 694 1261 c 132,-1,19
 676 1302 676 1302 676 1350 c 260,0,1
754 1350 m 260,20,21
 754 1286 754 1286 797 1243 c 132,-1,22
 840 1200 840 1200 904 1200 c 260,23,24
 968 1200 968 1200 1012 1243 c 132,-1,25
 1056 1286 1056 1286 1056 1350 c 260,26,27
 1056 1414 1056 1414 1012 1458 c 132,-1,28
 968 1502 968 1502 904 1502 c 260,29,30
 840 1502 840 1502 797 1458 c 132,-1,31
 754 1414 754 1414 754 1350 c 260,20,21
516 1322 m 5,0,1
 478 1272 478 1272 440 1211 c 132,-1,2
 402 1150 402 1150 367 1086 c 132,-1,3
 332 1022 332 1022 304 961 c 132,-1,4
 276 900 276 900 260 852 c 5,5,-1
 102 852 l 5,6,7
 118 978 118 978 81 1080 c 132,-1,8
 44 1182 44 1182 -40 1232 c 5,9,-1
 132 1232 l 5,10,11
 174 1220 174 1220 194 1184 c 132,-1,12
 214 1148 214 1148 232 1088 c 5,13,14
 262 1132 262 1132 288 1173 c 132,-1,15
 314 1214 314 1214 345 1245 c 132,-1,16
 376 1276 376 1276 416 1296 c 132,-1,17
 456 1316 456 1316 516 1322 c 5,0,1
1048 -84 m 5,0,1
 1032 -82 1032 -82 995 -65 c 132,-1,2
 958 -48 958 -48 920 -15 c 132,-1,3
 882 18 882 18 854 67 c 132,-1,4
 826 116 826 116 828 186 c 6,5,-1
 828 730 l 5,6,7
 756 658 756 658 696 601 c 132,-1,8
 636 544 636 544 581 506 c 132,-1,9
 526 468 526 468 471 448 c 132,-1,10
 416 428 416 428 352 428 c 4,11,12
 256 428 256 428 213 485 c 132,-1,13
 170 542 170 542 170 618 c 4,14,15
 170 628 170 628 175 653 c 132,-1,16
 180 678 180 678 195 705 c 132,-1,17
 210 732 210 732 237 757 c 132,-1,18
 264 782 264 782 308 792 c 4,19,20
 326 796 326 796 343 794 c 132,-1,21
 360 792 360 792 373 787 c 132,-1,22
 386 782 386 782 393 777 c 132,-1,23
 400 772 400 772 400 770 c 5,24,25
 340 792 340 792 307 760 c 132,-1,26
 274 728 274 728 274 674 c 4,27,28
 274 662 274 662 280 647 c 132,-1,29
 286 632 286 632 298 619 c 132,-1,30
 310 606 310 606 329 596 c 132,-1,31
 348 586 348 586 376 586 c 4,32,33
 426 586 426 586 484 603 c 132,-1,34
 542 620 542 620 601 657 c 132,-1,35
 660 694 660 694 718 754 c 132,-1,36
 776 814 776 814 828 900 c 5,37,-1
 1028 900 l 5,38,-1
 1028 186 l 6,39,40
 1028 154 1028 154 1028 116 c 132,-1,41
 1028 78 1028 78 1029 42 c 132,-1,42
 1030 6 1030 6 1034 -27 c 132,-1,43
 1038 -60 1038 -60 1048 -84 c 5,0,1
EndSplineSet
Ligature2: "ccmp-1 subtable" period O quotesingle Y
Ligature2: "ccmp-1 subtable" period O quotesingle y
Ligature2: "ccmp-1 subtable" period o quotesingle Y
Ligature2: "ccmp-1 subtable" period o quotesingle y
Ligature2: "ccmp-0 subtable" period O quotesingle Y
Ligature2: "ccmp-0 subtable" period O quotesingle y
Ligature2: "ccmp-0 subtable" period o quotesingle Y
Ligature2: "ccmp-0 subtable" period o quotesingle y
Ligature2: "ccmp-1" period o quotesingle y
Ligature2: "ccmp-1" period o quotesingle Y
Ligature2: "ccmp-1" period O quotesingle y
Ligature2: "ccmp-1" period O quotesingle Y
EndChar

StartChar: h.ay
Encoding: 271 -1 65
Width: 1200
GlyphClass: 3
Flags: HW
LayerCount: 2
Fore
SplineSet
380 1160 m 6,0,1
 380 1092 380 1092 380 1046 c 132,-1,2
 380 1000 380 1000 379 969 c 132,-1,3
 378 938 378 938 378 920 c 132,-1,4
 378 902 378 902 378 890 c 5,5,6
 352 898 352 898 318 916 c 132,-1,7
 284 934 284 934 253 966 c 132,-1,8
 222 998 222 998 201 1045 c 132,-1,9
 180 1092 180 1092 180 1160 c 6,10,-1
 180 1402 l 5,11,-1
 380 1402 l 5,12,-1
 380 1160 l 6,0,1
676 1350 m 260,0,1
 676 1398 676 1398 694 1439 c 132,-1,2
 712 1480 712 1480 743 1511 c 132,-1,3
 774 1542 774 1542 815 1560 c 132,-1,4
 856 1578 856 1578 904 1578 c 260,5,6
 952 1578 952 1578 993 1560 c 132,-1,7
 1034 1542 1034 1542 1065 1511 c 132,-1,8
 1096 1480 1096 1480 1114 1439 c 132,-1,9
 1132 1398 1132 1398 1132 1350 c 260,10,11
 1132 1302 1132 1302 1114 1261 c 132,-1,12
 1096 1220 1096 1220 1065 1189 c 132,-1,13
 1034 1158 1034 1158 993 1140 c 132,-1,14
 952 1122 952 1122 904 1122 c 260,15,16
 856 1122 856 1122 815 1140 c 132,-1,17
 774 1158 774 1158 743 1189 c 132,-1,18
 712 1220 712 1220 694 1261 c 132,-1,19
 676 1302 676 1302 676 1350 c 260,0,1
754 1350 m 260,20,21
 754 1286 754 1286 797 1243 c 132,-1,22
 840 1200 840 1200 904 1200 c 260,23,24
 968 1200 968 1200 1012 1243 c 132,-1,25
 1056 1286 1056 1286 1056 1350 c 260,26,27
 1056 1414 1056 1414 1012 1458 c 132,-1,28
 968 1502 968 1502 904 1502 c 260,29,30
 840 1502 840 1502 797 1458 c 132,-1,31
 754 1414 754 1414 754 1350 c 260,20,21
1048 -84 m 5,0,1
 1032 -82 1032 -82 995 -65 c 132,-1,2
 958 -48 958 -48 920 -15 c 132,-1,3
 882 18 882 18 854 67 c 132,-1,4
 826 116 826 116 828 186 c 6,5,-1
 828 730 l 5,6,7
 756 658 756 658 696 601 c 132,-1,8
 636 544 636 544 581 506 c 132,-1,9
 526 468 526 468 471 448 c 132,-1,10
 416 428 416 428 352 428 c 4,11,12
 256 428 256 428 213 485 c 132,-1,13
 170 542 170 542 170 618 c 4,14,15
 170 628 170 628 175 653 c 132,-1,16
 180 678 180 678 195 705 c 132,-1,17
 210 732 210 732 237 757 c 132,-1,18
 264 782 264 782 308 792 c 4,19,20
 326 796 326 796 343 794 c 132,-1,21
 360 792 360 792 373 787 c 132,-1,22
 386 782 386 782 393 777 c 132,-1,23
 400 772 400 772 400 770 c 5,24,25
 340 792 340 792 307 760 c 132,-1,26
 274 728 274 728 274 674 c 4,27,28
 274 662 274 662 280 647 c 132,-1,29
 286 632 286 632 298 619 c 132,-1,30
 310 606 310 606 329 596 c 132,-1,31
 348 586 348 586 376 586 c 4,32,33
 426 586 426 586 484 603 c 132,-1,34
 542 620 542 620 601 657 c 132,-1,35
 660 694 660 694 718 754 c 132,-1,36
 776 814 776 814 828 900 c 5,37,-1
 1028 900 l 5,38,-1
 1028 186 l 6,39,40
 1028 154 1028 154 1028 116 c 132,-1,41
 1028 78 1028 78 1029 42 c 132,-1,42
 1030 6 1030 6 1034 -27 c 132,-1,43
 1038 -60 1038 -60 1048 -84 c 5,0,1
EndSplineSet
Ligature2: "ccmp-1 subtable" period A quotesingle Y
Ligature2: "ccmp-1 subtable" period A quotesingle y
Ligature2: "ccmp-1 subtable" period a quotesingle y
Ligature2: "ccmp-1 subtable" period a quotesingle Y
Ligature2: "ccmp-0 subtable" period A quotesingle Y
Ligature2: "ccmp-0 subtable" period A quotesingle y
Ligature2: "ccmp-0 subtable" period a quotesingle y
Ligature2: "ccmp-0 subtable" period a quotesingle Y
Ligature2: "ccmp-1" period a quotesingle Y
Ligature2: "ccmp-1" period a quotesingle y
Ligature2: "ccmp-1" period A quotesingle y
Ligature2: "ccmp-1" period A quotesingle Y
EndChar

StartChar: h.uu
Encoding: 272 -1 66
Width: 1200
GlyphClass: 3
Flags: HW
LayerCount: 2
Fore
SplineSet
1048 -84 m 5,0,1
 1032 -82 1032 -82 995 -65 c 132,-1,2
 958 -48 958 -48 920 -15 c 132,-1,3
 882 18 882 18 854 67 c 132,-1,4
 826 116 826 116 828 186 c 6,5,-1
 828 730 l 5,6,7
 756 658 756 658 696 601 c 132,-1,8
 636 544 636 544 581 506 c 132,-1,9
 526 468 526 468 471 448 c 132,-1,10
 416 428 416 428 352 428 c 4,11,12
 256 428 256 428 213 485 c 132,-1,13
 170 542 170 542 170 618 c 4,14,15
 170 628 170 628 175 653 c 132,-1,16
 180 678 180 678 195 705 c 132,-1,17
 210 732 210 732 237 757 c 132,-1,18
 264 782 264 782 308 792 c 4,19,20
 326 796 326 796 343 794 c 132,-1,21
 360 792 360 792 373 787 c 132,-1,22
 386 782 386 782 393 777 c 132,-1,23
 400 772 400 772 400 770 c 5,24,25
 340 792 340 792 307 760 c 132,-1,26
 274 728 274 728 274 674 c 4,27,28
 274 662 274 662 280 647 c 132,-1,29
 286 632 286 632 298 619 c 132,-1,30
 310 606 310 606 329 596 c 132,-1,31
 348 586 348 586 376 586 c 4,32,33
 426 586 426 586 484 603 c 132,-1,34
 542 620 542 620 601 657 c 132,-1,35
 660 694 660 694 718 754 c 132,-1,36
 776 814 776 814 828 900 c 5,37,-1
 1028 900 l 5,38,-1
 1028 186 l 6,39,40
 1028 154 1028 154 1028 116 c 132,-1,41
 1028 78 1028 78 1029 42 c 132,-1,42
 1030 6 1030 6 1034 -27 c 132,-1,43
 1038 -60 1038 -60 1048 -84 c 5,0,1
634 1310 m 4,0,1
 634 1370 634 1370 664 1418 c 132,-1,2
 694 1466 694 1466 752 1470 c 4,3,4
 784 1472 784 1472 805 1453 c 132,-1,5
 826 1434 826 1434 834 1407 c 132,-1,6
 842 1380 842 1380 833 1354 c 132,-1,7
 824 1328 824 1328 794 1316 c 5,8,9
 800 1304 800 1304 821 1299 c 132,-1,10
 842 1294 842 1294 862 1296 c 4,11,12
 902 1298 902 1298 946 1308 c 132,-1,13
 990 1318 990 1318 1036 1340 c 132,-1,14
 1082 1362 1082 1362 1128 1398 c 132,-1,15
 1174 1434 1174 1434 1220 1490 c 5,16,17
 1212 1406 1212 1406 1179 1341 c 132,-1,18
 1146 1276 1146 1276 1096 1232 c 132,-1,19
 1046 1188 1046 1188 986 1164 c 132,-1,20
 926 1140 926 1140 864 1136 c 4,21,22
 816 1132 816 1132 774 1146 c 132,-1,23
 732 1160 732 1160 701 1184 c 132,-1,24
 670 1208 670 1208 652 1241 c 132,-1,25
 634 1274 634 1274 634 1310 c 4,0,1
174 1110 m 4,0,1
 174 1170 174 1170 204 1218 c 132,-1,2
 234 1266 234 1266 292 1270 c 4,3,4
 324 1272 324 1272 345 1253 c 132,-1,5
 366 1234 366 1234 374 1207 c 132,-1,6
 382 1180 382 1180 373 1154 c 132,-1,7
 364 1128 364 1128 334 1116 c 5,8,9
 340 1104 340 1104 361 1099 c 132,-1,10
 382 1094 382 1094 402 1096 c 4,11,12
 442 1098 442 1098 486 1108 c 132,-1,13
 530 1118 530 1118 576 1140 c 132,-1,14
 622 1162 622 1162 668 1198 c 132,-1,15
 714 1234 714 1234 760 1290 c 5,16,17
 752 1206 752 1206 719 1141 c 132,-1,18
 686 1076 686 1076 636 1032 c 132,-1,19
 586 988 586 988 526 964 c 132,-1,20
 466 940 466 940 404 936 c 4,21,22
 356 932 356 932 314 946 c 132,-1,23
 272 960 272 960 241 984 c 132,-1,24
 210 1008 210 1008 192 1041 c 132,-1,25
 174 1074 174 1074 174 1110 c 4,0,1
EndSplineSet
Ligature2: "ccmp-1 subtable" period U quotesingle u
Ligature2: "ccmp-1 subtable" period U quotesingle U
Ligature2: "ccmp-1 subtable" period u quotesingle U
Ligature2: "ccmp-1 subtable" period u quotesingle u
Ligature2: "ccmp-0 subtable" period U quotesingle u
Ligature2: "ccmp-0 subtable" period U quotesingle U
Ligature2: "ccmp-0 subtable" period u quotesingle U
Ligature2: "ccmp-0 subtable" period u quotesingle u
Ligature2: "ccmp-1" period u quotesingle u
Ligature2: "ccmp-1" period u quotesingle U
Ligature2: "ccmp-1" period U quotesingle U
Ligature2: "ccmp-1" period U quotesingle u
EndChar

StartChar: h.eu
Encoding: 273 -1 67
Width: 1200
GlyphClass: 3
Flags: HW
LayerCount: 2
Fore
SplineSet
492 1048 m 5,0,1
 372 1050 372 1050 290 1049 c 132,-1,2
 208 1048 208 1048 155 1046 c 132,-1,3
 102 1044 102 1044 73 1041 c 132,-1,4
 44 1038 44 1038 30 1034 c 132,-1,5
 16 1030 16 1030 12 1027 c 132,-1,6
 8 1024 8 1024 4 1022 c 6,7,-1
 86 1224 l 5,8,-1
 534 1224 l 5,9,-1
 492 1048 l 5,0,1
1048 -84 m 5,0,1
 1032 -82 1032 -82 995 -65 c 132,-1,2
 958 -48 958 -48 920 -15 c 132,-1,3
 882 18 882 18 854 67 c 132,-1,4
 826 116 826 116 828 186 c 6,5,-1
 828 730 l 5,6,7
 756 658 756 658 696 601 c 132,-1,8
 636 544 636 544 581 506 c 132,-1,9
 526 468 526 468 471 448 c 132,-1,10
 416 428 416 428 352 428 c 4,11,12
 256 428 256 428 213 485 c 132,-1,13
 170 542 170 542 170 618 c 4,14,15
 170 628 170 628 175 653 c 132,-1,16
 180 678 180 678 195 705 c 132,-1,17
 210 732 210 732 237 757 c 132,-1,18
 264 782 264 782 308 792 c 4,19,20
 326 796 326 796 343 794 c 132,-1,21
 360 792 360 792 373 787 c 132,-1,22
 386 782 386 782 393 777 c 132,-1,23
 400 772 400 772 400 770 c 5,24,25
 340 792 340 792 307 760 c 132,-1,26
 274 728 274 728 274 674 c 4,27,28
 274 662 274 662 280 647 c 132,-1,29
 286 632 286 632 298 619 c 132,-1,30
 310 606 310 606 329 596 c 132,-1,31
 348 586 348 586 376 586 c 4,32,33
 426 586 426 586 484 603 c 132,-1,34
 542 620 542 620 601 657 c 132,-1,35
 660 694 660 694 718 754 c 132,-1,36
 776 814 776 814 828 900 c 5,37,-1
 1028 900 l 5,38,-1
 1028 186 l 6,39,40
 1028 154 1028 154 1028 116 c 132,-1,41
 1028 78 1028 78 1029 42 c 132,-1,42
 1030 6 1030 6 1034 -27 c 132,-1,43
 1038 -60 1038 -60 1048 -84 c 5,0,1
674 1290 m 4,0,1
 674 1350 674 1350 704 1398 c 132,-1,2
 734 1446 734 1446 792 1450 c 4,3,4
 824 1452 824 1452 845 1433 c 132,-1,5
 866 1414 866 1414 874 1387 c 132,-1,6
 882 1360 882 1360 873 1334 c 132,-1,7
 864 1308 864 1308 834 1296 c 5,8,9
 840 1284 840 1284 861 1279 c 132,-1,10
 882 1274 882 1274 902 1276 c 4,11,12
 942 1278 942 1278 986 1288 c 132,-1,13
 1030 1298 1030 1298 1076 1320 c 132,-1,14
 1122 1342 1122 1342 1168 1378 c 132,-1,15
 1214 1414 1214 1414 1260 1470 c 5,16,17
 1252 1386 1252 1386 1219 1321 c 132,-1,18
 1186 1256 1186 1256 1136 1212 c 132,-1,19
 1086 1168 1086 1168 1026 1144 c 132,-1,20
 966 1120 966 1120 904 1116 c 4,21,22
 856 1112 856 1112 814 1126 c 132,-1,23
 772 1140 772 1140 741 1164 c 132,-1,24
 710 1188 710 1188 692 1221 c 132,-1,25
 674 1254 674 1254 674 1290 c 4,0,1
EndSplineSet
Ligature2: "ccmp-1 subtable" period E quotesingle U
Ligature2: "ccmp-1 subtable" period E quotesingle u
Ligature2: "ccmp-1 subtable" period e quotesingle u
Ligature2: "ccmp-1 subtable" period e quotesingle U
Ligature2: "ccmp-0 subtable" period E quotesingle U
Ligature2: "ccmp-0 subtable" period E quotesingle u
Ligature2: "ccmp-0 subtable" period e quotesingle u
Ligature2: "ccmp-0 subtable" period e quotesingle U
Ligature2: "ccmp-1" period e quotesingle U
Ligature2: "ccmp-1" period e quotesingle u
Ligature2: "ccmp-1" period E quotesingle u
Ligature2: "ccmp-1" period E quotesingle U
EndChar

StartChar: h.iu
Encoding: 274 -1 68
Width: 1200
GlyphClass: 3
Flags: HW
LayerCount: 2
Fore
SplineSet
42 1130 m 4,0,1
 42 1188 42 1188 83 1229 c 132,-1,2
 124 1270 124 1270 180 1270 c 4,3,4
 238 1270 238 1270 279 1229 c 132,-1,5
 320 1188 320 1188 320 1130 c 4,6,7
 320 1074 320 1074 279 1033 c 132,-1,8
 238 992 238 992 180 992 c 4,9,10
 124 992 124 992 83 1033 c 132,-1,11
 42 1074 42 1074 42 1130 c 4,0,1
1048 -84 m 5,0,1
 1032 -82 1032 -82 995 -65 c 132,-1,2
 958 -48 958 -48 920 -15 c 132,-1,3
 882 18 882 18 854 67 c 132,-1,4
 826 116 826 116 828 186 c 6,5,-1
 828 730 l 5,6,7
 756 658 756 658 696 601 c 132,-1,8
 636 544 636 544 581 506 c 132,-1,9
 526 468 526 468 471 448 c 132,-1,10
 416 428 416 428 352 428 c 4,11,12
 256 428 256 428 213 485 c 132,-1,13
 170 542 170 542 170 618 c 4,14,15
 170 628 170 628 175 653 c 132,-1,16
 180 678 180 678 195 705 c 132,-1,17
 210 732 210 732 237 757 c 132,-1,18
 264 782 264 782 308 792 c 4,19,20
 326 796 326 796 343 794 c 132,-1,21
 360 792 360 792 373 787 c 132,-1,22
 386 782 386 782 393 777 c 132,-1,23
 400 772 400 772 400 770 c 5,24,25
 340 792 340 792 307 760 c 132,-1,26
 274 728 274 728 274 674 c 4,27,28
 274 662 274 662 280 647 c 132,-1,29
 286 632 286 632 298 619 c 132,-1,30
 310 606 310 606 329 596 c 132,-1,31
 348 586 348 586 376 586 c 4,32,33
 426 586 426 586 484 603 c 132,-1,34
 542 620 542 620 601 657 c 132,-1,35
 660 694 660 694 718 754 c 132,-1,36
 776 814 776 814 828 900 c 5,37,-1
 1028 900 l 5,38,-1
 1028 186 l 6,39,40
 1028 154 1028 154 1028 116 c 132,-1,41
 1028 78 1028 78 1029 42 c 132,-1,42
 1030 6 1030 6 1034 -27 c 132,-1,43
 1038 -60 1038 -60 1048 -84 c 5,0,1
674 1290 m 4,0,1
 674 1350 674 1350 704 1398 c 132,-1,2
 734 1446 734 1446 792 1450 c 4,3,4
 824 1452 824 1452 845 1433 c 132,-1,5
 866 1414 866 1414 874 1387 c 132,-1,6
 882 1360 882 1360 873 1334 c 132,-1,7
 864 1308 864 1308 834 1296 c 5,8,9
 840 1284 840 1284 861 1279 c 132,-1,10
 882 1274 882 1274 902 1276 c 4,11,12
 942 1278 942 1278 986 1288 c 132,-1,13
 1030 1298 1030 1298 1076 1320 c 132,-1,14
 1122 1342 1122 1342 1168 1378 c 132,-1,15
 1214 1414 1214 1414 1260 1470 c 5,16,17
 1252 1386 1252 1386 1219 1321 c 132,-1,18
 1186 1256 1186 1256 1136 1212 c 132,-1,19
 1086 1168 1086 1168 1026 1144 c 132,-1,20
 966 1120 966 1120 904 1116 c 4,21,22
 856 1112 856 1112 814 1126 c 132,-1,23
 772 1140 772 1140 741 1164 c 132,-1,24
 710 1188 710 1188 692 1221 c 132,-1,25
 674 1254 674 1254 674 1290 c 4,0,1
EndSplineSet
Ligature2: "ccmp-1 subtable" period I quotesingle U
Ligature2: "ccmp-1 subtable" period I quotesingle u
Ligature2: "ccmp-1 subtable" period i quotesingle U
Ligature2: "ccmp-1 subtable" period i quotesingle u
Ligature2: "ccmp-0 subtable" period I quotesingle U
Ligature2: "ccmp-0 subtable" period I quotesingle u
Ligature2: "ccmp-0 subtable" period i quotesingle U
Ligature2: "ccmp-0 subtable" period i quotesingle u
Ligature2: "ccmp-1" period i quotesingle u
Ligature2: "ccmp-1" period i quotesingle U
Ligature2: "ccmp-1" period I quotesingle u
Ligature2: "ccmp-1" period I quotesingle U
EndChar

StartChar: h.ou
Encoding: 275 -1 69
Width: 1200
GlyphClass: 3
Flags: HW
LayerCount: 2
Fore
SplineSet
516 1322 m 5,0,1
 478 1272 478 1272 440 1211 c 132,-1,2
 402 1150 402 1150 367 1086 c 132,-1,3
 332 1022 332 1022 304 961 c 132,-1,4
 276 900 276 900 260 852 c 5,5,-1
 102 852 l 5,6,7
 118 978 118 978 81 1080 c 132,-1,8
 44 1182 44 1182 -40 1232 c 5,9,-1
 132 1232 l 5,10,11
 174 1220 174 1220 194 1184 c 132,-1,12
 214 1148 214 1148 232 1088 c 5,13,14
 262 1132 262 1132 288 1173 c 132,-1,15
 314 1214 314 1214 345 1245 c 132,-1,16
 376 1276 376 1276 416 1296 c 132,-1,17
 456 1316 456 1316 516 1322 c 5,0,1
1048 -84 m 5,0,1
 1032 -82 1032 -82 995 -65 c 132,-1,2
 958 -48 958 -48 920 -15 c 132,-1,3
 882 18 882 18 854 67 c 132,-1,4
 826 116 826 116 828 186 c 6,5,-1
 828 730 l 5,6,7
 756 658 756 658 696 601 c 132,-1,8
 636 544 636 544 581 506 c 132,-1,9
 526 468 526 468 471 448 c 132,-1,10
 416 428 416 428 352 428 c 4,11,12
 256 428 256 428 213 485 c 132,-1,13
 170 542 170 542 170 618 c 4,14,15
 170 628 170 628 175 653 c 132,-1,16
 180 678 180 678 195 705 c 132,-1,17
 210 732 210 732 237 757 c 132,-1,18
 264 782 264 782 308 792 c 4,19,20
 326 796 326 796 343 794 c 132,-1,21
 360 792 360 792 373 787 c 132,-1,22
 386 782 386 782 393 777 c 132,-1,23
 400 772 400 772 400 770 c 5,24,25
 340 792 340 792 307 760 c 132,-1,26
 274 728 274 728 274 674 c 4,27,28
 274 662 274 662 280 647 c 132,-1,29
 286 632 286 632 298 619 c 132,-1,30
 310 606 310 606 329 596 c 132,-1,31
 348 586 348 586 376 586 c 4,32,33
 426 586 426 586 484 603 c 132,-1,34
 542 620 542 620 601 657 c 132,-1,35
 660 694 660 694 718 754 c 132,-1,36
 776 814 776 814 828 900 c 5,37,-1
 1028 900 l 5,38,-1
 1028 186 l 6,39,40
 1028 154 1028 154 1028 116 c 132,-1,41
 1028 78 1028 78 1029 42 c 132,-1,42
 1030 6 1030 6 1034 -27 c 132,-1,43
 1038 -60 1038 -60 1048 -84 c 5,0,1
674 1290 m 4,0,1
 674 1350 674 1350 704 1398 c 132,-1,2
 734 1446 734 1446 792 1450 c 4,3,4
 824 1452 824 1452 845 1433 c 132,-1,5
 866 1414 866 1414 874 1387 c 132,-1,6
 882 1360 882 1360 873 1334 c 132,-1,7
 864 1308 864 1308 834 1296 c 5,8,9
 840 1284 840 1284 861 1279 c 132,-1,10
 882 1274 882 1274 902 1276 c 4,11,12
 942 1278 942 1278 986 1288 c 132,-1,13
 1030 1298 1030 1298 1076 1320 c 132,-1,14
 1122 1342 1122 1342 1168 1378 c 132,-1,15
 1214 1414 1214 1414 1260 1470 c 5,16,17
 1252 1386 1252 1386 1219 1321 c 132,-1,18
 1186 1256 1186 1256 1136 1212 c 132,-1,19
 1086 1168 1086 1168 1026 1144 c 132,-1,20
 966 1120 966 1120 904 1116 c 4,21,22
 856 1112 856 1112 814 1126 c 132,-1,23
 772 1140 772 1140 741 1164 c 132,-1,24
 710 1188 710 1188 692 1221 c 132,-1,25
 674 1254 674 1254 674 1290 c 4,0,1
EndSplineSet
Ligature2: "ccmp-1 subtable" period O quotesingle U
Ligature2: "ccmp-1 subtable" period O quotesingle u
Ligature2: "ccmp-1 subtable" period o quotesingle u
Ligature2: "ccmp-1 subtable" period o quotesingle U
Ligature2: "ccmp-0 subtable" period O quotesingle U
Ligature2: "ccmp-0 subtable" period O quotesingle u
Ligature2: "ccmp-0 subtable" period o quotesingle u
Ligature2: "ccmp-0 subtable" period o quotesingle U
Ligature2: "ccmp-1" period o quotesingle U
Ligature2: "ccmp-1" period o quotesingle u
Ligature2: "ccmp-1" period O quotesingle u
Ligature2: "ccmp-1" period O quotesingle U
EndChar

StartChar: h.au
Encoding: 276 -1 70
Width: 1200
GlyphClass: 3
Flags: HW
LayerCount: 2
Fore
SplineSet
380 1160 m 6,0,1
 380 1092 380 1092 380 1046 c 132,-1,2
 380 1000 380 1000 379 969 c 132,-1,3
 378 938 378 938 378 920 c 132,-1,4
 378 902 378 902 378 890 c 5,5,6
 352 898 352 898 318 916 c 132,-1,7
 284 934 284 934 253 966 c 132,-1,8
 222 998 222 998 201 1045 c 132,-1,9
 180 1092 180 1092 180 1160 c 6,10,-1
 180 1402 l 5,11,-1
 380 1402 l 5,12,-1
 380 1160 l 6,0,1
1048 -84 m 5,0,1
 1032 -82 1032 -82 995 -65 c 132,-1,2
 958 -48 958 -48 920 -15 c 132,-1,3
 882 18 882 18 854 67 c 132,-1,4
 826 116 826 116 828 186 c 6,5,-1
 828 730 l 5,6,7
 756 658 756 658 696 601 c 132,-1,8
 636 544 636 544 581 506 c 132,-1,9
 526 468 526 468 471 448 c 132,-1,10
 416 428 416 428 352 428 c 4,11,12
 256 428 256 428 213 485 c 132,-1,13
 170 542 170 542 170 618 c 4,14,15
 170 628 170 628 175 653 c 132,-1,16
 180 678 180 678 195 705 c 132,-1,17
 210 732 210 732 237 757 c 132,-1,18
 264 782 264 782 308 792 c 4,19,20
 326 796 326 796 343 794 c 132,-1,21
 360 792 360 792 373 787 c 132,-1,22
 386 782 386 782 393 777 c 132,-1,23
 400 772 400 772 400 770 c 5,24,25
 340 792 340 792 307 760 c 132,-1,26
 274 728 274 728 274 674 c 4,27,28
 274 662 274 662 280 647 c 132,-1,29
 286 632 286 632 298 619 c 132,-1,30
 310 606 310 606 329 596 c 132,-1,31
 348 586 348 586 376 586 c 4,32,33
 426 586 426 586 484 603 c 132,-1,34
 542 620 542 620 601 657 c 132,-1,35
 660 694 660 694 718 754 c 132,-1,36
 776 814 776 814 828 900 c 5,37,-1
 1028 900 l 5,38,-1
 1028 186 l 6,39,40
 1028 154 1028 154 1028 116 c 132,-1,41
 1028 78 1028 78 1029 42 c 132,-1,42
 1030 6 1030 6 1034 -27 c 132,-1,43
 1038 -60 1038 -60 1048 -84 c 5,0,1
674 1290 m 4,0,1
 674 1350 674 1350 704 1398 c 132,-1,2
 734 1446 734 1446 792 1450 c 4,3,4
 824 1452 824 1452 845 1433 c 132,-1,5
 866 1414 866 1414 874 1387 c 132,-1,6
 882 1360 882 1360 873 1334 c 132,-1,7
 864 1308 864 1308 834 1296 c 5,8,9
 840 1284 840 1284 861 1279 c 132,-1,10
 882 1274 882 1274 902 1276 c 4,11,12
 942 1278 942 1278 986 1288 c 132,-1,13
 1030 1298 1030 1298 1076 1320 c 132,-1,14
 1122 1342 1122 1342 1168 1378 c 132,-1,15
 1214 1414 1214 1414 1260 1470 c 5,16,17
 1252 1386 1252 1386 1219 1321 c 132,-1,18
 1186 1256 1186 1256 1136 1212 c 132,-1,19
 1086 1168 1086 1168 1026 1144 c 132,-1,20
 966 1120 966 1120 904 1116 c 4,21,22
 856 1112 856 1112 814 1126 c 132,-1,23
 772 1140 772 1140 741 1164 c 132,-1,24
 710 1188 710 1188 692 1221 c 132,-1,25
 674 1254 674 1254 674 1290 c 4,0,1
EndSplineSet
Ligature2: "ccmp-1 subtable" period A quotesingle Y
Ligature2: "ccmp-1 subtable" period A quotesingle y
Ligature2: "ccmp-1 subtable" period a quotesingle Y
Ligature2: "ccmp-1 subtable" period a quotesingle y
Ligature2: "ccmp-0 subtable" period A quotesingle Y
Ligature2: "ccmp-0 subtable" period A quotesingle y
Ligature2: "ccmp-0 subtable" period a quotesingle Y
Ligature2: "ccmp-0 subtable" period a quotesingle y
Ligature2: "ccmp-1" period a quotesingle y
Ligature2: "ccmp-1" period a quotesingle Y
Ligature2: "ccmp-1" period A quotesingle y
Ligature2: "ccmp-1" period A quotesingle Y
EndChar

StartChar: h.ui
Encoding: 277 -1 71
Width: 1200
GlyphClass: 3
Flags: HW
LayerCount: 2
Fore
SplineSet
782 1270 m 4,0,1
 782 1328 782 1328 823 1369 c 132,-1,2
 864 1410 864 1410 920 1410 c 4,3,4
 978 1410 978 1410 1019 1369 c 132,-1,5
 1060 1328 1060 1328 1060 1270 c 4,6,7
 1060 1214 1060 1214 1019 1173 c 132,-1,8
 978 1132 978 1132 920 1132 c 4,9,10
 864 1132 864 1132 823 1173 c 132,-1,11
 782 1214 782 1214 782 1270 c 4,0,1
1048 -84 m 5,0,1
 1032 -82 1032 -82 995 -65 c 132,-1,2
 958 -48 958 -48 920 -15 c 132,-1,3
 882 18 882 18 854 67 c 132,-1,4
 826 116 826 116 828 186 c 6,5,-1
 828 730 l 5,6,7
 756 658 756 658 696 601 c 132,-1,8
 636 544 636 544 581 506 c 132,-1,9
 526 468 526 468 471 448 c 132,-1,10
 416 428 416 428 352 428 c 4,11,12
 256 428 256 428 213 485 c 132,-1,13
 170 542 170 542 170 618 c 4,14,15
 170 628 170 628 175 653 c 132,-1,16
 180 678 180 678 195 705 c 132,-1,17
 210 732 210 732 237 757 c 132,-1,18
 264 782 264 782 308 792 c 4,19,20
 326 796 326 796 343 794 c 132,-1,21
 360 792 360 792 373 787 c 132,-1,22
 386 782 386 782 393 777 c 132,-1,23
 400 772 400 772 400 770 c 5,24,25
 340 792 340 792 307 760 c 132,-1,26
 274 728 274 728 274 674 c 4,27,28
 274 662 274 662 280 647 c 132,-1,29
 286 632 286 632 298 619 c 132,-1,30
 310 606 310 606 329 596 c 132,-1,31
 348 586 348 586 376 586 c 4,32,33
 426 586 426 586 484 603 c 132,-1,34
 542 620 542 620 601 657 c 132,-1,35
 660 694 660 694 718 754 c 132,-1,36
 776 814 776 814 828 900 c 5,37,-1
 1028 900 l 5,38,-1
 1028 186 l 6,39,40
 1028 154 1028 154 1028 116 c 132,-1,41
 1028 78 1028 78 1029 42 c 132,-1,42
 1030 6 1030 6 1034 -27 c 132,-1,43
 1038 -60 1038 -60 1048 -84 c 5,0,1
74 1110 m 4,0,1
 74 1170 74 1170 104 1218 c 132,-1,2
 134 1266 134 1266 192 1270 c 4,3,4
 224 1272 224 1272 245 1253 c 132,-1,5
 266 1234 266 1234 274 1207 c 132,-1,6
 282 1180 282 1180 273 1154 c 132,-1,7
 264 1128 264 1128 234 1116 c 5,8,9
 240 1104 240 1104 261 1099 c 132,-1,10
 282 1094 282 1094 302 1096 c 4,11,12
 342 1098 342 1098 386 1108 c 132,-1,13
 430 1118 430 1118 476 1140 c 132,-1,14
 522 1162 522 1162 568 1198 c 132,-1,15
 614 1234 614 1234 660 1290 c 5,16,17
 652 1206 652 1206 619 1141 c 132,-1,18
 586 1076 586 1076 536 1032 c 132,-1,19
 486 988 486 988 426 964 c 132,-1,20
 366 940 366 940 304 936 c 4,21,22
 256 932 256 932 214 946 c 132,-1,23
 172 960 172 960 141 984 c 132,-1,24
 110 1008 110 1008 92 1041 c 132,-1,25
 74 1074 74 1074 74 1110 c 4,0,1
EndSplineSet
Ligature2: "ccmp-1 subtable" period U quotesingle I
Ligature2: "ccmp-1 subtable" period U quotesingle i
Ligature2: "ccmp-1 subtable" period u quotesingle I
Ligature2: "ccmp-1 subtable" period u quotesingle i
Ligature2: "ccmp-0 subtable" period U quotesingle I
Ligature2: "ccmp-0 subtable" period U quotesingle i
Ligature2: "ccmp-0 subtable" period u quotesingle I
Ligature2: "ccmp-0 subtable" period u quotesingle i
Ligature2: "ccmp-1" period u quotesingle i
Ligature2: "ccmp-1" period u quotesingle I
Ligature2: "ccmp-1" period U quotesingle i
Ligature2: "ccmp-1" period U quotesingle I
EndChar

StartChar: h.ei
Encoding: 278 -1 72
Width: 1200
GlyphClass: 3
Flags: HW
LayerCount: 2
Fore
SplineSet
492 1048 m 5,0,1
 372 1050 372 1050 290 1049 c 132,-1,2
 208 1048 208 1048 155 1046 c 132,-1,3
 102 1044 102 1044 73 1041 c 132,-1,4
 44 1038 44 1038 30 1034 c 132,-1,5
 16 1030 16 1030 12 1027 c 132,-1,6
 8 1024 8 1024 4 1022 c 6,7,-1
 86 1224 l 5,8,-1
 534 1224 l 5,9,-1
 492 1048 l 5,0,1
782 1270 m 4,0,1
 782 1328 782 1328 823 1369 c 132,-1,2
 864 1410 864 1410 920 1410 c 4,3,4
 978 1410 978 1410 1019 1369 c 132,-1,5
 1060 1328 1060 1328 1060 1270 c 4,6,7
 1060 1214 1060 1214 1019 1173 c 132,-1,8
 978 1132 978 1132 920 1132 c 4,9,10
 864 1132 864 1132 823 1173 c 132,-1,11
 782 1214 782 1214 782 1270 c 4,0,1
1048 -84 m 5,0,1
 1032 -82 1032 -82 995 -65 c 132,-1,2
 958 -48 958 -48 920 -15 c 132,-1,3
 882 18 882 18 854 67 c 132,-1,4
 826 116 826 116 828 186 c 6,5,-1
 828 730 l 5,6,7
 756 658 756 658 696 601 c 132,-1,8
 636 544 636 544 581 506 c 132,-1,9
 526 468 526 468 471 448 c 132,-1,10
 416 428 416 428 352 428 c 4,11,12
 256 428 256 428 213 485 c 132,-1,13
 170 542 170 542 170 618 c 4,14,15
 170 628 170 628 175 653 c 132,-1,16
 180 678 180 678 195 705 c 132,-1,17
 210 732 210 732 237 757 c 132,-1,18
 264 782 264 782 308 792 c 4,19,20
 326 796 326 796 343 794 c 132,-1,21
 360 792 360 792 373 787 c 132,-1,22
 386 782 386 782 393 777 c 132,-1,23
 400 772 400 772 400 770 c 5,24,25
 340 792 340 792 307 760 c 132,-1,26
 274 728 274 728 274 674 c 4,27,28
 274 662 274 662 280 647 c 132,-1,29
 286 632 286 632 298 619 c 132,-1,30
 310 606 310 606 329 596 c 132,-1,31
 348 586 348 586 376 586 c 4,32,33
 426 586 426 586 484 603 c 132,-1,34
 542 620 542 620 601 657 c 132,-1,35
 660 694 660 694 718 754 c 132,-1,36
 776 814 776 814 828 900 c 5,37,-1
 1028 900 l 5,38,-1
 1028 186 l 6,39,40
 1028 154 1028 154 1028 116 c 132,-1,41
 1028 78 1028 78 1029 42 c 132,-1,42
 1030 6 1030 6 1034 -27 c 132,-1,43
 1038 -60 1038 -60 1048 -84 c 5,0,1
EndSplineSet
Ligature2: "ccmp-1 subtable" period E quotesingle I
Ligature2: "ccmp-1 subtable" period E quotesingle i
Ligature2: "ccmp-1 subtable" period e quotesingle I
Ligature2: "ccmp-1 subtable" period e quotesingle i
Ligature2: "ccmp-0 subtable" period E quotesingle I
Ligature2: "ccmp-0 subtable" period E quotesingle i
Ligature2: "ccmp-0 subtable" period e quotesingle I
Ligature2: "ccmp-0 subtable" period e quotesingle i
Ligature2: "ccmp-1" period e quotesingle i
Ligature2: "ccmp-1" period e quotesingle I
Ligature2: "ccmp-1" period E quotesingle i
Ligature2: "ccmp-1" period E quotesingle I
EndChar

StartChar: h.ii
Encoding: 279 -1 73
Width: 1200
GlyphClass: 3
Flags: HW
LayerCount: 2
Fore
SplineSet
162 1130 m 4,0,1
 162 1188 162 1188 203 1229 c 132,-1,2
 244 1270 244 1270 300 1270 c 4,3,4
 358 1270 358 1270 399 1229 c 132,-1,5
 440 1188 440 1188 440 1130 c 4,6,7
 440 1074 440 1074 399 1033 c 132,-1,8
 358 992 358 992 300 992 c 4,9,10
 244 992 244 992 203 1033 c 132,-1,11
 162 1074 162 1074 162 1130 c 4,0,1
782 1270 m 4,0,1
 782 1328 782 1328 823 1369 c 132,-1,2
 864 1410 864 1410 920 1410 c 4,3,4
 978 1410 978 1410 1019 1369 c 132,-1,5
 1060 1328 1060 1328 1060 1270 c 4,6,7
 1060 1214 1060 1214 1019 1173 c 132,-1,8
 978 1132 978 1132 920 1132 c 4,9,10
 864 1132 864 1132 823 1173 c 132,-1,11
 782 1214 782 1214 782 1270 c 4,0,1
1048 -84 m 5,0,1
 1032 -82 1032 -82 995 -65 c 132,-1,2
 958 -48 958 -48 920 -15 c 132,-1,3
 882 18 882 18 854 67 c 132,-1,4
 826 116 826 116 828 186 c 6,5,-1
 828 730 l 5,6,7
 756 658 756 658 696 601 c 132,-1,8
 636 544 636 544 581 506 c 132,-1,9
 526 468 526 468 471 448 c 132,-1,10
 416 428 416 428 352 428 c 4,11,12
 256 428 256 428 213 485 c 132,-1,13
 170 542 170 542 170 618 c 4,14,15
 170 628 170 628 175 653 c 132,-1,16
 180 678 180 678 195 705 c 132,-1,17
 210 732 210 732 237 757 c 132,-1,18
 264 782 264 782 308 792 c 4,19,20
 326 796 326 796 343 794 c 132,-1,21
 360 792 360 792 373 787 c 132,-1,22
 386 782 386 782 393 777 c 132,-1,23
 400 772 400 772 400 770 c 5,24,25
 340 792 340 792 307 760 c 132,-1,26
 274 728 274 728 274 674 c 4,27,28
 274 662 274 662 280 647 c 132,-1,29
 286 632 286 632 298 619 c 132,-1,30
 310 606 310 606 329 596 c 132,-1,31
 348 586 348 586 376 586 c 4,32,33
 426 586 426 586 484 603 c 132,-1,34
 542 620 542 620 601 657 c 132,-1,35
 660 694 660 694 718 754 c 132,-1,36
 776 814 776 814 828 900 c 5,37,-1
 1028 900 l 5,38,-1
 1028 186 l 6,39,40
 1028 154 1028 154 1028 116 c 132,-1,41
 1028 78 1028 78 1029 42 c 132,-1,42
 1030 6 1030 6 1034 -27 c 132,-1,43
 1038 -60 1038 -60 1048 -84 c 5,0,1
EndSplineSet
Ligature2: "ccmp-1 subtable" period I quotesingle I
Ligature2: "ccmp-1 subtable" period I quotesingle i
Ligature2: "ccmp-1 subtable" period i quotesingle I
Ligature2: "ccmp-1 subtable" period i quotesingle i
Ligature2: "ccmp-0 subtable" period I quotesingle I
Ligature2: "ccmp-0 subtable" period I quotesingle i
Ligature2: "ccmp-0 subtable" period i quotesingle I
Ligature2: "ccmp-0 subtable" period i quotesingle i
Ligature2: "ccmp-1" period i quotesingle i
Ligature2: "ccmp-1" period i quotesingle I
Ligature2: "ccmp-1" period I quotesingle i
Ligature2: "ccmp-1" period I quotesingle I
EndChar

StartChar: h.oi
Encoding: 280 -1 74
Width: 1200
GlyphClass: 3
Flags: HW
LayerCount: 2
Fore
SplineSet
782 1270 m 4,0,1
 782 1328 782 1328 823 1369 c 132,-1,2
 864 1410 864 1410 920 1410 c 4,3,4
 978 1410 978 1410 1019 1369 c 132,-1,5
 1060 1328 1060 1328 1060 1270 c 4,6,7
 1060 1214 1060 1214 1019 1173 c 132,-1,8
 978 1132 978 1132 920 1132 c 4,9,10
 864 1132 864 1132 823 1173 c 132,-1,11
 782 1214 782 1214 782 1270 c 4,0,1
516 1322 m 5,0,1
 478 1272 478 1272 440 1211 c 132,-1,2
 402 1150 402 1150 367 1086 c 132,-1,3
 332 1022 332 1022 304 961 c 132,-1,4
 276 900 276 900 260 852 c 5,5,-1
 102 852 l 5,6,7
 118 978 118 978 81 1080 c 132,-1,8
 44 1182 44 1182 -40 1232 c 5,9,-1
 132 1232 l 5,10,11
 174 1220 174 1220 194 1184 c 132,-1,12
 214 1148 214 1148 232 1088 c 5,13,14
 262 1132 262 1132 288 1173 c 132,-1,15
 314 1214 314 1214 345 1245 c 132,-1,16
 376 1276 376 1276 416 1296 c 132,-1,17
 456 1316 456 1316 516 1322 c 5,0,1
1048 -84 m 5,0,1
 1032 -82 1032 -82 995 -65 c 132,-1,2
 958 -48 958 -48 920 -15 c 132,-1,3
 882 18 882 18 854 67 c 132,-1,4
 826 116 826 116 828 186 c 6,5,-1
 828 730 l 5,6,7
 756 658 756 658 696 601 c 132,-1,8
 636 544 636 544 581 506 c 132,-1,9
 526 468 526 468 471 448 c 132,-1,10
 416 428 416 428 352 428 c 4,11,12
 256 428 256 428 213 485 c 132,-1,13
 170 542 170 542 170 618 c 4,14,15
 170 628 170 628 175 653 c 132,-1,16
 180 678 180 678 195 705 c 132,-1,17
 210 732 210 732 237 757 c 132,-1,18
 264 782 264 782 308 792 c 4,19,20
 326 796 326 796 343 794 c 132,-1,21
 360 792 360 792 373 787 c 132,-1,22
 386 782 386 782 393 777 c 132,-1,23
 400 772 400 772 400 770 c 5,24,25
 340 792 340 792 307 760 c 132,-1,26
 274 728 274 728 274 674 c 4,27,28
 274 662 274 662 280 647 c 132,-1,29
 286 632 286 632 298 619 c 132,-1,30
 310 606 310 606 329 596 c 132,-1,31
 348 586 348 586 376 586 c 4,32,33
 426 586 426 586 484 603 c 132,-1,34
 542 620 542 620 601 657 c 132,-1,35
 660 694 660 694 718 754 c 132,-1,36
 776 814 776 814 828 900 c 5,37,-1
 1028 900 l 5,38,-1
 1028 186 l 6,39,40
 1028 154 1028 154 1028 116 c 132,-1,41
 1028 78 1028 78 1029 42 c 132,-1,42
 1030 6 1030 6 1034 -27 c 132,-1,43
 1038 -60 1038 -60 1048 -84 c 5,0,1
EndSplineSet
Ligature2: "ccmp-1 subtable" period O quotesingle I
Ligature2: "ccmp-1 subtable" period O quotesingle i
Ligature2: "ccmp-1 subtable" period o quotesingle I
Ligature2: "ccmp-1 subtable" period o quotesingle i
Ligature2: "ccmp-0 subtable" period O quotesingle I
Ligature2: "ccmp-0 subtable" period O quotesingle i
Ligature2: "ccmp-0 subtable" period o quotesingle I
Ligature2: "ccmp-0 subtable" period o quotesingle i
Ligature2: "ccmp-1" period o quotesingle i
Ligature2: "ccmp-1" period o quotesingle I
Ligature2: "ccmp-1" period O quotesingle i
Ligature2: "ccmp-1" period O quotesingle I
EndChar

StartChar: h.ai
Encoding: 281 -1 75
Width: 1200
GlyphClass: 3
Flags: HW
LayerCount: 2
Fore
SplineSet
380 1160 m 6,0,1
 380 1092 380 1092 380 1046 c 132,-1,2
 380 1000 380 1000 379 969 c 132,-1,3
 378 938 378 938 378 920 c 132,-1,4
 378 902 378 902 378 890 c 5,5,6
 352 898 352 898 318 916 c 132,-1,7
 284 934 284 934 253 966 c 132,-1,8
 222 998 222 998 201 1045 c 132,-1,9
 180 1092 180 1092 180 1160 c 6,10,-1
 180 1402 l 5,11,-1
 380 1402 l 5,12,-1
 380 1160 l 6,0,1
782 1270 m 4,0,1
 782 1328 782 1328 823 1369 c 132,-1,2
 864 1410 864 1410 920 1410 c 4,3,4
 978 1410 978 1410 1019 1369 c 132,-1,5
 1060 1328 1060 1328 1060 1270 c 4,6,7
 1060 1214 1060 1214 1019 1173 c 132,-1,8
 978 1132 978 1132 920 1132 c 4,9,10
 864 1132 864 1132 823 1173 c 132,-1,11
 782 1214 782 1214 782 1270 c 4,0,1
1048 -84 m 5,0,1
 1032 -82 1032 -82 995 -65 c 132,-1,2
 958 -48 958 -48 920 -15 c 132,-1,3
 882 18 882 18 854 67 c 132,-1,4
 826 116 826 116 828 186 c 6,5,-1
 828 730 l 5,6,7
 756 658 756 658 696 601 c 132,-1,8
 636 544 636 544 581 506 c 132,-1,9
 526 468 526 468 471 448 c 132,-1,10
 416 428 416 428 352 428 c 4,11,12
 256 428 256 428 213 485 c 132,-1,13
 170 542 170 542 170 618 c 4,14,15
 170 628 170 628 175 653 c 132,-1,16
 180 678 180 678 195 705 c 132,-1,17
 210 732 210 732 237 757 c 132,-1,18
 264 782 264 782 308 792 c 4,19,20
 326 796 326 796 343 794 c 132,-1,21
 360 792 360 792 373 787 c 132,-1,22
 386 782 386 782 393 777 c 132,-1,23
 400 772 400 772 400 770 c 5,24,25
 340 792 340 792 307 760 c 132,-1,26
 274 728 274 728 274 674 c 4,27,28
 274 662 274 662 280 647 c 132,-1,29
 286 632 286 632 298 619 c 132,-1,30
 310 606 310 606 329 596 c 132,-1,31
 348 586 348 586 376 586 c 4,32,33
 426 586 426 586 484 603 c 132,-1,34
 542 620 542 620 601 657 c 132,-1,35
 660 694 660 694 718 754 c 132,-1,36
 776 814 776 814 828 900 c 5,37,-1
 1028 900 l 5,38,-1
 1028 186 l 6,39,40
 1028 154 1028 154 1028 116 c 132,-1,41
 1028 78 1028 78 1029 42 c 132,-1,42
 1030 6 1030 6 1034 -27 c 132,-1,43
 1038 -60 1038 -60 1048 -84 c 5,0,1
EndSplineSet
Ligature2: "ccmp-1 subtable" period A quotesingle I
Ligature2: "ccmp-1 subtable" period A quotesingle i
Ligature2: "ccmp-1 subtable" period a quotesingle I
Ligature2: "ccmp-1 subtable" period a quotesingle i
Ligature2: "ccmp-0 subtable" period A quotesingle I
Ligature2: "ccmp-0 subtable" period A quotesingle i
Ligature2: "ccmp-0 subtable" period a quotesingle I
Ligature2: "ccmp-0 subtable" period a quotesingle i
Ligature2: "ccmp-1" period a quotesingle i
Ligature2: "ccmp-1" period a quotesingle I
Ligature2: "ccmp-1" period A quotesingle i
Ligature2: "ccmp-1" period A quotesingle I
EndChar

StartChar: h.uo
Encoding: 282 -1 76
Width: 1200
GlyphClass: 3
Flags: HW
LayerCount: 2
Fore
SplineSet
1048 -84 m 5,0,1
 1032 -82 1032 -82 995 -65 c 132,-1,2
 958 -48 958 -48 920 -15 c 132,-1,3
 882 18 882 18 854 67 c 132,-1,4
 826 116 826 116 828 186 c 6,5,-1
 828 730 l 5,6,7
 756 658 756 658 696 601 c 132,-1,8
 636 544 636 544 581 506 c 132,-1,9
 526 468 526 468 471 448 c 132,-1,10
 416 428 416 428 352 428 c 4,11,12
 256 428 256 428 213 485 c 132,-1,13
 170 542 170 542 170 618 c 4,14,15
 170 628 170 628 175 653 c 132,-1,16
 180 678 180 678 195 705 c 132,-1,17
 210 732 210 732 237 757 c 132,-1,18
 264 782 264 782 308 792 c 4,19,20
 326 796 326 796 343 794 c 132,-1,21
 360 792 360 792 373 787 c 132,-1,22
 386 782 386 782 393 777 c 132,-1,23
 400 772 400 772 400 770 c 5,24,25
 340 792 340 792 307 760 c 132,-1,26
 274 728 274 728 274 674 c 4,27,28
 274 662 274 662 280 647 c 132,-1,29
 286 632 286 632 298 619 c 132,-1,30
 310 606 310 606 329 596 c 132,-1,31
 348 586 348 586 376 586 c 4,32,33
 426 586 426 586 484 603 c 132,-1,34
 542 620 542 620 601 657 c 132,-1,35
 660 694 660 694 718 754 c 132,-1,36
 776 814 776 814 828 900 c 5,37,-1
 1028 900 l 5,38,-1
 1028 186 l 6,39,40
 1028 154 1028 154 1028 116 c 132,-1,41
 1028 78 1028 78 1029 42 c 132,-1,42
 1030 6 1030 6 1034 -27 c 132,-1,43
 1038 -60 1038 -60 1048 -84 c 5,0,1
74 1110 m 4,0,1
 74 1170 74 1170 104 1218 c 132,-1,2
 134 1266 134 1266 192 1270 c 4,3,4
 224 1272 224 1272 245 1253 c 132,-1,5
 266 1234 266 1234 274 1207 c 132,-1,6
 282 1180 282 1180 273 1154 c 132,-1,7
 264 1128 264 1128 234 1116 c 5,8,9
 240 1104 240 1104 261 1099 c 132,-1,10
 282 1094 282 1094 302 1096 c 4,11,12
 342 1098 342 1098 386 1108 c 132,-1,13
 430 1118 430 1118 476 1140 c 132,-1,14
 522 1162 522 1162 568 1198 c 132,-1,15
 614 1234 614 1234 660 1290 c 5,16,17
 652 1206 652 1206 619 1141 c 132,-1,18
 586 1076 586 1076 536 1032 c 132,-1,19
 486 988 486 988 426 964 c 132,-1,20
 366 940 366 940 304 936 c 4,21,22
 256 932 256 932 214 946 c 132,-1,23
 172 960 172 960 141 984 c 132,-1,24
 110 1008 110 1008 92 1041 c 132,-1,25
 74 1074 74 1074 74 1110 c 4,0,1
1316 1522 m 5,0,1
 1278 1472 1278 1472 1240 1411 c 132,-1,2
 1202 1350 1202 1350 1167 1286 c 132,-1,3
 1132 1222 1132 1222 1104 1161 c 132,-1,4
 1076 1100 1076 1100 1060 1052 c 5,5,-1
 902 1052 l 5,6,7
 918 1178 918 1178 881 1280 c 132,-1,8
 844 1382 844 1382 760 1432 c 5,9,-1
 932 1432 l 5,10,11
 974 1420 974 1420 994 1384 c 132,-1,12
 1014 1348 1014 1348 1032 1288 c 5,13,14
 1062 1332 1062 1332 1088 1373 c 132,-1,15
 1114 1414 1114 1414 1145 1445 c 132,-1,16
 1176 1476 1176 1476 1216 1496 c 132,-1,17
 1256 1516 1256 1516 1316 1522 c 5,0,1
EndSplineSet
Ligature2: "ccmp-1 subtable" period U quotesingle O
Ligature2: "ccmp-1 subtable" period U quotesingle o
Ligature2: "ccmp-1 subtable" period u quotesingle O
Ligature2: "ccmp-1 subtable" period u quotesingle o
Ligature2: "ccmp-0 subtable" period U quotesingle O
Ligature2: "ccmp-0 subtable" period U quotesingle o
Ligature2: "ccmp-0 subtable" period u quotesingle O
Ligature2: "ccmp-0 subtable" period u quotesingle o
Ligature2: "ccmp-1" period u quotesingle o
Ligature2: "ccmp-1" period u quotesingle O
Ligature2: "ccmp-1" period U quotesingle o
Ligature2: "ccmp-1" period U quotesingle O
EndChar

StartChar: h.283
Encoding: 283 -1 77
Width: 1200
GlyphClass: 3
Flags: HW
LayerCount: 2
Fore
SplineSet
492 1048 m 5,0,1
 372 1050 372 1050 290 1049 c 132,-1,2
 208 1048 208 1048 155 1046 c 132,-1,3
 102 1044 102 1044 73 1041 c 132,-1,4
 44 1038 44 1038 30 1034 c 132,-1,5
 16 1030 16 1030 12 1027 c 132,-1,6
 8 1024 8 1024 4 1022 c 6,7,-1
 86 1224 l 5,8,-1
 534 1224 l 5,9,-1
 492 1048 l 5,0,1
1316 1522 m 5,0,1
 1278 1472 1278 1472 1240 1411 c 132,-1,2
 1202 1350 1202 1350 1167 1286 c 132,-1,3
 1132 1222 1132 1222 1104 1161 c 132,-1,4
 1076 1100 1076 1100 1060 1052 c 5,5,-1
 902 1052 l 5,6,7
 918 1178 918 1178 881 1280 c 132,-1,8
 844 1382 844 1382 760 1432 c 5,9,-1
 932 1432 l 5,10,11
 974 1420 974 1420 994 1384 c 132,-1,12
 1014 1348 1014 1348 1032 1288 c 5,13,14
 1062 1332 1062 1332 1088 1373 c 132,-1,15
 1114 1414 1114 1414 1145 1445 c 132,-1,16
 1176 1476 1176 1476 1216 1496 c 132,-1,17
 1256 1516 1256 1516 1316 1522 c 5,0,1
1048 -84 m 5,0,1
 1032 -82 1032 -82 995 -65 c 132,-1,2
 958 -48 958 -48 920 -15 c 132,-1,3
 882 18 882 18 854 67 c 132,-1,4
 826 116 826 116 828 186 c 6,5,-1
 828 730 l 5,6,7
 756 658 756 658 696 601 c 132,-1,8
 636 544 636 544 581 506 c 132,-1,9
 526 468 526 468 471 448 c 132,-1,10
 416 428 416 428 352 428 c 4,11,12
 256 428 256 428 213 485 c 132,-1,13
 170 542 170 542 170 618 c 4,14,15
 170 628 170 628 175 653 c 132,-1,16
 180 678 180 678 195 705 c 132,-1,17
 210 732 210 732 237 757 c 132,-1,18
 264 782 264 782 308 792 c 4,19,20
 326 796 326 796 343 794 c 132,-1,21
 360 792 360 792 373 787 c 132,-1,22
 386 782 386 782 393 777 c 132,-1,23
 400 772 400 772 400 770 c 5,24,25
 340 792 340 792 307 760 c 132,-1,26
 274 728 274 728 274 674 c 4,27,28
 274 662 274 662 280 647 c 132,-1,29
 286 632 286 632 298 619 c 132,-1,30
 310 606 310 606 329 596 c 132,-1,31
 348 586 348 586 376 586 c 4,32,33
 426 586 426 586 484 603 c 132,-1,34
 542 620 542 620 601 657 c 132,-1,35
 660 694 660 694 718 754 c 132,-1,36
 776 814 776 814 828 900 c 5,37,-1
 1028 900 l 5,38,-1
 1028 186 l 6,39,40
 1028 154 1028 154 1028 116 c 132,-1,41
 1028 78 1028 78 1029 42 c 132,-1,42
 1030 6 1030 6 1034 -27 c 132,-1,43
 1038 -60 1038 -60 1048 -84 c 5,0,1
EndSplineSet
Ligature2: "ccmp-1" period E quotesingle O
Ligature2: "ccmp-1" period E quotesingle o
Ligature2: "ccmp-1" period e quotesingle O
Ligature2: "ccmp-1" period e quotesingle o
Ligature2: "ccmp-0 subtable" period e quotesingle o
Ligature2: "ccmp-0 subtable" period e quotesingle O
Ligature2: "ccmp-0 subtable" period E quotesingle o
Ligature2: "ccmp-0 subtable" period E quotesingle O
Ligature2: "ccmp-1 subtable" period e quotesingle o
Ligature2: "ccmp-1 subtable" period e quotesingle O
Ligature2: "ccmp-1 subtable" period E quotesingle o
Ligature2: "ccmp-1 subtable" period E quotesingle O
EndChar

StartChar: h.io
Encoding: 284 -1 78
Width: 1200
GlyphClass: 3
Flags: HW
LayerCount: 2
Fore
SplineSet
162 1130 m 4,0,1
 162 1188 162 1188 203 1229 c 132,-1,2
 244 1270 244 1270 300 1270 c 4,3,4
 358 1270 358 1270 399 1229 c 132,-1,5
 440 1188 440 1188 440 1130 c 4,6,7
 440 1074 440 1074 399 1033 c 132,-1,8
 358 992 358 992 300 992 c 4,9,10
 244 992 244 992 203 1033 c 132,-1,11
 162 1074 162 1074 162 1130 c 4,0,1
1316 1522 m 5,0,1
 1278 1472 1278 1472 1240 1411 c 132,-1,2
 1202 1350 1202 1350 1167 1286 c 132,-1,3
 1132 1222 1132 1222 1104 1161 c 132,-1,4
 1076 1100 1076 1100 1060 1052 c 5,5,-1
 902 1052 l 5,6,7
 918 1178 918 1178 881 1280 c 132,-1,8
 844 1382 844 1382 760 1432 c 5,9,-1
 932 1432 l 5,10,11
 974 1420 974 1420 994 1384 c 132,-1,12
 1014 1348 1014 1348 1032 1288 c 5,13,14
 1062 1332 1062 1332 1088 1373 c 132,-1,15
 1114 1414 1114 1414 1145 1445 c 132,-1,16
 1176 1476 1176 1476 1216 1496 c 132,-1,17
 1256 1516 1256 1516 1316 1522 c 5,0,1
1048 -84 m 5,0,1
 1032 -82 1032 -82 995 -65 c 132,-1,2
 958 -48 958 -48 920 -15 c 132,-1,3
 882 18 882 18 854 67 c 132,-1,4
 826 116 826 116 828 186 c 6,5,-1
 828 730 l 5,6,7
 756 658 756 658 696 601 c 132,-1,8
 636 544 636 544 581 506 c 132,-1,9
 526 468 526 468 471 448 c 132,-1,10
 416 428 416 428 352 428 c 4,11,12
 256 428 256 428 213 485 c 132,-1,13
 170 542 170 542 170 618 c 4,14,15
 170 628 170 628 175 653 c 132,-1,16
 180 678 180 678 195 705 c 132,-1,17
 210 732 210 732 237 757 c 132,-1,18
 264 782 264 782 308 792 c 4,19,20
 326 796 326 796 343 794 c 132,-1,21
 360 792 360 792 373 787 c 132,-1,22
 386 782 386 782 393 777 c 132,-1,23
 400 772 400 772 400 770 c 5,24,25
 340 792 340 792 307 760 c 132,-1,26
 274 728 274 728 274 674 c 4,27,28
 274 662 274 662 280 647 c 132,-1,29
 286 632 286 632 298 619 c 132,-1,30
 310 606 310 606 329 596 c 132,-1,31
 348 586 348 586 376 586 c 4,32,33
 426 586 426 586 484 603 c 132,-1,34
 542 620 542 620 601 657 c 132,-1,35
 660 694 660 694 718 754 c 132,-1,36
 776 814 776 814 828 900 c 5,37,-1
 1028 900 l 5,38,-1
 1028 186 l 6,39,40
 1028 154 1028 154 1028 116 c 132,-1,41
 1028 78 1028 78 1029 42 c 132,-1,42
 1030 6 1030 6 1034 -27 c 132,-1,43
 1038 -60 1038 -60 1048 -84 c 5,0,1
EndSplineSet
Ligature2: "ccmp-1" period I quotesingle O
Ligature2: "ccmp-1" period I quotesingle o
Ligature2: "ccmp-1" period i quotesingle O
Ligature2: "ccmp-1" period i quotesingle o
Ligature2: "ccmp-0 subtable" period i quotesingle o
Ligature2: "ccmp-0 subtable" period i quotesingle O
Ligature2: "ccmp-0 subtable" period I quotesingle o
Ligature2: "ccmp-0 subtable" period I quotesingle O
Ligature2: "ccmp-1 subtable" period i quotesingle o
Ligature2: "ccmp-1 subtable" period i quotesingle O
Ligature2: "ccmp-1 subtable" period I quotesingle o
Ligature2: "ccmp-1 subtable" period I quotesingle O
EndChar

StartChar: h.oo
Encoding: 285 -1 79
Width: 1200
GlyphClass: 3
Flags: HW
LayerCount: 2
Fore
SplineSet
1316 1522 m 5,0,1
 1278 1472 1278 1472 1240 1411 c 132,-1,2
 1202 1350 1202 1350 1167 1286 c 132,-1,3
 1132 1222 1132 1222 1104 1161 c 132,-1,4
 1076 1100 1076 1100 1060 1052 c 5,5,-1
 902 1052 l 5,6,7
 918 1178 918 1178 881 1280 c 132,-1,8
 844 1382 844 1382 760 1432 c 5,9,-1
 932 1432 l 5,10,11
 974 1420 974 1420 994 1384 c 132,-1,12
 1014 1348 1014 1348 1032 1288 c 5,13,14
 1062 1332 1062 1332 1088 1373 c 132,-1,15
 1114 1414 1114 1414 1145 1445 c 132,-1,16
 1176 1476 1176 1476 1216 1496 c 132,-1,17
 1256 1516 1256 1516 1316 1522 c 5,0,1
516 1322 m 5,0,1
 478 1272 478 1272 440 1211 c 132,-1,2
 402 1150 402 1150 367 1086 c 132,-1,3
 332 1022 332 1022 304 961 c 132,-1,4
 276 900 276 900 260 852 c 5,5,-1
 102 852 l 5,6,7
 118 978 118 978 81 1080 c 132,-1,8
 44 1182 44 1182 -40 1232 c 5,9,-1
 132 1232 l 5,10,11
 174 1220 174 1220 194 1184 c 132,-1,12
 214 1148 214 1148 232 1088 c 5,13,14
 262 1132 262 1132 288 1173 c 132,-1,15
 314 1214 314 1214 345 1245 c 132,-1,16
 376 1276 376 1276 416 1296 c 132,-1,17
 456 1316 456 1316 516 1322 c 5,0,1
1048 -84 m 5,0,1
 1032 -82 1032 -82 995 -65 c 132,-1,2
 958 -48 958 -48 920 -15 c 132,-1,3
 882 18 882 18 854 67 c 132,-1,4
 826 116 826 116 828 186 c 6,5,-1
 828 730 l 5,6,7
 756 658 756 658 696 601 c 132,-1,8
 636 544 636 544 581 506 c 132,-1,9
 526 468 526 468 471 448 c 132,-1,10
 416 428 416 428 352 428 c 4,11,12
 256 428 256 428 213 485 c 132,-1,13
 170 542 170 542 170 618 c 4,14,15
 170 628 170 628 175 653 c 132,-1,16
 180 678 180 678 195 705 c 132,-1,17
 210 732 210 732 237 757 c 132,-1,18
 264 782 264 782 308 792 c 4,19,20
 326 796 326 796 343 794 c 132,-1,21
 360 792 360 792 373 787 c 132,-1,22
 386 782 386 782 393 777 c 132,-1,23
 400 772 400 772 400 770 c 5,24,25
 340 792 340 792 307 760 c 132,-1,26
 274 728 274 728 274 674 c 4,27,28
 274 662 274 662 280 647 c 132,-1,29
 286 632 286 632 298 619 c 132,-1,30
 310 606 310 606 329 596 c 132,-1,31
 348 586 348 586 376 586 c 4,32,33
 426 586 426 586 484 603 c 132,-1,34
 542 620 542 620 601 657 c 132,-1,35
 660 694 660 694 718 754 c 132,-1,36
 776 814 776 814 828 900 c 5,37,-1
 1028 900 l 5,38,-1
 1028 186 l 6,39,40
 1028 154 1028 154 1028 116 c 132,-1,41
 1028 78 1028 78 1029 42 c 132,-1,42
 1030 6 1030 6 1034 -27 c 132,-1,43
 1038 -60 1038 -60 1048 -84 c 5,0,1
EndSplineSet
Ligature2: "ccmp-1" period O quotesingle O
Ligature2: "ccmp-1" period O quotesingle o
Ligature2: "ccmp-1" period o quotesingle O
Ligature2: "ccmp-1" period o quotesingle o
Ligature2: "ccmp-0 subtable" period o quotesingle o
Ligature2: "ccmp-0 subtable" period o quotesingle O
Ligature2: "ccmp-0 subtable" period O quotesingle o
Ligature2: "ccmp-0 subtable" period O quotesingle O
Ligature2: "ccmp-1 subtable" period o quotesingle o
Ligature2: "ccmp-1 subtable" period o quotesingle O
Ligature2: "ccmp-1 subtable" period O quotesingle o
Ligature2: "ccmp-1 subtable" period O quotesingle O
EndChar

StartChar: h.ao
Encoding: 286 -1 80
Width: 1200
GlyphClass: 3
Flags: HW
LayerCount: 2
Fore
SplineSet
380 1160 m 6,0,1
 380 1092 380 1092 380 1046 c 132,-1,2
 380 1000 380 1000 379 969 c 132,-1,3
 378 938 378 938 378 920 c 132,-1,4
 378 902 378 902 378 890 c 5,5,6
 352 898 352 898 318 916 c 132,-1,7
 284 934 284 934 253 966 c 132,-1,8
 222 998 222 998 201 1045 c 132,-1,9
 180 1092 180 1092 180 1160 c 6,10,-1
 180 1402 l 5,11,-1
 380 1402 l 5,12,-1
 380 1160 l 6,0,1
1316 1522 m 5,0,1
 1278 1472 1278 1472 1240 1411 c 132,-1,2
 1202 1350 1202 1350 1167 1286 c 132,-1,3
 1132 1222 1132 1222 1104 1161 c 132,-1,4
 1076 1100 1076 1100 1060 1052 c 5,5,-1
 902 1052 l 5,6,7
 918 1178 918 1178 881 1280 c 132,-1,8
 844 1382 844 1382 760 1432 c 5,9,-1
 932 1432 l 5,10,11
 974 1420 974 1420 994 1384 c 132,-1,12
 1014 1348 1014 1348 1032 1288 c 5,13,14
 1062 1332 1062 1332 1088 1373 c 132,-1,15
 1114 1414 1114 1414 1145 1445 c 132,-1,16
 1176 1476 1176 1476 1216 1496 c 132,-1,17
 1256 1516 1256 1516 1316 1522 c 5,0,1
1048 -84 m 5,0,1
 1032 -82 1032 -82 995 -65 c 132,-1,2
 958 -48 958 -48 920 -15 c 132,-1,3
 882 18 882 18 854 67 c 132,-1,4
 826 116 826 116 828 186 c 6,5,-1
 828 730 l 5,6,7
 756 658 756 658 696 601 c 132,-1,8
 636 544 636 544 581 506 c 132,-1,9
 526 468 526 468 471 448 c 132,-1,10
 416 428 416 428 352 428 c 4,11,12
 256 428 256 428 213 485 c 132,-1,13
 170 542 170 542 170 618 c 4,14,15
 170 628 170 628 175 653 c 132,-1,16
 180 678 180 678 195 705 c 132,-1,17
 210 732 210 732 237 757 c 132,-1,18
 264 782 264 782 308 792 c 4,19,20
 326 796 326 796 343 794 c 132,-1,21
 360 792 360 792 373 787 c 132,-1,22
 386 782 386 782 393 777 c 132,-1,23
 400 772 400 772 400 770 c 5,24,25
 340 792 340 792 307 760 c 132,-1,26
 274 728 274 728 274 674 c 4,27,28
 274 662 274 662 280 647 c 132,-1,29
 286 632 286 632 298 619 c 132,-1,30
 310 606 310 606 329 596 c 132,-1,31
 348 586 348 586 376 586 c 4,32,33
 426 586 426 586 484 603 c 132,-1,34
 542 620 542 620 601 657 c 132,-1,35
 660 694 660 694 718 754 c 132,-1,36
 776 814 776 814 828 900 c 5,37,-1
 1028 900 l 5,38,-1
 1028 186 l 6,39,40
 1028 154 1028 154 1028 116 c 132,-1,41
 1028 78 1028 78 1029 42 c 132,-1,42
 1030 6 1030 6 1034 -27 c 132,-1,43
 1038 -60 1038 -60 1048 -84 c 5,0,1
EndSplineSet
Ligature2: "ccmp-1" period A quotesingle O
Ligature2: "ccmp-1" period A quotesingle o
Ligature2: "ccmp-1" period a quotesingle O
Ligature2: "ccmp-1" period a quotesingle o
Ligature2: "ccmp-0 subtable" period a quotesingle o
Ligature2: "ccmp-0 subtable" period a quotesingle O
Ligature2: "ccmp-0 subtable" period A quotesingle o
Ligature2: "ccmp-0 subtable" period A quotesingle O
Ligature2: "ccmp-1 subtable" period a quotesingle o
Ligature2: "ccmp-1 subtable" period a quotesingle O
Ligature2: "ccmp-1 subtable" period A quotesingle o
Ligature2: "ccmp-1 subtable" period A quotesingle O
EndChar

StartChar: h.ua
Encoding: 287 -1 81
Width: 1200
GlyphClass: 3
Flags: HW
LayerCount: 2
Fore
SplineSet
1020 1360 m 6,0,1
 1020 1292 1020 1292 1020 1246 c 132,-1,2
 1020 1200 1020 1200 1019 1169 c 132,-1,3
 1018 1138 1018 1138 1018 1120 c 132,-1,4
 1018 1102 1018 1102 1018 1090 c 5,5,6
 992 1098 992 1098 958 1116 c 132,-1,7
 924 1134 924 1134 893 1166 c 132,-1,8
 862 1198 862 1198 841 1245 c 132,-1,9
 820 1292 820 1292 820 1360 c 6,10,-1
 820 1602 l 5,11,-1
 1020 1602 l 5,12,-1
 1020 1360 l 6,0,1
1048 -84 m 5,0,1
 1032 -82 1032 -82 995 -65 c 132,-1,2
 958 -48 958 -48 920 -15 c 132,-1,3
 882 18 882 18 854 67 c 132,-1,4
 826 116 826 116 828 186 c 6,5,-1
 828 730 l 5,6,7
 756 658 756 658 696 601 c 132,-1,8
 636 544 636 544 581 506 c 132,-1,9
 526 468 526 468 471 448 c 132,-1,10
 416 428 416 428 352 428 c 4,11,12
 256 428 256 428 213 485 c 132,-1,13
 170 542 170 542 170 618 c 4,14,15
 170 628 170 628 175 653 c 132,-1,16
 180 678 180 678 195 705 c 132,-1,17
 210 732 210 732 237 757 c 132,-1,18
 264 782 264 782 308 792 c 4,19,20
 326 796 326 796 343 794 c 132,-1,21
 360 792 360 792 373 787 c 132,-1,22
 386 782 386 782 393 777 c 132,-1,23
 400 772 400 772 400 770 c 5,24,25
 340 792 340 792 307 760 c 132,-1,26
 274 728 274 728 274 674 c 4,27,28
 274 662 274 662 280 647 c 132,-1,29
 286 632 286 632 298 619 c 132,-1,30
 310 606 310 606 329 596 c 132,-1,31
 348 586 348 586 376 586 c 4,32,33
 426 586 426 586 484 603 c 132,-1,34
 542 620 542 620 601 657 c 132,-1,35
 660 694 660 694 718 754 c 132,-1,36
 776 814 776 814 828 900 c 5,37,-1
 1028 900 l 5,38,-1
 1028 186 l 6,39,40
 1028 154 1028 154 1028 116 c 132,-1,41
 1028 78 1028 78 1029 42 c 132,-1,42
 1030 6 1030 6 1034 -27 c 132,-1,43
 1038 -60 1038 -60 1048 -84 c 5,0,1
74 1110 m 4,0,1
 74 1170 74 1170 104 1218 c 132,-1,2
 134 1266 134 1266 192 1270 c 4,3,4
 224 1272 224 1272 245 1253 c 132,-1,5
 266 1234 266 1234 274 1207 c 132,-1,6
 282 1180 282 1180 273 1154 c 132,-1,7
 264 1128 264 1128 234 1116 c 5,8,9
 240 1104 240 1104 261 1099 c 132,-1,10
 282 1094 282 1094 302 1096 c 4,11,12
 342 1098 342 1098 386 1108 c 132,-1,13
 430 1118 430 1118 476 1140 c 132,-1,14
 522 1162 522 1162 568 1198 c 132,-1,15
 614 1234 614 1234 660 1290 c 5,16,17
 652 1206 652 1206 619 1141 c 132,-1,18
 586 1076 586 1076 536 1032 c 132,-1,19
 486 988 486 988 426 964 c 132,-1,20
 366 940 366 940 304 936 c 4,21,22
 256 932 256 932 214 946 c 132,-1,23
 172 960 172 960 141 984 c 132,-1,24
 110 1008 110 1008 92 1041 c 132,-1,25
 74 1074 74 1074 74 1110 c 4,0,1
EndSplineSet
Ligature2: "ccmp-1" period U quotesingle A
Ligature2: "ccmp-1" period U quotesingle a
Ligature2: "ccmp-1" period u quotesingle A
Ligature2: "ccmp-1" period u quotesingle a
Ligature2: "ccmp-0 subtable" period u quotesingle a
Ligature2: "ccmp-0 subtable" period u quotesingle A
Ligature2: "ccmp-0 subtable" period U quotesingle a
Ligature2: "ccmp-0 subtable" period U quotesingle A
Ligature2: "ccmp-1 subtable" period u quotesingle a
Ligature2: "ccmp-1 subtable" period u quotesingle A
Ligature2: "ccmp-1 subtable" period U quotesingle a
Ligature2: "ccmp-1 subtable" period U quotesingle A
EndChar

StartChar: h.ea
Encoding: 288 -1 82
Width: 1200
GlyphClass: 3
Flags: HW
LayerCount: 2
Fore
SplineSet
1020 1360 m 6,0,1
 1020 1292 1020 1292 1020 1246 c 132,-1,2
 1020 1200 1020 1200 1019 1169 c 132,-1,3
 1018 1138 1018 1138 1018 1120 c 132,-1,4
 1018 1102 1018 1102 1018 1090 c 5,5,6
 992 1098 992 1098 958 1116 c 132,-1,7
 924 1134 924 1134 893 1166 c 132,-1,8
 862 1198 862 1198 841 1245 c 132,-1,9
 820 1292 820 1292 820 1360 c 6,10,-1
 820 1602 l 5,11,-1
 1020 1602 l 5,12,-1
 1020 1360 l 6,0,1
492 1048 m 5,0,1
 372 1050 372 1050 290 1049 c 132,-1,2
 208 1048 208 1048 155 1046 c 132,-1,3
 102 1044 102 1044 73 1041 c 132,-1,4
 44 1038 44 1038 30 1034 c 132,-1,5
 16 1030 16 1030 12 1027 c 132,-1,6
 8 1024 8 1024 4 1022 c 6,7,-1
 86 1224 l 5,8,-1
 534 1224 l 5,9,-1
 492 1048 l 5,0,1
1048 -84 m 5,0,1
 1032 -82 1032 -82 995 -65 c 132,-1,2
 958 -48 958 -48 920 -15 c 132,-1,3
 882 18 882 18 854 67 c 132,-1,4
 826 116 826 116 828 186 c 6,5,-1
 828 730 l 5,6,7
 756 658 756 658 696 601 c 132,-1,8
 636 544 636 544 581 506 c 132,-1,9
 526 468 526 468 471 448 c 132,-1,10
 416 428 416 428 352 428 c 4,11,12
 256 428 256 428 213 485 c 132,-1,13
 170 542 170 542 170 618 c 4,14,15
 170 628 170 628 175 653 c 132,-1,16
 180 678 180 678 195 705 c 132,-1,17
 210 732 210 732 237 757 c 132,-1,18
 264 782 264 782 308 792 c 4,19,20
 326 796 326 796 343 794 c 132,-1,21
 360 792 360 792 373 787 c 132,-1,22
 386 782 386 782 393 777 c 132,-1,23
 400 772 400 772 400 770 c 5,24,25
 340 792 340 792 307 760 c 132,-1,26
 274 728 274 728 274 674 c 4,27,28
 274 662 274 662 280 647 c 132,-1,29
 286 632 286 632 298 619 c 132,-1,30
 310 606 310 606 329 596 c 132,-1,31
 348 586 348 586 376 586 c 4,32,33
 426 586 426 586 484 603 c 132,-1,34
 542 620 542 620 601 657 c 132,-1,35
 660 694 660 694 718 754 c 132,-1,36
 776 814 776 814 828 900 c 5,37,-1
 1028 900 l 5,38,-1
 1028 186 l 6,39,40
 1028 154 1028 154 1028 116 c 132,-1,41
 1028 78 1028 78 1029 42 c 132,-1,42
 1030 6 1030 6 1034 -27 c 132,-1,43
 1038 -60 1038 -60 1048 -84 c 5,0,1
EndSplineSet
Ligature2: "ccmp-1" period E quotesingle A
Ligature2: "ccmp-1" period E quotesingle a
Ligature2: "ccmp-1" period e quotesingle A
Ligature2: "ccmp-1" period e quotesingle a
Ligature2: "ccmp-0 subtable" period e quotesingle a
Ligature2: "ccmp-0 subtable" period e quotesingle A
Ligature2: "ccmp-0 subtable" period E quotesingle a
Ligature2: "ccmp-0 subtable" period E quotesingle A
Ligature2: "ccmp-1 subtable" period e quotesingle a
Ligature2: "ccmp-1 subtable" period e quotesingle A
Ligature2: "ccmp-1 subtable" period E quotesingle a
Ligature2: "ccmp-1 subtable" period E quotesingle A
EndChar

StartChar: h.ia
Encoding: 289 -1 83
Width: 1200
GlyphClass: 3
Flags: HW
LayerCount: 2
Fore
SplineSet
1020 1360 m 6,0,1
 1020 1292 1020 1292 1020 1246 c 132,-1,2
 1020 1200 1020 1200 1019 1169 c 132,-1,3
 1018 1138 1018 1138 1018 1120 c 132,-1,4
 1018 1102 1018 1102 1018 1090 c 5,5,6
 992 1098 992 1098 958 1116 c 132,-1,7
 924 1134 924 1134 893 1166 c 132,-1,8
 862 1198 862 1198 841 1245 c 132,-1,9
 820 1292 820 1292 820 1360 c 6,10,-1
 820 1602 l 5,11,-1
 1020 1602 l 5,12,-1
 1020 1360 l 6,0,1
162 1130 m 4,0,1
 162 1188 162 1188 203 1229 c 132,-1,2
 244 1270 244 1270 300 1270 c 4,3,4
 358 1270 358 1270 399 1229 c 132,-1,5
 440 1188 440 1188 440 1130 c 4,6,7
 440 1074 440 1074 399 1033 c 132,-1,8
 358 992 358 992 300 992 c 4,9,10
 244 992 244 992 203 1033 c 132,-1,11
 162 1074 162 1074 162 1130 c 4,0,1
1048 -84 m 5,0,1
 1032 -82 1032 -82 995 -65 c 132,-1,2
 958 -48 958 -48 920 -15 c 132,-1,3
 882 18 882 18 854 67 c 132,-1,4
 826 116 826 116 828 186 c 6,5,-1
 828 730 l 5,6,7
 756 658 756 658 696 601 c 132,-1,8
 636 544 636 544 581 506 c 132,-1,9
 526 468 526 468 471 448 c 132,-1,10
 416 428 416 428 352 428 c 4,11,12
 256 428 256 428 213 485 c 132,-1,13
 170 542 170 542 170 618 c 4,14,15
 170 628 170 628 175 653 c 132,-1,16
 180 678 180 678 195 705 c 132,-1,17
 210 732 210 732 237 757 c 132,-1,18
 264 782 264 782 308 792 c 4,19,20
 326 796 326 796 343 794 c 132,-1,21
 360 792 360 792 373 787 c 132,-1,22
 386 782 386 782 393 777 c 132,-1,23
 400 772 400 772 400 770 c 5,24,25
 340 792 340 792 307 760 c 132,-1,26
 274 728 274 728 274 674 c 4,27,28
 274 662 274 662 280 647 c 132,-1,29
 286 632 286 632 298 619 c 132,-1,30
 310 606 310 606 329 596 c 132,-1,31
 348 586 348 586 376 586 c 4,32,33
 426 586 426 586 484 603 c 132,-1,34
 542 620 542 620 601 657 c 132,-1,35
 660 694 660 694 718 754 c 132,-1,36
 776 814 776 814 828 900 c 5,37,-1
 1028 900 l 5,38,-1
 1028 186 l 6,39,40
 1028 154 1028 154 1028 116 c 132,-1,41
 1028 78 1028 78 1029 42 c 132,-1,42
 1030 6 1030 6 1034 -27 c 132,-1,43
 1038 -60 1038 -60 1048 -84 c 5,0,1
EndSplineSet
Ligature2: "ccmp-1" period I quotesingle A
Ligature2: "ccmp-1" period I quotesingle a
Ligature2: "ccmp-1" period i quotesingle A
Ligature2: "ccmp-1" period i quotesingle a
Ligature2: "ccmp-0 subtable" period i quotesingle a
Ligature2: "ccmp-0 subtable" period i quotesingle A
Ligature2: "ccmp-0 subtable" period I quotesingle a
Ligature2: "ccmp-0 subtable" period I quotesingle A
Ligature2: "ccmp-1 subtable" period i quotesingle a
Ligature2: "ccmp-1 subtable" period i quotesingle A
Ligature2: "ccmp-1 subtable" period I quotesingle a
Ligature2: "ccmp-1 subtable" period I quotesingle A
EndChar

StartChar: h.oa
Encoding: 290 -1 84
Width: 1200
GlyphClass: 3
Flags: HW
LayerCount: 2
Fore
SplineSet
1020 1360 m 6,0,1
 1020 1292 1020 1292 1020 1246 c 132,-1,2
 1020 1200 1020 1200 1019 1169 c 132,-1,3
 1018 1138 1018 1138 1018 1120 c 132,-1,4
 1018 1102 1018 1102 1018 1090 c 5,5,6
 992 1098 992 1098 958 1116 c 132,-1,7
 924 1134 924 1134 893 1166 c 132,-1,8
 862 1198 862 1198 841 1245 c 132,-1,9
 820 1292 820 1292 820 1360 c 6,10,-1
 820 1602 l 5,11,-1
 1020 1602 l 5,12,-1
 1020 1360 l 6,0,1
516 1322 m 5,0,1
 478 1272 478 1272 440 1211 c 132,-1,2
 402 1150 402 1150 367 1086 c 132,-1,3
 332 1022 332 1022 304 961 c 132,-1,4
 276 900 276 900 260 852 c 5,5,-1
 102 852 l 5,6,7
 118 978 118 978 81 1080 c 132,-1,8
 44 1182 44 1182 -40 1232 c 5,9,-1
 132 1232 l 5,10,11
 174 1220 174 1220 194 1184 c 132,-1,12
 214 1148 214 1148 232 1088 c 5,13,14
 262 1132 262 1132 288 1173 c 132,-1,15
 314 1214 314 1214 345 1245 c 132,-1,16
 376 1276 376 1276 416 1296 c 132,-1,17
 456 1316 456 1316 516 1322 c 5,0,1
1048 -84 m 5,0,1
 1032 -82 1032 -82 995 -65 c 132,-1,2
 958 -48 958 -48 920 -15 c 132,-1,3
 882 18 882 18 854 67 c 132,-1,4
 826 116 826 116 828 186 c 6,5,-1
 828 730 l 5,6,7
 756 658 756 658 696 601 c 132,-1,8
 636 544 636 544 581 506 c 132,-1,9
 526 468 526 468 471 448 c 132,-1,10
 416 428 416 428 352 428 c 4,11,12
 256 428 256 428 213 485 c 132,-1,13
 170 542 170 542 170 618 c 4,14,15
 170 628 170 628 175 653 c 132,-1,16
 180 678 180 678 195 705 c 132,-1,17
 210 732 210 732 237 757 c 132,-1,18
 264 782 264 782 308 792 c 4,19,20
 326 796 326 796 343 794 c 132,-1,21
 360 792 360 792 373 787 c 132,-1,22
 386 782 386 782 393 777 c 132,-1,23
 400 772 400 772 400 770 c 5,24,25
 340 792 340 792 307 760 c 132,-1,26
 274 728 274 728 274 674 c 4,27,28
 274 662 274 662 280 647 c 132,-1,29
 286 632 286 632 298 619 c 132,-1,30
 310 606 310 606 329 596 c 132,-1,31
 348 586 348 586 376 586 c 4,32,33
 426 586 426 586 484 603 c 132,-1,34
 542 620 542 620 601 657 c 132,-1,35
 660 694 660 694 718 754 c 132,-1,36
 776 814 776 814 828 900 c 5,37,-1
 1028 900 l 5,38,-1
 1028 186 l 6,39,40
 1028 154 1028 154 1028 116 c 132,-1,41
 1028 78 1028 78 1029 42 c 132,-1,42
 1030 6 1030 6 1034 -27 c 132,-1,43
 1038 -60 1038 -60 1048 -84 c 5,0,1
EndSplineSet
Ligature2: "ccmp-1" period O quotesingle A
Ligature2: "ccmp-1" period O quotesingle a
Ligature2: "ccmp-1" period o quotesingle A
Ligature2: "ccmp-1" period o quotesingle a
Ligature2: "ccmp-0 subtable" period o quotesingle a
Ligature2: "ccmp-0 subtable" period o quotesingle A
Ligature2: "ccmp-0 subtable" period O quotesingle a
Ligature2: "ccmp-0 subtable" period O quotesingle A
Ligature2: "ccmp-1 subtable" period o quotesingle a
Ligature2: "ccmp-1 subtable" period o quotesingle A
Ligature2: "ccmp-1 subtable" period O quotesingle a
Ligature2: "ccmp-1 subtable" period O quotesingle A
EndChar

StartChar: h.aa
Encoding: 291 -1 85
Width: 1200
GlyphClass: 3
Flags: HW
LayerCount: 2
Fore
SplineSet
380 1160 m 6,0,1
 380 1092 380 1092 380 1046 c 132,-1,2
 380 1000 380 1000 379 969 c 132,-1,3
 378 938 378 938 378 920 c 132,-1,4
 378 902 378 902 378 890 c 5,5,6
 352 898 352 898 318 916 c 132,-1,7
 284 934 284 934 253 966 c 132,-1,8
 222 998 222 998 201 1045 c 132,-1,9
 180 1092 180 1092 180 1160 c 6,10,-1
 180 1402 l 5,11,-1
 380 1402 l 5,12,-1
 380 1160 l 6,0,1
1020 1360 m 6,0,1
 1020 1292 1020 1292 1020 1246 c 132,-1,2
 1020 1200 1020 1200 1019 1169 c 132,-1,3
 1018 1138 1018 1138 1018 1120 c 132,-1,4
 1018 1102 1018 1102 1018 1090 c 5,5,6
 992 1098 992 1098 958 1116 c 132,-1,7
 924 1134 924 1134 893 1166 c 132,-1,8
 862 1198 862 1198 841 1245 c 132,-1,9
 820 1292 820 1292 820 1360 c 6,10,-1
 820 1602 l 5,11,-1
 1020 1602 l 5,12,-1
 1020 1360 l 6,0,1
1048 -84 m 5,0,1
 1032 -82 1032 -82 995 -65 c 132,-1,2
 958 -48 958 -48 920 -15 c 132,-1,3
 882 18 882 18 854 67 c 132,-1,4
 826 116 826 116 828 186 c 6,5,-1
 828 730 l 5,6,7
 756 658 756 658 696 601 c 132,-1,8
 636 544 636 544 581 506 c 132,-1,9
 526 468 526 468 471 448 c 132,-1,10
 416 428 416 428 352 428 c 4,11,12
 256 428 256 428 213 485 c 132,-1,13
 170 542 170 542 170 618 c 4,14,15
 170 628 170 628 175 653 c 132,-1,16
 180 678 180 678 195 705 c 132,-1,17
 210 732 210 732 237 757 c 132,-1,18
 264 782 264 782 308 792 c 4,19,20
 326 796 326 796 343 794 c 132,-1,21
 360 792 360 792 373 787 c 132,-1,22
 386 782 386 782 393 777 c 132,-1,23
 400 772 400 772 400 770 c 5,24,25
 340 792 340 792 307 760 c 132,-1,26
 274 728 274 728 274 674 c 4,27,28
 274 662 274 662 280 647 c 132,-1,29
 286 632 286 632 298 619 c 132,-1,30
 310 606 310 606 329 596 c 132,-1,31
 348 586 348 586 376 586 c 4,32,33
 426 586 426 586 484 603 c 132,-1,34
 542 620 542 620 601 657 c 132,-1,35
 660 694 660 694 718 754 c 132,-1,36
 776 814 776 814 828 900 c 5,37,-1
 1028 900 l 5,38,-1
 1028 186 l 6,39,40
 1028 154 1028 154 1028 116 c 132,-1,41
 1028 78 1028 78 1029 42 c 132,-1,42
 1030 6 1030 6 1034 -27 c 132,-1,43
 1038 -60 1038 -60 1048 -84 c 5,0,1
EndSplineSet
Ligature2: "ccmp-1" period A quotesingle A
Ligature2: "ccmp-1" period A quotesingle a
Ligature2: "ccmp-1" period a quotesingle A
Ligature2: "ccmp-1" period a quotesingle a
Ligature2: "ccmp-0 subtable" period a quotesingle a
Ligature2: "ccmp-0 subtable" period a quotesingle A
Ligature2: "ccmp-0 subtable" period A quotesingle a
Ligature2: "ccmp-0 subtable" period A quotesingle A
Ligature2: "ccmp-1 subtable" period a quotesingle a
Ligature2: "ccmp-1 subtable" period a quotesingle A
Ligature2: "ccmp-1 subtable" period A quotesingle a
Ligature2: "ccmp-1 subtable" period A quotesingle A
EndChar

StartChar: h.ue
Encoding: 292 -1 86
Width: 1200
GlyphClass: 3
Flags: HW
LayerCount: 2
Fore
SplineSet
1172 1288 m 5,0,1
 1052 1290 1052 1290 970 1289 c 132,-1,2
 888 1288 888 1288 835 1286 c 132,-1,3
 782 1284 782 1284 753 1281 c 132,-1,4
 724 1278 724 1278 710 1274 c 132,-1,5
 696 1270 696 1270 692 1267 c 132,-1,6
 688 1264 688 1264 684 1262 c 6,7,-1
 766 1464 l 5,8,-1
 1214 1464 l 5,9,-1
 1172 1288 l 5,0,1
1048 -84 m 5,0,1
 1032 -82 1032 -82 995 -65 c 132,-1,2
 958 -48 958 -48 920 -15 c 132,-1,3
 882 18 882 18 854 67 c 132,-1,4
 826 116 826 116 828 186 c 6,5,-1
 828 730 l 5,6,7
 756 658 756 658 696 601 c 132,-1,8
 636 544 636 544 581 506 c 132,-1,9
 526 468 526 468 471 448 c 132,-1,10
 416 428 416 428 352 428 c 4,11,12
 256 428 256 428 213 485 c 132,-1,13
 170 542 170 542 170 618 c 4,14,15
 170 628 170 628 175 653 c 132,-1,16
 180 678 180 678 195 705 c 132,-1,17
 210 732 210 732 237 757 c 132,-1,18
 264 782 264 782 308 792 c 4,19,20
 326 796 326 796 343 794 c 132,-1,21
 360 792 360 792 373 787 c 132,-1,22
 386 782 386 782 393 777 c 132,-1,23
 400 772 400 772 400 770 c 5,24,25
 340 792 340 792 307 760 c 132,-1,26
 274 728 274 728 274 674 c 4,27,28
 274 662 274 662 280 647 c 132,-1,29
 286 632 286 632 298 619 c 132,-1,30
 310 606 310 606 329 596 c 132,-1,31
 348 586 348 586 376 586 c 4,32,33
 426 586 426 586 484 603 c 132,-1,34
 542 620 542 620 601 657 c 132,-1,35
 660 694 660 694 718 754 c 132,-1,36
 776 814 776 814 828 900 c 5,37,-1
 1028 900 l 5,38,-1
 1028 186 l 6,39,40
 1028 154 1028 154 1028 116 c 132,-1,41
 1028 78 1028 78 1029 42 c 132,-1,42
 1030 6 1030 6 1034 -27 c 132,-1,43
 1038 -60 1038 -60 1048 -84 c 5,0,1
74 1110 m 4,0,1
 74 1170 74 1170 104 1218 c 132,-1,2
 134 1266 134 1266 192 1270 c 4,3,4
 224 1272 224 1272 245 1253 c 132,-1,5
 266 1234 266 1234 274 1207 c 132,-1,6
 282 1180 282 1180 273 1154 c 132,-1,7
 264 1128 264 1128 234 1116 c 5,8,9
 240 1104 240 1104 261 1099 c 132,-1,10
 282 1094 282 1094 302 1096 c 4,11,12
 342 1098 342 1098 386 1108 c 132,-1,13
 430 1118 430 1118 476 1140 c 132,-1,14
 522 1162 522 1162 568 1198 c 132,-1,15
 614 1234 614 1234 660 1290 c 5,16,17
 652 1206 652 1206 619 1141 c 132,-1,18
 586 1076 586 1076 536 1032 c 132,-1,19
 486 988 486 988 426 964 c 132,-1,20
 366 940 366 940 304 936 c 4,21,22
 256 932 256 932 214 946 c 132,-1,23
 172 960 172 960 141 984 c 132,-1,24
 110 1008 110 1008 92 1041 c 132,-1,25
 74 1074 74 1074 74 1110 c 4,0,1
EndSplineSet
Ligature2: "ccmp-1" period U quotesingle E
Ligature2: "ccmp-1" period U quotesingle e
Ligature2: "ccmp-1" period u quotesingle E
Ligature2: "ccmp-1" period u quotesingle e
Ligature2: "ccmp-0 subtable" period u quotesingle e
Ligature2: "ccmp-0 subtable" period u quotesingle E
Ligature2: "ccmp-0 subtable" period U quotesingle e
Ligature2: "ccmp-0 subtable" period U quotesingle E
Ligature2: "ccmp-1 subtable" period u quotesingle e
Ligature2: "ccmp-1 subtable" period u quotesingle E
Ligature2: "ccmp-1 subtable" period U quotesingle e
Ligature2: "ccmp-1 subtable" period U quotesingle E
EndChar

StartChar: h.ee
Encoding: 293 -1 87
Width: 1200
GlyphClass: 3
Flags: HW
LayerCount: 2
Fore
SplineSet
492 1048 m 5,0,1
 372 1050 372 1050 290 1049 c 132,-1,2
 208 1048 208 1048 155 1046 c 132,-1,3
 102 1044 102 1044 73 1041 c 132,-1,4
 44 1038 44 1038 30 1034 c 132,-1,5
 16 1030 16 1030 12 1027 c 132,-1,6
 8 1024 8 1024 4 1022 c 6,7,-1
 86 1224 l 5,8,-1
 534 1224 l 5,9,-1
 492 1048 l 5,0,1
1172 1288 m 5,0,1
 1052 1290 1052 1290 970 1289 c 132,-1,2
 888 1288 888 1288 835 1286 c 132,-1,3
 782 1284 782 1284 753 1281 c 132,-1,4
 724 1278 724 1278 710 1274 c 132,-1,5
 696 1270 696 1270 692 1267 c 132,-1,6
 688 1264 688 1264 684 1262 c 6,7,-1
 766 1464 l 5,8,-1
 1214 1464 l 5,9,-1
 1172 1288 l 5,0,1
1048 -84 m 5,0,1
 1032 -82 1032 -82 995 -65 c 132,-1,2
 958 -48 958 -48 920 -15 c 132,-1,3
 882 18 882 18 854 67 c 132,-1,4
 826 116 826 116 828 186 c 6,5,-1
 828 730 l 5,6,7
 756 658 756 658 696 601 c 132,-1,8
 636 544 636 544 581 506 c 132,-1,9
 526 468 526 468 471 448 c 132,-1,10
 416 428 416 428 352 428 c 4,11,12
 256 428 256 428 213 485 c 132,-1,13
 170 542 170 542 170 618 c 4,14,15
 170 628 170 628 175 653 c 132,-1,16
 180 678 180 678 195 705 c 132,-1,17
 210 732 210 732 237 757 c 132,-1,18
 264 782 264 782 308 792 c 4,19,20
 326 796 326 796 343 794 c 132,-1,21
 360 792 360 792 373 787 c 132,-1,22
 386 782 386 782 393 777 c 132,-1,23
 400 772 400 772 400 770 c 5,24,25
 340 792 340 792 307 760 c 132,-1,26
 274 728 274 728 274 674 c 4,27,28
 274 662 274 662 280 647 c 132,-1,29
 286 632 286 632 298 619 c 132,-1,30
 310 606 310 606 329 596 c 132,-1,31
 348 586 348 586 376 586 c 4,32,33
 426 586 426 586 484 603 c 132,-1,34
 542 620 542 620 601 657 c 132,-1,35
 660 694 660 694 718 754 c 132,-1,36
 776 814 776 814 828 900 c 5,37,-1
 1028 900 l 5,38,-1
 1028 186 l 6,39,40
 1028 154 1028 154 1028 116 c 132,-1,41
 1028 78 1028 78 1029 42 c 132,-1,42
 1030 6 1030 6 1034 -27 c 132,-1,43
 1038 -60 1038 -60 1048 -84 c 5,0,1
EndSplineSet
Ligature2: "ccmp-1" period E quotesingle E
Ligature2: "ccmp-1" period E quotesingle e
Ligature2: "ccmp-1" period e quotesingle E
Ligature2: "ccmp-1" period e quotesingle e
Ligature2: "ccmp-0 subtable" period e quotesingle e
Ligature2: "ccmp-0 subtable" period e quotesingle E
Ligature2: "ccmp-0 subtable" period E quotesingle e
Ligature2: "ccmp-0 subtable" period E quotesingle E
Ligature2: "ccmp-1 subtable" period e quotesingle e
Ligature2: "ccmp-1 subtable" period e quotesingle E
Ligature2: "ccmp-1 subtable" period E quotesingle e
Ligature2: "ccmp-1 subtable" period E quotesingle E
EndChar

StartChar: h.ie
Encoding: 294 -1 88
Width: 1200
GlyphClass: 3
Flags: HW
LayerCount: 2
Fore
SplineSet
142 1130 m 4,0,1
 142 1188 142 1188 183 1229 c 132,-1,2
 224 1270 224 1270 280 1270 c 4,3,4
 338 1270 338 1270 379 1229 c 132,-1,5
 420 1188 420 1188 420 1130 c 4,6,7
 420 1074 420 1074 379 1033 c 132,-1,8
 338 992 338 992 280 992 c 4,9,10
 224 992 224 992 183 1033 c 132,-1,11
 142 1074 142 1074 142 1130 c 4,0,1
1172 1288 m 5,0,1
 1052 1290 1052 1290 970 1289 c 132,-1,2
 888 1288 888 1288 835 1286 c 132,-1,3
 782 1284 782 1284 753 1281 c 132,-1,4
 724 1278 724 1278 710 1274 c 132,-1,5
 696 1270 696 1270 692 1267 c 132,-1,6
 688 1264 688 1264 684 1262 c 6,7,-1
 766 1464 l 5,8,-1
 1214 1464 l 5,9,-1
 1172 1288 l 5,0,1
1048 -84 m 5,0,1
 1032 -82 1032 -82 995 -65 c 132,-1,2
 958 -48 958 -48 920 -15 c 132,-1,3
 882 18 882 18 854 67 c 132,-1,4
 826 116 826 116 828 186 c 6,5,-1
 828 730 l 5,6,7
 756 658 756 658 696 601 c 132,-1,8
 636 544 636 544 581 506 c 132,-1,9
 526 468 526 468 471 448 c 132,-1,10
 416 428 416 428 352 428 c 4,11,12
 256 428 256 428 213 485 c 132,-1,13
 170 542 170 542 170 618 c 4,14,15
 170 628 170 628 175 653 c 132,-1,16
 180 678 180 678 195 705 c 132,-1,17
 210 732 210 732 237 757 c 132,-1,18
 264 782 264 782 308 792 c 4,19,20
 326 796 326 796 343 794 c 132,-1,21
 360 792 360 792 373 787 c 132,-1,22
 386 782 386 782 393 777 c 132,-1,23
 400 772 400 772 400 770 c 5,24,25
 340 792 340 792 307 760 c 132,-1,26
 274 728 274 728 274 674 c 4,27,28
 274 662 274 662 280 647 c 132,-1,29
 286 632 286 632 298 619 c 132,-1,30
 310 606 310 606 329 596 c 132,-1,31
 348 586 348 586 376 586 c 4,32,33
 426 586 426 586 484 603 c 132,-1,34
 542 620 542 620 601 657 c 132,-1,35
 660 694 660 694 718 754 c 132,-1,36
 776 814 776 814 828 900 c 5,37,-1
 1028 900 l 5,38,-1
 1028 186 l 6,39,40
 1028 154 1028 154 1028 116 c 132,-1,41
 1028 78 1028 78 1029 42 c 132,-1,42
 1030 6 1030 6 1034 -27 c 132,-1,43
 1038 -60 1038 -60 1048 -84 c 5,0,1
EndSplineSet
Ligature2: "ccmp-1" period I quotesingle E
Ligature2: "ccmp-1" period I quotesingle e
Ligature2: "ccmp-1" period i quotesingle E
Ligature2: "ccmp-1" period i quotesingle e
Ligature2: "ccmp-0 subtable" period i quotesingle e
Ligature2: "ccmp-0 subtable" period i quotesingle E
Ligature2: "ccmp-0 subtable" period I quotesingle e
Ligature2: "ccmp-0 subtable" period I quotesingle E
Ligature2: "ccmp-1 subtable" period i quotesingle e
Ligature2: "ccmp-1 subtable" period i quotesingle E
Ligature2: "ccmp-1 subtable" period I quotesingle e
Ligature2: "ccmp-1 subtable" period I quotesingle E
EndChar

StartChar: h.oe
Encoding: 295 -1 89
Width: 1200
GlyphClass: 3
Flags: HW
LayerCount: 2
Fore
SplineSet
1172 1288 m 5,0,1
 1052 1290 1052 1290 970 1289 c 132,-1,2
 888 1288 888 1288 835 1286 c 132,-1,3
 782 1284 782 1284 753 1281 c 132,-1,4
 724 1278 724 1278 710 1274 c 132,-1,5
 696 1270 696 1270 692 1267 c 132,-1,6
 688 1264 688 1264 684 1262 c 6,7,-1
 766 1464 l 5,8,-1
 1214 1464 l 5,9,-1
 1172 1288 l 5,0,1
516 1322 m 5,0,1
 478 1272 478 1272 440 1211 c 132,-1,2
 402 1150 402 1150 367 1086 c 132,-1,3
 332 1022 332 1022 304 961 c 132,-1,4
 276 900 276 900 260 852 c 5,5,-1
 102 852 l 5,6,7
 118 978 118 978 81 1080 c 132,-1,8
 44 1182 44 1182 -40 1232 c 5,9,-1
 132 1232 l 5,10,11
 174 1220 174 1220 194 1184 c 132,-1,12
 214 1148 214 1148 232 1088 c 5,13,14
 262 1132 262 1132 288 1173 c 132,-1,15
 314 1214 314 1214 345 1245 c 132,-1,16
 376 1276 376 1276 416 1296 c 132,-1,17
 456 1316 456 1316 516 1322 c 5,0,1
1048 -84 m 5,0,1
 1032 -82 1032 -82 995 -65 c 132,-1,2
 958 -48 958 -48 920 -15 c 132,-1,3
 882 18 882 18 854 67 c 132,-1,4
 826 116 826 116 828 186 c 6,5,-1
 828 730 l 5,6,7
 756 658 756 658 696 601 c 132,-1,8
 636 544 636 544 581 506 c 132,-1,9
 526 468 526 468 471 448 c 132,-1,10
 416 428 416 428 352 428 c 4,11,12
 256 428 256 428 213 485 c 132,-1,13
 170 542 170 542 170 618 c 4,14,15
 170 628 170 628 175 653 c 132,-1,16
 180 678 180 678 195 705 c 132,-1,17
 210 732 210 732 237 757 c 132,-1,18
 264 782 264 782 308 792 c 4,19,20
 326 796 326 796 343 794 c 132,-1,21
 360 792 360 792 373 787 c 132,-1,22
 386 782 386 782 393 777 c 132,-1,23
 400 772 400 772 400 770 c 5,24,25
 340 792 340 792 307 760 c 132,-1,26
 274 728 274 728 274 674 c 4,27,28
 274 662 274 662 280 647 c 132,-1,29
 286 632 286 632 298 619 c 132,-1,30
 310 606 310 606 329 596 c 132,-1,31
 348 586 348 586 376 586 c 4,32,33
 426 586 426 586 484 603 c 132,-1,34
 542 620 542 620 601 657 c 132,-1,35
 660 694 660 694 718 754 c 132,-1,36
 776 814 776 814 828 900 c 5,37,-1
 1028 900 l 5,38,-1
 1028 186 l 6,39,40
 1028 154 1028 154 1028 116 c 132,-1,41
 1028 78 1028 78 1029 42 c 132,-1,42
 1030 6 1030 6 1034 -27 c 132,-1,43
 1038 -60 1038 -60 1048 -84 c 5,0,1
EndSplineSet
LCarets2: 3 0 0 0
Ligature2: "ccmp-1" period O quotesingle E
Ligature2: "ccmp-1" period O quotesingle e
Ligature2: "ccmp-1" period o quotesingle E
Ligature2: "ccmp-1" period o quotesingle e
Ligature2: "ccmp-0 subtable" period o quotesingle e
Ligature2: "ccmp-0 subtable" period o quotesingle E
Ligature2: "ccmp-0 subtable" period O quotesingle e
Ligature2: "ccmp-0 subtable" period O quotesingle E
Ligature2: "ccmp-1 subtable" period o quotesingle e
Ligature2: "ccmp-1 subtable" period o quotesingle E
Ligature2: "ccmp-1 subtable" period O quotesingle e
Ligature2: "ccmp-1 subtable" period O quotesingle E
EndChar

StartChar: h.ae
Encoding: 296 -1 90
Width: 1200
GlyphClass: 3
Flags: HW
LayerCount: 2
Fore
SplineSet
380 1160 m 6,0,1
 380 1092 380 1092 380 1046 c 132,-1,2
 380 1000 380 1000 379 969 c 132,-1,3
 378 938 378 938 378 920 c 132,-1,4
 378 902 378 902 378 890 c 5,5,6
 352 898 352 898 318 916 c 132,-1,7
 284 934 284 934 253 966 c 132,-1,8
 222 998 222 998 201 1045 c 132,-1,9
 180 1092 180 1092 180 1160 c 6,10,-1
 180 1402 l 5,11,-1
 380 1402 l 5,12,-1
 380 1160 l 6,0,1
1172 1288 m 5,0,1
 1052 1290 1052 1290 970 1289 c 132,-1,2
 888 1288 888 1288 835 1286 c 132,-1,3
 782 1284 782 1284 753 1281 c 132,-1,4
 724 1278 724 1278 710 1274 c 132,-1,5
 696 1270 696 1270 692 1267 c 132,-1,6
 688 1264 688 1264 684 1262 c 6,7,-1
 766 1464 l 5,8,-1
 1214 1464 l 5,9,-1
 1172 1288 l 5,0,1
1048 -84 m 5,0,1
 1032 -82 1032 -82 995 -65 c 132,-1,2
 958 -48 958 -48 920 -15 c 132,-1,3
 882 18 882 18 854 67 c 132,-1,4
 826 116 826 116 828 186 c 6,5,-1
 828 730 l 5,6,7
 756 658 756 658 696 601 c 132,-1,8
 636 544 636 544 581 506 c 132,-1,9
 526 468 526 468 471 448 c 132,-1,10
 416 428 416 428 352 428 c 4,11,12
 256 428 256 428 213 485 c 132,-1,13
 170 542 170 542 170 618 c 4,14,15
 170 628 170 628 175 653 c 132,-1,16
 180 678 180 678 195 705 c 132,-1,17
 210 732 210 732 237 757 c 132,-1,18
 264 782 264 782 308 792 c 4,19,20
 326 796 326 796 343 794 c 132,-1,21
 360 792 360 792 373 787 c 132,-1,22
 386 782 386 782 393 777 c 132,-1,23
 400 772 400 772 400 770 c 5,24,25
 340 792 340 792 307 760 c 132,-1,26
 274 728 274 728 274 674 c 4,27,28
 274 662 274 662 280 647 c 132,-1,29
 286 632 286 632 298 619 c 132,-1,30
 310 606 310 606 329 596 c 132,-1,31
 348 586 348 586 376 586 c 4,32,33
 426 586 426 586 484 603 c 132,-1,34
 542 620 542 620 601 657 c 132,-1,35
 660 694 660 694 718 754 c 132,-1,36
 776 814 776 814 828 900 c 5,37,-1
 1028 900 l 5,38,-1
 1028 186 l 6,39,40
 1028 154 1028 154 1028 116 c 132,-1,41
 1028 78 1028 78 1029 42 c 132,-1,42
 1030 6 1030 6 1034 -27 c 132,-1,43
 1038 -60 1038 -60 1048 -84 c 5,0,1
EndSplineSet
Ligature2: "ccmp-1" period A quotesingle E
Ligature2: "ccmp-1" period A quotesingle e
Ligature2: "ccmp-1" period a quotesingle E
Ligature2: "ccmp-1" period a quotesingle e
Ligature2: "ccmp-0 subtable" period a quotesingle e
Ligature2: "ccmp-0 subtable" period a quotesingle E
Ligature2: "ccmp-0 subtable" period A quotesingle e
Ligature2: "ccmp-0 subtable" period A quotesingle E
Ligature2: "ccmp-1 subtable" period a quotesingle e
Ligature2: "ccmp-1 subtable" period a quotesingle E
Ligature2: "ccmp-1 subtable" period A quotesingle e
Ligature2: "ccmp-1 subtable" period A quotesingle E
EndChar

StartChar: h.aiy
Encoding: 297 -1 91
Width: 1200
GlyphClass: 3
Flags: HW
LayerCount: 2
Fore
SplineSet
676 1350 m 260,0,1
 676 1398 676 1398 694 1439 c 132,-1,2
 712 1480 712 1480 743 1511 c 132,-1,3
 774 1542 774 1542 815 1560 c 132,-1,4
 856 1578 856 1578 904 1578 c 260,5,6
 952 1578 952 1578 993 1560 c 132,-1,7
 1034 1542 1034 1542 1065 1511 c 132,-1,8
 1096 1480 1096 1480 1114 1439 c 132,-1,9
 1132 1398 1132 1398 1132 1350 c 260,10,11
 1132 1302 1132 1302 1114 1261 c 132,-1,12
 1096 1220 1096 1220 1065 1189 c 132,-1,13
 1034 1158 1034 1158 993 1140 c 132,-1,14
 952 1122 952 1122 904 1122 c 260,15,16
 856 1122 856 1122 815 1140 c 132,-1,17
 774 1158 774 1158 743 1189 c 132,-1,18
 712 1220 712 1220 694 1261 c 132,-1,19
 676 1302 676 1302 676 1350 c 260,0,1
754 1350 m 260,20,21
 754 1286 754 1286 797 1243 c 132,-1,22
 840 1200 840 1200 904 1200 c 260,23,24
 968 1200 968 1200 1012 1243 c 132,-1,25
 1056 1286 1056 1286 1056 1350 c 260,26,27
 1056 1414 1056 1414 1012 1458 c 132,-1,28
 968 1502 968 1502 904 1502 c 260,29,30
 840 1502 840 1502 797 1458 c 132,-1,31
 754 1414 754 1414 754 1350 c 260,20,21
1048 -84 m 5,0,1
 1032 -82 1032 -82 995 -65 c 132,-1,2
 958 -48 958 -48 920 -15 c 132,-1,3
 882 18 882 18 854 67 c 132,-1,4
 826 116 826 116 828 186 c 6,5,-1
 828 730 l 5,6,7
 756 658 756 658 696 601 c 132,-1,8
 636 544 636 544 581 506 c 132,-1,9
 526 468 526 468 471 448 c 132,-1,10
 416 428 416 428 352 428 c 4,11,12
 256 428 256 428 213 485 c 132,-1,13
 170 542 170 542 170 618 c 4,14,15
 170 628 170 628 175 653 c 132,-1,16
 180 678 180 678 195 705 c 132,-1,17
 210 732 210 732 237 757 c 132,-1,18
 264 782 264 782 308 792 c 4,19,20
 326 796 326 796 343 794 c 132,-1,21
 360 792 360 792 373 787 c 132,-1,22
 386 782 386 782 393 777 c 132,-1,23
 400 772 400 772 400 770 c 5,24,25
 340 792 340 792 307 760 c 132,-1,26
 274 728 274 728 274 674 c 4,27,28
 274 662 274 662 280 647 c 132,-1,29
 286 632 286 632 298 619 c 132,-1,30
 310 606 310 606 329 596 c 132,-1,31
 348 586 348 586 376 586 c 4,32,33
 426 586 426 586 484 603 c 132,-1,34
 542 620 542 620 601 657 c 132,-1,35
 660 694 660 694 718 754 c 132,-1,36
 776 814 776 814 828 900 c 5,37,-1
 1028 900 l 5,38,-1
 1028 186 l 6,39,40
 1028 154 1028 154 1028 116 c 132,-1,41
 1028 78 1028 78 1029 42 c 132,-1,42
 1030 6 1030 6 1034 -27 c 132,-1,43
 1038 -60 1038 -60 1048 -84 c 5,0,1
361.599609375 1162.80078125 m 6,0,1
 361.599609375 1108.40039062 361.599609375 1108.40039062 362.400390625 1071.59960938 c 132,-1,2
 363.19921875 1034.80078125 363.19921875 1034.80078125 365.599609375 1010 c 132,-1,3
 368 985.19921875 368 985.19921875 370.400390625 970.80078125 c 132,-1,4
 372.80078125 956.400390625 372.80078125 956.400390625 377.599609375 946.80078125 c 5,5,6
 356.80078125 953.19921875 356.80078125 953.19921875 326.400390625 967.599609375 c 132,-1,7
 296 982 296 982 268.80078125 1007.59960938 c 132,-1,8
 241.599609375 1033.19921875 241.599609375 1033.19921875 221.599609375 1070.80078125 c 132,-1,9
 201.599609375 1108.40039062 201.599609375 1108.40039062 201.599609375 1162.80078125 c 6,10,-1
 201.599609375 1286 l 5,11,-1
 361.599609375 1286 l 5,12,-1
 361.599609375 1162.80078125 l 6,0,1
198.400390625 1430 m 260,13,14
 198.400390625 1465.19921875 198.400390625 1465.19921875 222.400390625 1489.19921875 c 132,-1,15
 246.400390625 1513.19921875 246.400390625 1513.19921875 281.599609375 1513.19921875 c 260,16,17
 316.80078125 1513.19921875 316.80078125 1513.19921875 340.80078125 1489.19921875 c 132,-1,18
 364.80078125 1465.19921875 364.80078125 1465.19921875 364.80078125 1430 c 260,19,20
 364.80078125 1394.80078125 364.80078125 1394.80078125 340.80078125 1370.80078125 c 132,-1,21
 316.80078125 1346.80078125 316.80078125 1346.80078125 281.599609375 1346.80078125 c 260,22,23
 246.400390625 1346.80078125 246.400390625 1346.80078125 222.400390625 1370.80078125 c 132,-1,24
 198.400390625 1394.80078125 198.400390625 1394.80078125 198.400390625 1430 c 260,13,14
EndSplineSet
Ligature2: "ccmp-1 subtable" period A I quotesingle Y
Ligature2: "ccmp-1 subtable" period A I quotesingle y
Ligature2: "ccmp-1 subtable" period A i quotesingle Y
Ligature2: "ccmp-1 subtable" period A i quotesingle y
Ligature2: "ccmp-1 subtable" period a I quotesingle Y
Ligature2: "ccmp-1 subtable" period a I quotesingle y
Ligature2: "ccmp-1 subtable" period a i quotesingle Y
Ligature2: "ccmp-1 subtable" period a i quotesingle y
Ligature2: "ccmp-0 subtable" period A I quotesingle Y
Ligature2: "ccmp-0 subtable" period A I quotesingle y
Ligature2: "ccmp-0 subtable" period A i quotesingle Y
Ligature2: "ccmp-0 subtable" period A i quotesingle y
Ligature2: "ccmp-0 subtable" period a I quotesingle Y
Ligature2: "ccmp-0 subtable" period a I quotesingle y
Ligature2: "ccmp-0 subtable" period a i quotesingle Y
Ligature2: "ccmp-0 subtable" period a i quotesingle y
Ligature2: "ccmp-1" period a i quotesingle y
Ligature2: "ccmp-1" period a i quotesingle Y
Ligature2: "ccmp-1" period a I quotesingle y
Ligature2: "ccmp-1" period a I quotesingle Y
Ligature2: "ccmp-1" period A i quotesingle y
Ligature2: "ccmp-1" period A i quotesingle Y
Ligature2: "ccmp-1" period A I quotesingle y
Ligature2: "ccmp-1" period A I quotesingle Y
EndChar

StartChar: h.oiy
Encoding: 298 -1 92
Width: 1200
GlyphClass: 3
Flags: HW
LayerCount: 2
Fore
SplineSet
676 1350 m 260,0,1
 676 1398 676 1398 694 1439 c 132,-1,2
 712 1480 712 1480 743 1511 c 132,-1,3
 774 1542 774 1542 815 1560 c 132,-1,4
 856 1578 856 1578 904 1578 c 260,5,6
 952 1578 952 1578 993 1560 c 132,-1,7
 1034 1542 1034 1542 1065 1511 c 132,-1,8
 1096 1480 1096 1480 1114 1439 c 132,-1,9
 1132 1398 1132 1398 1132 1350 c 260,10,11
 1132 1302 1132 1302 1114 1261 c 132,-1,12
 1096 1220 1096 1220 1065 1189 c 132,-1,13
 1034 1158 1034 1158 993 1140 c 132,-1,14
 952 1122 952 1122 904 1122 c 260,15,16
 856 1122 856 1122 815 1140 c 132,-1,17
 774 1158 774 1158 743 1189 c 132,-1,18
 712 1220 712 1220 694 1261 c 132,-1,19
 676 1302 676 1302 676 1350 c 260,0,1
754 1350 m 260,20,21
 754 1286 754 1286 797 1243 c 132,-1,22
 840 1200 840 1200 904 1200 c 260,23,24
 968 1200 968 1200 1012 1243 c 132,-1,25
 1056 1286 1056 1286 1056 1350 c 260,26,27
 1056 1414 1056 1414 1012 1458 c 132,-1,28
 968 1502 968 1502 904 1502 c 260,29,30
 840 1502 840 1502 797 1458 c 132,-1,31
 754 1414 754 1414 754 1350 c 260,20,21
1048 -84 m 5,0,1
 1032 -82 1032 -82 995 -65 c 132,-1,2
 958 -48 958 -48 920 -15 c 132,-1,3
 882 18 882 18 854 67 c 132,-1,4
 826 116 826 116 828 186 c 6,5,-1
 828 730 l 5,6,7
 756 658 756 658 696 601 c 132,-1,8
 636 544 636 544 581 506 c 132,-1,9
 526 468 526 468 471 448 c 132,-1,10
 416 428 416 428 352 428 c 4,11,12
 256 428 256 428 213 485 c 132,-1,13
 170 542 170 542 170 618 c 4,14,15
 170 628 170 628 175 653 c 132,-1,16
 180 678 180 678 195 705 c 132,-1,17
 210 732 210 732 237 757 c 132,-1,18
 264 782 264 782 308 792 c 4,19,20
 326 796 326 796 343 794 c 132,-1,21
 360 792 360 792 373 787 c 132,-1,22
 386 782 386 782 393 777 c 132,-1,23
 400 772 400 772 400 770 c 5,24,25
 340 792 340 792 307 760 c 132,-1,26
 274 728 274 728 274 674 c 4,27,28
 274 662 274 662 280 647 c 132,-1,29
 286 632 286 632 298 619 c 132,-1,30
 310 606 310 606 329 596 c 132,-1,31
 348 586 348 586 376 586 c 4,32,33
 426 586 426 586 484 603 c 132,-1,34
 542 620 542 620 601 657 c 132,-1,35
 660 694 660 694 718 754 c 132,-1,36
 776 814 776 814 828 900 c 5,37,-1
 1028 900 l 5,38,-1
 1028 186 l 6,39,40
 1028 154 1028 154 1028 116 c 132,-1,41
 1028 78 1028 78 1029 42 c 132,-1,42
 1030 6 1030 6 1034 -27 c 132,-1,43
 1038 -60 1038 -60 1048 -84 c 5,0,1
570.400390625 1253.19921875 m 5,0,1
 538.400390625 1224.40039062 538.400390625 1224.40039062 504.80078125 1176.40039062 c 132,-1,2
 471.19921875 1128.40039062 471.19921875 1128.40039062 441.599609375 1074.80078125 c 132,-1,3
 412 1021.19921875 412 1021.19921875 387.19921875 968.400390625 c 132,-1,4
 362.400390625 915.599609375 362.400390625 915.599609375 349.599609375 877.19921875 c 5,5,-1
 223.19921875 877.19921875 l 5,6,7
 229.599609375 926.80078125 229.599609375 926.80078125 223.19921875 976.400390625 c 132,-1,8
 216.80078125 1026 216.80078125 1026 199.19921875 1068.40039062 c 132,-1,9
 181.599609375 1110.80078125 181.599609375 1110.80078125 154.400390625 1144.40039062 c 132,-1,10
 127.19921875 1178 127.19921875 1178 93.599609375 1197.19921875 c 5,11,-1
 231.19921875 1197.19921875 l 5,12,13
 264.80078125 1187.59960938 264.80078125 1187.59960938 288.80078125 1150.80078125 c 132,-1,14
 312.80078125 1114 312.80078125 1114 327.19921875 1066 c 5,15,16
 351.19921875 1101.19921875 351.19921875 1101.19921875 380 1135.59960938 c 132,-1,17
 408.80078125 1170 408.80078125 1170 440 1196.40039062 c 132,-1,18
 471.19921875 1222.80078125 471.19921875 1222.80078125 504 1238 c 132,-1,19
 536.80078125 1253.19921875 536.80078125 1253.19921875 570.400390625 1253.19921875 c 5,0,1
244 1379.59960938 m 4,20,21
 244 1414.80078125 244 1414.80078125 268 1438.80078125 c 132,-1,22
 292 1462.80078125 292 1462.80078125 325.599609375 1462.80078125 c 4,23,24
 360.80078125 1462.80078125 360.80078125 1462.80078125 384.80078125 1438.80078125 c 132,-1,25
 408.80078125 1414.80078125 408.80078125 1414.80078125 408.80078125 1379.59960938 c 4,26,27
 408.80078125 1346 408.80078125 1346 384.80078125 1322 c 132,-1,28
 360.80078125 1298 360.80078125 1298 325.599609375 1298 c 4,29,30
 292 1298 292 1298 268 1322 c 132,-1,31
 244 1346 244 1346 244 1379.59960938 c 4,20,21
EndSplineSet
Ligature2: "ccmp-1" period O I quotesingle Y
Ligature2: "ccmp-1" period O I quotesingle y
Ligature2: "ccmp-1" period O i quotesingle Y
Ligature2: "ccmp-1" period O i quotesingle y
Ligature2: "ccmp-1" period o I quotesingle Y
Ligature2: "ccmp-1" period o I quotesingle y
Ligature2: "ccmp-1" period o i quotesingle Y
Ligature2: "ccmp-1" period o i quotesingle y
Ligature2: "ccmp-0 subtable" period o i quotesingle y
Ligature2: "ccmp-0 subtable" period o i quotesingle Y
Ligature2: "ccmp-0 subtable" period o I quotesingle y
Ligature2: "ccmp-0 subtable" period o I quotesingle Y
Ligature2: "ccmp-0 subtable" period O i quotesingle y
Ligature2: "ccmp-0 subtable" period O i quotesingle Y
Ligature2: "ccmp-0 subtable" period O I quotesingle y
Ligature2: "ccmp-0 subtable" period O I quotesingle Y
Ligature2: "ccmp-1 subtable" period o i quotesingle y
Ligature2: "ccmp-1 subtable" period o i quotesingle Y
Ligature2: "ccmp-1 subtable" period o I quotesingle y
Ligature2: "ccmp-1 subtable" period o I quotesingle Y
Ligature2: "ccmp-1 subtable" period O i quotesingle y
Ligature2: "ccmp-1 subtable" period O i quotesingle Y
Ligature2: "ccmp-1 subtable" period O I quotesingle y
Ligature2: "ccmp-1 subtable" period O I quotesingle Y
EndChar

StartChar: h.eiy
Encoding: 299 -1 93
Width: 1200
GlyphClass: 3
Flags: HW
LayerCount: 2
Fore
SplineSet
676 1350 m 260,0,1
 676 1398 676 1398 694 1439 c 132,-1,2
 712 1480 712 1480 743 1511 c 132,-1,3
 774 1542 774 1542 815 1560 c 132,-1,4
 856 1578 856 1578 904 1578 c 260,5,6
 952 1578 952 1578 993 1560 c 132,-1,7
 1034 1542 1034 1542 1065 1511 c 132,-1,8
 1096 1480 1096 1480 1114 1439 c 132,-1,9
 1132 1398 1132 1398 1132 1350 c 260,10,11
 1132 1302 1132 1302 1114 1261 c 132,-1,12
 1096 1220 1096 1220 1065 1189 c 132,-1,13
 1034 1158 1034 1158 993 1140 c 132,-1,14
 952 1122 952 1122 904 1122 c 260,15,16
 856 1122 856 1122 815 1140 c 132,-1,17
 774 1158 774 1158 743 1189 c 132,-1,18
 712 1220 712 1220 694 1261 c 132,-1,19
 676 1302 676 1302 676 1350 c 260,0,1
754 1350 m 260,20,21
 754 1286 754 1286 797 1243 c 132,-1,22
 840 1200 840 1200 904 1200 c 260,23,24
 968 1200 968 1200 1012 1243 c 132,-1,25
 1056 1286 1056 1286 1056 1350 c 260,26,27
 1056 1414 1056 1414 1012 1458 c 132,-1,28
 968 1502 968 1502 904 1502 c 260,29,30
 840 1502 840 1502 797 1458 c 132,-1,31
 754 1414 754 1414 754 1350 c 260,20,21
1048 -84 m 5,0,1
 1032 -82 1032 -82 995 -65 c 132,-1,2
 958 -48 958 -48 920 -15 c 132,-1,3
 882 18 882 18 854 67 c 132,-1,4
 826 116 826 116 828 186 c 6,5,-1
 828 730 l 5,6,7
 756 658 756 658 696 601 c 132,-1,8
 636 544 636 544 581 506 c 132,-1,9
 526 468 526 468 471 448 c 132,-1,10
 416 428 416 428 352 428 c 4,11,12
 256 428 256 428 213 485 c 132,-1,13
 170 542 170 542 170 618 c 4,14,15
 170 628 170 628 175 653 c 132,-1,16
 180 678 180 678 195 705 c 132,-1,17
 210 732 210 732 237 757 c 132,-1,18
 264 782 264 782 308 792 c 4,19,20
 326 796 326 796 343 794 c 132,-1,21
 360 792 360 792 373 787 c 132,-1,22
 386 782 386 782 393 777 c 132,-1,23
 400 772 400 772 400 770 c 5,24,25
 340 792 340 792 307 760 c 132,-1,26
 274 728 274 728 274 674 c 4,27,28
 274 662 274 662 280 647 c 132,-1,29
 286 632 286 632 298 619 c 132,-1,30
 310 606 310 606 329 596 c 132,-1,31
 348 586 348 586 376 586 c 4,32,33
 426 586 426 586 484 603 c 132,-1,34
 542 620 542 620 601 657 c 132,-1,35
 660 694 660 694 718 754 c 132,-1,36
 776 814 776 814 828 900 c 5,37,-1
 1028 900 l 5,38,-1
 1028 186 l 6,39,40
 1028 154 1028 154 1028 116 c 132,-1,41
 1028 78 1028 78 1029 42 c 132,-1,42
 1030 6 1030 6 1034 -27 c 132,-1,43
 1038 -60 1038 -60 1048 -84 c 5,0,1
249.19921875 1254 m 4,0,1
 249.19921875 1289.19921875 249.19921875 1289.19921875 273.19921875 1313.19921875 c 132,-1,2
 297.19921875 1337.19921875 297.19921875 1337.19921875 330.80078125 1337.19921875 c 4,3,4
 366 1337.19921875 366 1337.19921875 390 1313.19921875 c 132,-1,5
 414 1289.19921875 414 1289.19921875 414 1254 c 4,6,7
 414 1220.40039062 414 1220.40039062 390 1196.40039062 c 132,-1,8
 366 1172.40039062 366 1172.40039062 330.80078125 1172.40039062 c 4,9,10
 297.19921875 1172.40039062 297.19921875 1172.40039062 273.19921875 1196.40039062 c 132,-1,11
 249.19921875 1220.40039062 249.19921875 1220.40039062 249.19921875 1254 c 4,0,1
502 967.599609375 m 5,12,13
 358 969.19921875 358 969.19921875 270.80078125 967.599609375 c 132,-1,14
 183.599609375 966 183.599609375 966 136.400390625 962 c 132,-1,15
 89.19921875 958 89.19921875 958 73.19921875 953.19921875 c 4,16,17
 52.400390625 946.80078125 52.400390625 946.80078125 52.400390625 946.80078125 c 6,18,-1
 134 1092.40039062 l 5,19,-1
 535.599609375 1092.40039062 l 5,20,-1
 502 967.599609375 l 5,12,13
EndSplineSet
Ligature2: "ccmp-1" period E I quotesingle Y
Ligature2: "ccmp-1" period E I quotesingle y
Ligature2: "ccmp-1" period E i quotesingle Y
Ligature2: "ccmp-1" period E i quotesingle y
Ligature2: "ccmp-1" period e I quotesingle Y
Ligature2: "ccmp-1" period e I quotesingle y
Ligature2: "ccmp-1" period e i quotesingle Y
Ligature2: "ccmp-1" period e i quotesingle y
Ligature2: "ccmp-0 subtable" period e i quotesingle y
Ligature2: "ccmp-0 subtable" period e i quotesingle Y
Ligature2: "ccmp-0 subtable" period e I quotesingle y
Ligature2: "ccmp-0 subtable" period e I quotesingle Y
Ligature2: "ccmp-0 subtable" period E i quotesingle y
Ligature2: "ccmp-0 subtable" period E i quotesingle Y
Ligature2: "ccmp-0 subtable" period E I quotesingle y
Ligature2: "ccmp-0 subtable" period E I quotesingle Y
Ligature2: "ccmp-1 subtable" period e i quotesingle y
Ligature2: "ccmp-1 subtable" period e i quotesingle Y
Ligature2: "ccmp-1 subtable" period e I quotesingle y
Ligature2: "ccmp-1 subtable" period e I quotesingle Y
Ligature2: "ccmp-1 subtable" period E i quotesingle y
Ligature2: "ccmp-1 subtable" period E i quotesingle Y
Ligature2: "ccmp-1 subtable" period E I quotesingle y
Ligature2: "ccmp-1 subtable" period E I quotesingle Y
EndChar

StartChar: h.auy
Encoding: 300 -1 94
Width: 1200
GlyphClass: 3
Flags: HW
LayerCount: 2
Fore
SplineSet
676 1350 m 260,0,1
 676 1398 676 1398 694 1439 c 132,-1,2
 712 1480 712 1480 743 1511 c 132,-1,3
 774 1542 774 1542 815 1560 c 132,-1,4
 856 1578 856 1578 904 1578 c 260,5,6
 952 1578 952 1578 993 1560 c 132,-1,7
 1034 1542 1034 1542 1065 1511 c 132,-1,8
 1096 1480 1096 1480 1114 1439 c 132,-1,9
 1132 1398 1132 1398 1132 1350 c 260,10,11
 1132 1302 1132 1302 1114 1261 c 132,-1,12
 1096 1220 1096 1220 1065 1189 c 132,-1,13
 1034 1158 1034 1158 993 1140 c 132,-1,14
 952 1122 952 1122 904 1122 c 260,15,16
 856 1122 856 1122 815 1140 c 132,-1,17
 774 1158 774 1158 743 1189 c 132,-1,18
 712 1220 712 1220 694 1261 c 132,-1,19
 676 1302 676 1302 676 1350 c 260,0,1
754 1350 m 260,20,21
 754 1286 754 1286 797 1243 c 132,-1,22
 840 1200 840 1200 904 1200 c 260,23,24
 968 1200 968 1200 1012 1243 c 132,-1,25
 1056 1286 1056 1286 1056 1350 c 260,26,27
 1056 1414 1056 1414 1012 1458 c 132,-1,28
 968 1502 968 1502 904 1502 c 260,29,30
 840 1502 840 1502 797 1458 c 132,-1,31
 754 1414 754 1414 754 1350 c 260,20,21
1048 -84 m 5,0,1
 1032 -82 1032 -82 995 -65 c 132,-1,2
 958 -48 958 -48 920 -15 c 132,-1,3
 882 18 882 18 854 67 c 132,-1,4
 826 116 826 116 828 186 c 6,5,-1
 828 730 l 5,6,7
 756 658 756 658 696 601 c 132,-1,8
 636 544 636 544 581 506 c 132,-1,9
 526 468 526 468 471 448 c 132,-1,10
 416 428 416 428 352 428 c 4,11,12
 256 428 256 428 213 485 c 132,-1,13
 170 542 170 542 170 618 c 4,14,15
 170 628 170 628 175 653 c 132,-1,16
 180 678 180 678 195 705 c 132,-1,17
 210 732 210 732 237 757 c 132,-1,18
 264 782 264 782 308 792 c 4,19,20
 326 796 326 796 343 794 c 132,-1,21
 360 792 360 792 373 787 c 132,-1,22
 386 782 386 782 393 777 c 132,-1,23
 400 772 400 772 400 770 c 5,24,25
 340 792 340 792 307 760 c 132,-1,26
 274 728 274 728 274 674 c 4,27,28
 274 662 274 662 280 647 c 132,-1,29
 286 632 286 632 298 619 c 132,-1,30
 310 606 310 606 329 596 c 132,-1,31
 348 586 348 586 376 586 c 4,32,33
 426 586 426 586 484 603 c 132,-1,34
 542 620 542 620 601 657 c 132,-1,35
 660 694 660 694 718 754 c 132,-1,36
 776 814 776 814 828 900 c 5,37,-1
 1028 900 l 5,38,-1
 1028 186 l 6,39,40
 1028 154 1028 154 1028 116 c 132,-1,41
 1028 78 1028 78 1029 42 c 132,-1,42
 1030 6 1030 6 1034 -27 c 132,-1,43
 1038 -60 1038 -60 1048 -84 c 5,0,1
198 1306 m 4,0,1
 226 1342 226 1342 257 1357 c 132,-1,2
 288 1372 288 1372 320 1372 c 4,3,4
 358 1372 358 1372 395 1352 c 132,-1,5
 432 1332 432 1332 460 1300 c 132,-1,6
 488 1268 488 1268 505 1229 c 132,-1,7
 522 1190 522 1190 522 1152 c 4,8,9
 522 1094 522 1094 498 1046 c 132,-1,10
 474 998 474 998 435 961 c 132,-1,11
 396 924 396 924 347 900 c 132,-1,12
 298 876 298 876 246 864 c 5,13,14
 278 904 278 904 302 936 c 132,-1,15
 326 968 326 968 340 998 c 132,-1,16
 354 1028 354 1028 361 1059 c 132,-1,17
 368 1090 368 1090 368 1126 c 4,18,19
 368 1166 368 1166 359 1196 c 132,-1,20
 350 1226 350 1226 340 1242 c 5,21,22
 340 1214 340 1214 317 1193 c 132,-1,23
 294 1172 294 1172 264 1172 c 4,24,25
 218 1172 218 1172 198 1195 c 132,-1,26
 178 1218 178 1218 178 1246 c 4,27,28
 178 1280 178 1280 198 1306 c 4,0,1
EndSplineSet
Ligature2: "ccmp-1" period A U quotesingle Y
Ligature2: "ccmp-1" period A U quotesingle y
Ligature2: "ccmp-1" period A u quotesingle Y
Ligature2: "ccmp-1" period A u quotesingle y
Ligature2: "ccmp-1" period a U quotesingle Y
Ligature2: "ccmp-1" period a U quotesingle y
Ligature2: "ccmp-1" period a u quotesingle Y
Ligature2: "ccmp-1" period a u quotesingle y
Ligature2: "ccmp-0 subtable" period a u quotesingle y
Ligature2: "ccmp-0 subtable" period a u quotesingle Y
Ligature2: "ccmp-0 subtable" period a U quotesingle y
Ligature2: "ccmp-0 subtable" period a U quotesingle Y
Ligature2: "ccmp-0 subtable" period A u quotesingle y
Ligature2: "ccmp-0 subtable" period A u quotesingle Y
Ligature2: "ccmp-0 subtable" period A U quotesingle y
Ligature2: "ccmp-0 subtable" period A U quotesingle Y
Ligature2: "ccmp-1 subtable" period a u quotesingle y
Ligature2: "ccmp-1 subtable" period a u quotesingle Y
Ligature2: "ccmp-1 subtable" period a U quotesingle y
Ligature2: "ccmp-1 subtable" period a U quotesingle Y
Ligature2: "ccmp-1 subtable" period A u quotesingle y
Ligature2: "ccmp-1 subtable" period A u quotesingle Y
Ligature2: "ccmp-1 subtable" period A U quotesingle y
Ligature2: "ccmp-1 subtable" period A U quotesingle Y
EndChar

